<svg width="600" height="630" viewBox="0 0 600 630" fill="none" xmlns="http://www.w3.org/2000/svg">
<path d="M558.942 150.5L300 599L41.0583 150.5L558.942 150.5Z" fill="white" stroke="black"/>
<path d="M234.869 254V252.849C234.869 252.5 234.931 252.129 235.055 251.737C235.183 251.341 235.366 250.96 235.604 250.593C235.847 250.222 236.139 249.901 236.48 249.628L237.298 250.293C237.03 250.676 236.795 251.077 236.595 251.494C236.399 251.908 236.301 252.351 236.301 252.824V254H234.869ZM238.142 254V252.849C238.142 252.5 238.204 252.129 238.327 251.737C238.455 251.341 238.638 250.96 238.877 250.593C239.12 250.222 239.412 249.901 239.753 249.628L240.571 250.293C240.303 250.676 240.068 251.077 239.868 251.494C239.672 251.908 239.574 252.351 239.574 252.824V254H238.142ZM246.225 263.205C245.304 263.205 244.512 262.987 243.847 262.553C243.182 262.118 242.671 261.519 242.313 260.756C241.955 259.994 241.776 259.122 241.776 258.142C241.776 257.145 241.959 256.265 242.326 255.502C242.696 254.735 243.212 254.136 243.873 253.706C244.537 253.271 245.313 253.054 246.199 253.054C246.89 253.054 247.512 253.182 248.066 253.438C248.62 253.693 249.074 254.051 249.427 254.511C249.781 254.972 250 255.509 250.086 256.122H248.577C248.462 255.675 248.206 255.278 247.81 254.933C247.418 254.584 246.89 254.409 246.225 254.409C245.637 254.409 245.121 254.562 244.678 254.869C244.239 255.172 243.896 255.6 243.649 256.154C243.406 256.704 243.284 257.349 243.284 258.091C243.284 258.849 243.404 259.51 243.642 260.072C243.885 260.635 244.226 261.072 244.665 261.383C245.108 261.694 245.628 261.849 246.225 261.849C246.617 261.849 246.973 261.781 247.292 261.645C247.612 261.509 247.882 261.312 248.104 261.057C248.326 260.801 248.483 260.494 248.577 260.136H250.086C250 260.716 249.789 261.238 249.453 261.702C249.12 262.163 248.679 262.529 248.13 262.802C247.584 263.07 246.949 263.205 246.225 263.205ZM256.407 263.205C255.461 263.205 254.645 262.996 253.959 262.578C253.277 262.156 252.751 261.568 252.38 260.814C252.014 260.055 251.831 259.173 251.831 258.168C251.831 257.162 252.014 256.276 252.38 255.509C252.751 254.737 253.267 254.136 253.927 253.706C254.592 253.271 255.368 253.054 256.254 253.054C256.765 253.054 257.27 253.139 257.769 253.31C258.267 253.48 258.721 253.757 259.13 254.141C259.539 254.52 259.865 255.023 260.108 255.649C260.351 256.276 260.473 257.047 260.473 257.963V258.602H252.904V257.298H258.939C258.939 256.744 258.828 256.25 258.606 255.815C258.389 255.381 258.078 255.038 257.673 254.786C257.272 254.535 256.799 254.409 256.254 254.409C255.653 254.409 255.133 254.558 254.694 254.857C254.26 255.151 253.925 255.534 253.691 256.007C253.456 256.48 253.339 256.987 253.339 257.528V258.398C253.339 259.139 253.467 259.768 253.723 260.283C253.983 260.795 254.343 261.185 254.803 261.453C255.263 261.717 255.798 261.849 256.407 261.849C256.804 261.849 257.162 261.794 257.481 261.683C257.805 261.568 258.084 261.398 258.319 261.172C258.553 260.942 258.734 260.656 258.862 260.315L260.319 260.724C260.166 261.219 259.908 261.653 259.546 262.028C259.184 262.399 258.736 262.689 258.203 262.898C257.671 263.102 257.072 263.205 256.407 263.205ZM264.276 257.094V263H262.767V253.182H264.225V254.716H264.353C264.583 254.217 264.932 253.817 265.401 253.514C265.87 253.207 266.475 253.054 267.216 253.054C267.881 253.054 268.463 253.19 268.961 253.463C269.46 253.732 269.848 254.141 270.125 254.69C270.402 255.236 270.54 255.926 270.54 256.761V263H269.032V256.864C269.032 256.092 268.831 255.491 268.431 255.061C268.03 254.626 267.48 254.409 266.782 254.409C266.3 254.409 265.87 254.513 265.49 254.722C265.115 254.931 264.819 255.236 264.602 255.636C264.385 256.037 264.276 256.523 264.276 257.094ZM277.567 253.182V254.46H272.479V253.182H277.567ZM273.961 250.83H275.47V260.188C275.47 260.614 275.532 260.933 275.655 261.146C275.783 261.355 275.945 261.496 276.141 261.568C276.341 261.636 276.552 261.67 276.774 261.67C276.94 261.67 277.077 261.662 277.183 261.645C277.29 261.624 277.375 261.607 277.439 261.594L277.746 262.949C277.643 262.987 277.501 263.026 277.317 263.064C277.134 263.107 276.902 263.128 276.621 263.128C276.194 263.128 275.777 263.036 275.368 262.853C274.963 262.67 274.626 262.391 274.358 262.016C274.094 261.641 273.961 261.168 273.961 260.597V250.83ZM279.836 263V253.182H281.293V254.665H281.395C281.574 254.179 281.898 253.785 282.367 253.482C282.836 253.18 283.364 253.028 283.952 253.028C284.063 253.028 284.202 253.031 284.368 253.035C284.534 253.039 284.66 253.045 284.745 253.054V254.588C284.694 254.575 284.577 254.556 284.393 254.531C284.214 254.501 284.025 254.486 283.824 254.486C283.347 254.486 282.921 254.586 282.546 254.786C282.175 254.982 281.881 255.255 281.664 255.604C281.451 255.95 281.344 256.344 281.344 256.787V263H279.836ZM289.422 263.23C288.8 263.23 288.235 263.113 287.728 262.879C287.221 262.64 286.819 262.297 286.52 261.849C286.222 261.398 286.073 260.852 286.073 260.213C286.073 259.651 286.184 259.195 286.405 258.845C286.627 258.491 286.923 258.214 287.294 258.014C287.664 257.814 288.074 257.665 288.521 257.567C288.973 257.464 289.426 257.384 289.882 257.324C290.479 257.247 290.963 257.19 291.333 257.151C291.708 257.109 291.981 257.038 292.152 256.94C292.326 256.842 292.414 256.672 292.414 256.429V256.378C292.414 255.747 292.241 255.257 291.896 254.908C291.555 254.558 291.037 254.384 290.343 254.384C289.623 254.384 289.058 254.541 288.649 254.857C288.24 255.172 287.952 255.509 287.786 255.866L286.354 255.355C286.61 254.759 286.951 254.294 287.377 253.962C287.807 253.625 288.276 253.391 288.783 253.259C289.294 253.122 289.797 253.054 290.292 253.054C290.607 253.054 290.969 253.092 291.378 253.169C291.792 253.241 292.19 253.393 292.574 253.623C292.961 253.853 293.283 254.2 293.539 254.665C293.794 255.129 293.922 255.751 293.922 256.531V263H292.414V261.67H292.337C292.235 261.884 292.064 262.112 291.826 262.354C291.587 262.597 291.27 262.804 290.873 262.974C290.477 263.145 289.993 263.23 289.422 263.23ZM289.652 261.875C290.249 261.875 290.752 261.758 291.161 261.523C291.574 261.289 291.885 260.987 292.094 260.616C292.307 260.245 292.414 259.855 292.414 259.446V258.065C292.35 258.142 292.209 258.212 291.992 258.276C291.779 258.336 291.532 258.389 291.25 258.436C290.973 258.479 290.703 258.517 290.439 258.551C290.179 258.581 289.968 258.607 289.806 258.628C289.414 258.679 289.047 258.762 288.706 258.877C288.37 258.988 288.097 259.156 287.888 259.382C287.684 259.604 287.581 259.906 287.581 260.29C287.581 260.814 287.775 261.21 288.163 261.479C288.555 261.743 289.051 261.875 289.652 261.875ZM298.184 249.909V263H296.676V249.909H298.184ZM306.01 263V253.182H307.467V254.665H307.569C307.748 254.179 308.072 253.785 308.541 253.482C309.01 253.18 309.538 253.028 310.126 253.028C310.237 253.028 310.375 253.031 310.542 253.035C310.708 253.039 310.833 253.045 310.919 253.054V254.588C310.868 254.575 310.75 254.556 310.567 254.531C310.388 254.501 310.199 254.486 309.998 254.486C309.521 254.486 309.095 254.586 308.72 254.786C308.349 254.982 308.055 255.255 307.838 255.604C307.625 255.95 307.518 256.344 307.518 256.787V263H306.01ZM316.525 263.205C315.578 263.205 314.762 262.996 314.076 262.578C313.395 262.156 312.868 261.568 312.498 260.814C312.131 260.055 311.948 259.173 311.948 258.168C311.948 257.162 312.131 256.276 312.498 255.509C312.868 254.737 313.384 254.136 314.044 253.706C314.709 253.271 315.485 253.054 316.371 253.054C316.882 253.054 317.387 253.139 317.886 253.31C318.385 253.48 318.838 253.757 319.248 254.141C319.657 254.52 319.983 255.023 320.225 255.649C320.468 256.276 320.59 257.047 320.59 257.963V258.602H313.022V257.298H319.056C319.056 256.744 318.945 256.25 318.723 255.815C318.506 255.381 318.195 255.038 317.79 254.786C317.39 254.535 316.917 254.409 316.371 254.409C315.77 254.409 315.25 254.558 314.811 254.857C314.377 255.151 314.042 255.534 313.808 256.007C313.574 256.48 313.456 256.987 313.456 257.528V258.398C313.456 259.139 313.584 259.768 313.84 260.283C314.1 260.795 314.46 261.185 314.92 261.453C315.38 261.717 315.915 261.849 316.525 261.849C316.921 261.849 317.279 261.794 317.598 261.683C317.922 261.568 318.201 261.398 318.436 261.172C318.67 260.942 318.851 260.656 318.979 260.315L320.436 260.724C320.283 261.219 320.025 261.653 319.663 262.028C319.301 262.399 318.853 262.689 318.321 262.898C317.788 263.102 317.189 263.205 316.525 263.205ZM326.848 266.886C326.119 266.886 325.493 266.793 324.968 266.605C324.444 266.422 324.007 266.179 323.658 265.876C323.313 265.578 323.038 265.259 322.833 264.918L324.035 264.074C324.172 264.253 324.344 264.457 324.553 264.688C324.762 264.922 325.047 265.124 325.409 265.295C325.776 265.469 326.255 265.557 326.848 265.557C327.64 265.557 328.294 265.365 328.81 264.982C329.326 264.598 329.583 263.997 329.583 263.179V261.185H329.456C329.345 261.364 329.187 261.585 328.983 261.849C328.782 262.109 328.493 262.342 328.113 262.546C327.738 262.746 327.231 262.847 326.592 262.847C325.799 262.847 325.088 262.659 324.457 262.284C323.831 261.909 323.334 261.364 322.968 260.648C322.605 259.932 322.424 259.062 322.424 258.04C322.424 257.034 322.601 256.158 322.955 255.413C323.309 254.663 323.801 254.083 324.431 253.674C325.062 253.261 325.791 253.054 326.618 253.054C327.257 253.054 327.764 253.161 328.139 253.374C328.518 253.582 328.808 253.821 329.008 254.089C329.213 254.354 329.37 254.571 329.481 254.741H329.635V253.182H331.092V263.281C331.092 264.125 330.9 264.811 330.517 265.339C330.137 265.872 329.626 266.262 328.983 266.509C328.343 266.761 327.632 266.886 326.848 266.886ZM326.797 261.491C327.402 261.491 327.913 261.353 328.331 261.076C328.748 260.799 329.066 260.401 329.283 259.881C329.5 259.361 329.609 258.739 329.609 258.014C329.609 257.307 329.502 256.683 329.289 256.141C329.076 255.6 328.761 255.176 328.343 254.869C327.926 254.562 327.41 254.409 326.797 254.409C326.157 254.409 325.625 254.571 325.199 254.895C324.777 255.219 324.459 255.653 324.246 256.199C324.037 256.744 323.933 257.349 323.933 258.014C323.933 258.696 324.039 259.299 324.252 259.823C324.47 260.343 324.789 260.752 325.211 261.05C325.637 261.344 326.166 261.491 326.797 261.491ZM333.853 263V253.182H335.362V263H333.853ZM334.62 251.545C334.326 251.545 334.073 251.445 333.86 251.245C333.651 251.045 333.547 250.804 333.547 250.523C333.547 250.241 333.651 250.001 333.86 249.8C334.073 249.6 334.326 249.5 334.62 249.5C334.914 249.5 335.166 249.6 335.375 249.8C335.588 250.001 335.694 250.241 335.694 250.523C335.694 250.804 335.588 251.045 335.375 251.245C335.166 251.445 334.914 251.545 334.62 251.545ZM342.113 263.205C341.227 263.205 340.449 262.994 339.78 262.572C339.116 262.15 338.596 261.56 338.221 260.801C337.85 260.043 337.665 259.156 337.665 258.142C337.665 257.119 337.85 256.227 338.221 255.464C338.596 254.701 339.116 254.109 339.78 253.687C340.449 253.265 341.227 253.054 342.113 253.054C343 253.054 343.775 253.265 344.44 253.687C345.109 254.109 345.629 254.701 346 255.464C346.375 256.227 346.562 257.119 346.562 258.142C346.562 259.156 346.375 260.043 346 260.801C345.629 261.56 345.109 262.15 344.44 262.572C343.775 262.994 343 263.205 342.113 263.205ZM342.113 261.849C342.787 261.849 343.341 261.677 343.775 261.332C344.21 260.987 344.532 260.533 344.741 259.97C344.949 259.408 345.054 258.798 345.054 258.142C345.054 257.486 344.949 256.874 344.741 256.308C344.532 255.741 344.21 255.283 343.775 254.933C343.341 254.584 342.787 254.409 342.113 254.409C341.44 254.409 340.886 254.584 340.452 254.933C340.017 255.283 339.695 255.741 339.486 256.308C339.278 256.874 339.173 257.486 339.173 258.142C339.173 258.798 339.278 259.408 339.486 259.97C339.695 260.533 340.017 260.987 340.452 261.332C340.886 261.677 341.44 261.849 342.113 261.849ZM350.374 257.094V263H348.865V253.182H350.322V254.716H350.45C350.68 254.217 351.03 253.817 351.499 253.514C351.967 253.207 352.572 253.054 353.314 253.054C353.979 253.054 354.56 253.19 355.059 253.463C355.558 253.732 355.945 254.141 356.222 254.69C356.499 255.236 356.638 255.926 356.638 256.761V263H355.129V256.864C355.129 256.092 354.929 255.491 354.528 255.061C354.128 254.626 353.578 254.409 352.879 254.409C352.398 254.409 351.967 254.513 351.588 254.722C351.213 254.931 350.917 255.236 350.7 255.636C350.482 256.037 350.374 256.523 350.374 257.094ZM360.724 249.909V251.06C360.724 251.409 360.66 251.782 360.532 252.178C360.409 252.57 360.225 252.952 359.982 253.322C359.744 253.689 359.454 254.009 359.113 254.281L358.295 253.616C358.563 253.233 358.796 252.835 358.992 252.421C359.192 252.004 359.292 251.558 359.292 251.085V249.909H360.724ZM363.997 249.909V251.06C363.997 251.409 363.933 251.782 363.805 252.178C363.681 252.57 363.498 252.952 363.255 253.322C363.017 253.689 362.727 254.009 362.386 254.281L361.568 253.616C361.836 253.233 362.068 252.835 362.264 252.421C362.465 252.004 362.565 251.558 362.565 251.085V249.909H363.997Z" fill="black"/>
<path d="M41.8666 151.168L128.469 151.168L85.1678 226.168L41.8666 151.168Z" fill="#D9D9D9"/>
<path d="M471 151.301L557.603 151.301L514.301 226.301L471 151.301Z" fill="#D9D9D9"/>
<path d="M257 522.301L343.603 522.301L300.301 597.301L257 522.301Z" fill="#D9D9D9"/>
<path d="M500.324 170.182L502.011 174.196L505.028 170.182H506.767L502.778 175.091L505.131 180H503.392L501.679 176.19L498.688 180H496.949L500.886 175.091L498.585 170.182H500.324ZM513.074 174.247C513.168 173.642 513.334 173.12 513.573 172.681C513.812 172.242 514.121 171.903 514.5 171.665C514.883 171.426 515.337 171.307 515.861 171.307C516.27 171.307 516.68 171.396 517.089 171.575C517.498 171.75 517.915 172.053 518.341 172.483C518.644 172.781 518.876 172.979 519.038 173.077C519.2 173.175 519.385 173.224 519.594 173.224C519.974 173.224 520.289 173.09 520.54 172.822C520.792 172.549 520.954 172.163 521.026 171.665H522.407C522.322 172.266 522.16 172.786 521.921 173.224C521.682 173.663 521.371 174.004 520.988 174.247C520.604 174.486 520.148 174.605 519.62 174.605C519.241 174.605 518.872 174.52 518.514 174.349C518.156 174.175 517.732 173.842 517.242 173.352C516.995 173.105 516.771 172.933 516.571 172.835C516.371 172.737 516.143 172.688 515.887 172.688C515.499 172.688 515.184 172.822 514.941 173.09C514.698 173.354 514.536 173.74 514.455 174.247H513.074ZM513.074 178.108C513.168 177.503 513.334 176.981 513.573 176.542C513.812 176.103 514.121 175.764 514.5 175.526C514.883 175.287 515.337 175.168 515.861 175.168C516.27 175.168 516.68 175.257 517.089 175.436C517.498 175.611 517.915 175.913 518.341 176.344C518.644 176.642 518.876 176.84 519.038 176.938C519.2 177.036 519.385 177.085 519.594 177.085C519.974 177.085 520.289 176.951 520.54 176.683C520.792 176.41 520.954 176.024 521.026 175.526H522.407C522.322 176.126 522.16 176.646 521.921 177.085C521.682 177.524 521.371 177.865 520.988 178.108C520.604 178.347 520.148 178.466 519.62 178.466C519.241 178.466 518.872 178.381 518.514 178.21C518.156 178.036 517.732 177.703 517.242 177.213C516.995 176.966 516.771 176.793 516.571 176.695C516.371 176.597 516.143 176.548 515.887 176.548C515.499 176.548 515.184 176.683 514.941 176.951C514.698 177.215 514.536 177.601 514.455 178.108H513.074ZM531.754 174.094L530.782 180H529.273L530.91 170.182H532.367L532.112 171.716H532.239C532.546 171.217 532.962 170.817 533.486 170.514C534.01 170.207 534.643 170.054 535.384 170.054C536.04 170.054 536.594 170.19 537.046 170.463C537.502 170.732 537.824 171.141 538.011 171.69C538.203 172.236 538.231 172.926 538.094 173.761L537.046 180H535.538L536.56 173.864C536.688 173.097 536.588 172.496 536.26 172.061C535.936 171.626 535.423 171.409 534.719 171.409C534.234 171.409 533.784 171.513 533.371 171.722C532.962 171.931 532.614 172.236 532.329 172.636C532.048 173.037 531.856 173.523 531.754 174.094Z" fill="black"/>
<path d="M279.767 554L281.94 540.909H283.449L282.656 545.741H282.784C282.92 545.571 283.11 545.354 283.353 545.089C283.596 544.821 283.922 544.582 284.331 544.374C284.74 544.161 285.264 544.054 285.903 544.054C286.73 544.054 287.423 544.261 287.981 544.674C288.543 545.087 288.938 545.673 289.163 546.432C289.393 547.19 289.423 548.085 289.253 549.116C289.082 550.156 288.756 551.058 288.275 551.82C287.798 552.579 287.21 553.167 286.511 553.585C285.816 553.998 285.06 554.205 284.241 554.205C283.611 554.205 283.123 554.1 282.778 553.891C282.437 553.678 282.185 553.437 282.023 553.169C281.866 552.896 281.744 552.67 281.659 552.491H281.48L281.224 554H279.767ZM282.068 549.091C281.949 549.832 281.951 550.487 282.075 551.053C282.198 551.616 282.443 552.057 282.81 552.376C283.176 552.692 283.662 552.849 284.267 552.849C284.898 552.849 285.452 552.683 285.929 552.351C286.406 552.014 286.798 551.562 287.105 550.996C287.412 550.425 287.625 549.79 287.744 549.091C287.855 548.401 287.851 547.778 287.732 547.224C287.616 546.666 287.374 546.225 287.003 545.901C286.636 545.573 286.134 545.409 285.494 545.409C284.881 545.409 284.337 545.565 283.864 545.876C283.396 546.183 283.008 546.613 282.701 547.167C282.398 547.717 282.188 548.358 282.068 549.091ZM296.533 548.247C296.627 547.642 296.793 547.12 297.032 546.681C297.271 546.242 297.58 545.903 297.959 545.665C298.342 545.426 298.796 545.307 299.32 545.307C299.729 545.307 300.138 545.396 300.548 545.575C300.957 545.75 301.374 546.053 301.8 546.483C302.103 546.781 302.335 546.979 302.497 547.077C302.659 547.175 302.844 547.224 303.053 547.224C303.433 547.224 303.748 547.09 303.999 546.822C304.251 546.549 304.413 546.163 304.485 545.665H305.866C305.781 546.266 305.619 546.786 305.38 547.224C305.141 547.663 304.83 548.004 304.447 548.247C304.063 548.486 303.607 548.605 303.079 548.605C302.7 548.605 302.331 548.52 301.973 548.349C301.615 548.175 301.191 547.842 300.701 547.352C300.454 547.105 300.23 546.933 300.03 546.835C299.83 546.737 299.602 546.688 299.346 546.688C298.958 546.688 298.643 546.822 298.4 547.09C298.157 547.354 297.995 547.74 297.914 548.247H296.533ZM296.533 552.108C296.627 551.503 296.793 550.981 297.032 550.542C297.271 550.103 297.58 549.764 297.959 549.526C298.342 549.287 298.796 549.168 299.32 549.168C299.729 549.168 300.138 549.257 300.548 549.436C300.957 549.611 301.374 549.913 301.8 550.344C302.103 550.642 302.335 550.84 302.497 550.938C302.659 551.036 302.844 551.085 303.053 551.085C303.433 551.085 303.748 550.951 303.999 550.683C304.251 550.41 304.413 550.024 304.485 549.526H305.866C305.781 550.126 305.619 550.646 305.38 551.085C305.141 551.524 304.83 551.865 304.447 552.108C304.063 552.347 303.607 552.466 303.079 552.466C302.7 552.466 302.331 552.381 301.973 552.21C301.615 552.036 301.191 551.703 300.701 551.213C300.454 550.966 300.23 550.793 300.03 550.695C299.83 550.597 299.602 550.548 299.346 550.548C298.958 550.548 298.643 550.683 298.4 550.951C298.157 551.215 297.995 551.601 297.914 552.108H296.533ZM315.213 548.094L314.241 554H312.732L314.369 544.182H315.826L315.57 545.716H315.698C316.005 545.217 316.421 544.817 316.945 544.514C317.469 544.207 318.102 544.054 318.843 544.054C319.499 544.054 320.053 544.19 320.505 544.463C320.961 544.732 321.283 545.141 321.47 545.69C321.662 546.236 321.69 546.926 321.553 547.761L320.505 554H318.997L320.019 547.864C320.147 547.097 320.047 546.496 319.719 546.061C319.395 545.626 318.882 545.409 318.178 545.409C317.693 545.409 317.243 545.513 316.83 545.722C316.421 545.931 316.073 546.236 315.788 546.636C315.507 547.037 315.315 547.523 315.213 548.094Z" fill="black"/>
<path d="M64.9332 183.682C64.6776 183.682 64.4517 183.661 64.2557 183.618C64.0639 183.58 63.9318 183.541 63.8594 183.503L64.473 182.173C64.8224 182.267 65.1335 182.295 65.4062 182.256C65.6832 182.222 65.9453 182.088 66.1925 181.854C66.4439 181.624 66.706 181.261 66.9787 180.767L67.4006 180L65.4318 170.182H67.0043L68.4105 178.031H68.5128L72.527 170.182H74.2273L68.206 181.419C67.9247 181.943 67.6158 182.371 67.2791 182.704C66.9425 183.036 66.5781 183.281 66.1861 183.439C65.794 183.601 65.3764 183.682 64.9332 183.682ZM80.3732 174.247C80.467 173.642 80.6332 173.12 80.8718 172.681C81.1104 172.242 81.4194 171.903 81.7987 171.665C82.1822 171.426 82.636 171.307 83.1602 171.307C83.5692 171.307 83.9783 171.396 84.3874 171.575C84.7965 171.75 85.2141 172.053 85.6403 172.483C85.9428 172.781 86.1751 172.979 86.337 173.077C86.4989 173.175 86.6843 173.224 86.8931 173.224C87.2724 173.224 87.5877 173.09 87.8391 172.822C88.0906 172.549 88.2525 172.163 88.3249 171.665H89.7056C89.6204 172.266 89.4585 172.786 89.2198 173.224C88.9812 173.663 88.6701 174.004 88.2866 174.247C87.9031 174.486 87.4471 174.605 86.9187 174.605C86.5394 174.605 86.1708 174.52 85.8129 174.349C85.4549 174.175 85.0309 173.842 84.5408 173.352C84.2937 173.105 84.07 172.933 83.8697 172.835C83.6694 172.737 83.4414 172.688 83.1857 172.688C82.7979 172.688 82.4826 172.822 82.2397 173.09C81.9968 173.354 81.8349 173.74 81.7539 174.247H80.3732ZM80.3732 178.108C80.467 177.503 80.6332 176.981 80.8718 176.542C81.1104 176.103 81.4194 175.764 81.7987 175.526C82.1822 175.287 82.636 175.168 83.1602 175.168C83.5692 175.168 83.9783 175.257 84.3874 175.436C84.7965 175.611 85.2141 175.913 85.6403 176.344C85.9428 176.642 86.1751 176.84 86.337 176.938C86.4989 177.036 86.6843 177.085 86.8931 177.085C87.2724 177.085 87.5877 176.951 87.8391 176.683C88.0906 176.41 88.2525 176.024 88.3249 175.526H89.7056C89.6204 176.126 89.4585 176.646 89.2198 177.085C88.9812 177.524 88.6701 177.865 88.2866 178.108C87.9031 178.347 87.4471 178.466 86.9187 178.466C86.5394 178.466 86.1708 178.381 85.8129 178.21C85.4549 178.036 85.0309 177.703 84.5408 177.213C84.2937 176.966 84.07 176.793 83.8697 176.695C83.6694 176.597 83.4414 176.548 83.1857 176.548C82.7979 176.548 82.4826 176.683 82.2397 176.951C81.9968 177.215 81.8349 177.601 81.7539 178.108H80.3732ZM99.0524 174.094L98.0808 180H96.5723L98.2086 170.182H99.666L99.4103 171.716H99.5382C99.845 171.217 100.26 170.817 100.785 170.514C101.309 170.207 101.942 170.054 102.683 170.054C103.339 170.054 103.893 170.19 104.345 170.463C104.801 170.732 105.123 171.141 105.31 171.69C105.502 172.236 105.53 172.926 105.393 173.761L104.345 180H102.836L103.859 173.864C103.987 173.097 103.887 172.496 103.559 172.061C103.235 171.626 102.721 171.409 102.018 171.409C101.532 171.409 101.083 171.513 100.67 171.722C100.26 171.931 99.9132 172.236 99.6277 172.636C99.3464 173.037 99.1547 173.523 99.0524 174.094Z" fill="black"/>
<path d="M299.483 312.871C299.411 312.604 299.137 312.446 298.871 312.517L294.524 313.682C294.257 313.753 294.099 314.027 294.17 314.294C294.242 314.561 294.516 314.719 294.783 314.648L298.646 313.612L299.682 317.476C299.753 317.743 300.027 317.901 300.294 317.83C300.561 317.758 300.719 317.484 300.648 317.217L299.483 312.871ZM249.433 399.853L299.433 313.25L298.567 312.75L248.567 399.353L249.433 399.853Z" fill="black"/>
<path d="M349.354 400.354C349.549 400.158 349.549 399.842 349.354 399.646L346.172 396.464C345.976 396.269 345.66 396.269 345.464 396.464C345.269 396.66 345.269 396.976 345.464 397.172L348.293 400L345.464 402.828C345.269 403.024 345.269 403.34 345.464 403.536C345.66 403.731 345.976 403.731 346.172 403.536L349.354 400.354ZM249 400.5H349V399.5H249V400.5Z" fill="black"/>
<path d="M249.354 298.646C249.158 298.451 248.842 298.451 248.646 298.646L245.464 301.828C245.269 302.024 245.269 302.34 245.464 302.536C245.66 302.731 245.976 302.731 246.172 302.536L249 299.707L251.828 302.536C252.024 302.731 252.34 302.731 252.536 302.536C252.731 302.34 252.731 302.024 252.536 301.828L249.354 298.646ZM249.5 399V299H248.5V399H249.5Z" fill="black"/>
<path d="M199.129 312.517C198.863 312.446 198.589 312.604 198.517 312.871L197.352 317.217C197.281 317.484 197.439 317.758 197.706 317.83C197.973 317.901 198.247 317.743 198.318 317.476L199.354 313.612L203.217 314.648C203.484 314.719 203.758 314.561 203.83 314.294C203.901 314.027 203.743 313.753 203.476 313.682L199.129 312.517ZM249.433 399.353L199.433 312.75L198.567 313.25L248.567 399.853L249.433 399.353Z" fill="black"/>
<path d="M180.933 327.682C180.678 327.682 180.452 327.661 180.256 327.618C180.064 327.58 179.932 327.541 179.859 327.503L180.473 326.173C180.822 326.267 181.134 326.295 181.406 326.256C181.683 326.222 181.945 326.088 182.192 325.854C182.444 325.624 182.706 325.261 182.979 324.767L183.401 324L181.432 314.182H183.004L184.411 322.031H184.513L188.527 314.182H190.227L184.206 325.419C183.925 325.943 183.616 326.371 183.279 326.704C182.942 327.036 182.578 327.281 182.186 327.439C181.794 327.601 181.376 327.682 180.933 327.682Z" fill="black"/>
<path d="M345.415 387.986L346.386 382.182H347.895L346.259 392H344.75L345.031 390.338H344.929C344.622 390.837 344.194 391.261 343.644 391.61C343.094 391.955 342.449 392.128 341.707 392.128C341.094 392.128 340.57 391.994 340.135 391.725C339.705 391.452 339.398 391.043 339.214 390.498C339.036 389.948 339.014 389.256 339.151 388.42L340.199 382.182H341.707L340.685 388.318C340.57 389.034 340.678 389.605 341.011 390.031C341.343 390.457 341.822 390.67 342.449 390.67C342.824 390.67 343.22 390.575 343.638 390.383C344.06 390.191 344.435 389.897 344.763 389.501C345.095 389.104 345.313 388.599 345.415 387.986Z" fill="black"/>
<path d="M304.324 314.182L306.011 318.196L309.028 314.182H310.767L306.778 319.091L309.131 324H307.392L305.679 320.19L302.688 324H300.949L304.886 319.091L302.585 314.182H304.324Z" fill="black"/>
<path d="M242.227 292.182L236.96 302H235.426L233.432 292.182H235.004L236.411 300.006H236.513L240.527 292.182H242.227Z" fill="black"/>
<path d="M252.324 616.182L254.011 620.196L257.028 616.182H258.767L254.778 621.091L257.131 626H255.392L253.679 622.19L250.688 626H248.949L252.886 621.091L250.585 616.182H252.324ZM266.238 618.253L266.468 616.872H274.343L274.113 618.253H266.238ZM265.611 622.037L265.841 620.656H273.716L273.486 622.037H265.611ZM285.492 626.179C284.529 626.179 283.754 625.917 283.165 625.393C282.577 624.864 282.19 624.099 282.002 623.098C281.815 622.092 281.836 620.878 282.066 619.455C282.296 618.04 282.673 616.832 283.197 615.83C283.722 614.825 284.367 614.058 285.134 613.529C285.901 612.996 286.762 612.73 287.717 612.73C288.671 612.73 289.445 612.996 290.037 613.529C290.634 614.062 291.03 614.829 291.226 615.83C291.426 616.832 291.407 618.04 291.168 619.455C290.93 620.878 290.548 622.09 290.024 623.092C289.5 624.093 288.854 624.858 288.087 625.386C287.32 625.915 286.455 626.179 285.492 626.179ZM285.722 624.773C286.681 624.773 287.501 624.312 288.183 623.392C288.869 622.467 289.353 621.155 289.634 619.455C289.822 618.321 289.86 617.356 289.749 616.559C289.638 615.762 289.391 615.155 289.008 614.737C288.624 614.32 288.117 614.111 287.487 614.111C286.54 614.111 285.727 614.577 285.045 615.511C284.363 616.44 283.881 617.754 283.6 619.455C283.413 620.588 283.372 621.551 283.479 622.344C283.585 623.136 283.828 623.739 284.207 624.153C284.587 624.566 285.092 624.773 285.722 624.773ZM300.143 624.21L299.913 624.901C299.759 625.386 299.563 625.906 299.325 626.46C299.086 627.014 298.849 627.536 298.615 628.026C298.381 628.516 298.191 628.906 298.046 629.196H296.896C296.989 628.923 297.117 628.563 297.279 628.116C297.441 627.668 297.614 627.17 297.797 626.62C297.98 626.07 298.148 625.506 298.302 624.926L298.506 624.21H300.143ZM308.064 629.682C307.808 629.682 307.583 629.661 307.387 629.618C307.195 629.58 307.063 629.541 306.99 629.503L307.604 628.173C307.953 628.267 308.264 628.295 308.537 628.256C308.814 628.222 309.076 628.088 309.323 627.854C309.575 627.624 309.837 627.261 310.11 626.767L310.531 626L308.563 616.182H310.135L311.541 624.031H311.644L315.658 616.182H317.358L311.337 627.419C311.056 627.943 310.747 628.371 310.41 628.704C310.073 629.036 309.709 629.281 309.317 629.439C308.925 629.601 308.507 629.682 308.064 629.682ZM324.667 618.253L324.898 616.872H332.773L332.542 618.253H324.667ZM324.041 622.037L324.271 620.656H332.146L331.916 622.037H324.041ZM343.922 626.179C342.959 626.179 342.183 625.917 341.595 625.393C341.007 624.864 340.619 624.099 340.432 623.098C340.244 622.092 340.266 620.878 340.496 619.455C340.726 618.04 341.103 616.832 341.627 615.83C342.151 614.825 342.797 614.058 343.564 613.529C344.331 612.996 345.192 612.73 346.146 612.73C347.101 612.73 347.874 612.996 348.467 613.529C349.063 614.062 349.46 614.829 349.656 615.83C349.856 616.832 349.837 618.04 349.598 619.455C349.359 620.878 348.978 622.09 348.454 623.092C347.93 624.093 347.284 624.858 346.517 625.386C345.75 625.915 344.885 626.179 343.922 626.179ZM344.152 624.773C345.111 624.773 345.931 624.312 346.613 623.392C347.299 622.467 347.783 621.155 348.064 619.455C348.251 618.321 348.29 617.356 348.179 616.559C348.068 615.762 347.821 615.155 347.438 614.737C347.054 614.32 346.547 614.111 345.916 614.111C344.97 614.111 344.156 614.577 343.474 615.511C342.793 616.44 342.311 617.754 342.03 619.455C341.842 620.588 341.802 621.551 341.908 622.344C342.015 623.136 342.258 623.739 342.637 624.153C343.016 624.566 343.521 624.773 344.152 624.773Z" fill="black"/>
</svg>
