<svg width="724" height="541" viewBox="0 0 724 541" fill="none" xmlns="http://www.w3.org/2000/svg">
<ellipse cx="55" cy="52" rx="55" ry="52" fill="#D9D9D9"/>
<ellipse cx="362" cy="489" rx="55" ry="52" fill="#D9D9D9"/>
<path d="M474.5 191.5C474.5 239.439 424.48 278.5 362.5 278.5C300.52 278.5 250.5 239.439 250.5 191.5C250.5 143.561 300.52 104.5 362.5 104.5C424.48 104.5 474.5 143.561 474.5 191.5Z" fill="white" stroke="black"/>
<ellipse cx="669" cy="52" rx="55" ry="52" fill="#D9D9D9"/>
<path d="M235.47 154.425C236.257 154.165 236.684 153.317 236.425 152.53L232.196 139.709C231.937 138.923 231.089 138.495 230.302 138.755C229.515 139.014 229.088 139.862 229.347 140.649L233.106 152.045L221.709 155.804C220.923 156.063 220.495 156.911 220.755 157.698C221.014 158.485 221.862 158.912 222.649 158.653L235.47 154.425ZM109.325 91.3395L234.325 154.339L235.675 151.661L110.675 88.6605L109.325 91.3395Z" fill="black"/>
<path d="M124.526 71.5768C123.74 71.8384 123.315 72.6877 123.577 73.4737L127.84 86.2828C128.102 87.0688 128.951 87.4939 129.737 87.2322C130.523 86.9706 130.949 86.1213 130.687 85.3353L126.897 73.9495L138.283 70.1596C139.069 69.8979 139.494 69.0486 139.232 68.2626C138.971 67.4766 138.121 67.0515 137.335 67.3131L124.526 71.5768ZM250.846 134.312L125.671 71.6586L124.329 74.3413L249.503 136.995L250.846 134.312Z" fill="black"/>
<path d="M376.061 286.939C375.475 286.354 374.525 286.354 373.939 286.939L364.393 296.485C363.808 297.071 363.808 298.021 364.393 298.607C364.979 299.192 365.929 299.192 366.515 298.607L375 290.121L383.485 298.607C384.071 299.192 385.021 299.192 385.607 298.607C386.192 298.021 386.192 297.071 385.607 296.485L376.061 286.939ZM376.5 427.979V288H373.5V427.979H376.5Z" fill="black"/>
<path d="M351.939 429.039C352.525 429.625 353.475 429.625 354.061 429.039L363.607 419.493C364.193 418.908 364.193 417.958 363.607 417.372C363.021 416.786 362.071 416.786 361.486 417.372L353 425.857L344.515 417.372C343.929 416.786 342.979 416.786 342.394 417.372C341.808 417.958 341.808 418.907 342.394 419.493L351.939 429.039ZM351.503 288L351.5 427.979L354.5 427.979L354.503 288L351.503 288Z" fill="black"/>
<path d="M486.583 150.613C486.311 151.396 486.726 152.25 487.509 152.522L500.264 156.943C501.047 157.214 501.901 156.8 502.173 156.017C502.444 155.234 502.029 154.38 501.247 154.108L489.909 150.178L493.839 138.84C494.11 138.057 493.695 137.203 492.913 136.932C492.13 136.66 491.275 137.075 491.004 137.858L486.583 150.613ZM613.283 88.6505L487.345 149.755L488.655 152.454L614.592 91.3495L613.283 88.6505Z" fill="black"/>
<path d="M609.255 73.4889C609.525 72.7057 609.109 71.8519 608.326 71.5819L595.563 67.1815C594.78 66.9115 593.926 67.3274 593.656 68.1106C593.386 68.8938 593.802 69.7476 594.586 70.0176L605.93 73.9291L602.019 85.2737C601.749 86.0569 602.165 86.9107 602.948 87.1808C603.731 87.4508 604.585 87.0348 604.855 86.2516L609.255 73.4889ZM482.657 135.659L608.494 74.3484L607.18 71.6515L481.343 132.962L482.657 135.659Z" fill="black"/>
<path d="M47.358 44.4545L51.6761 56.6989H51.8466L56.1648 44.4545H58.0114L52.6705 59H50.8523L45.5114 44.4545H47.358ZM61.6264 61.5V54.3267H61.5554L59.3111 55.8182V54.3125L61.6264 52.7784H63.1037V61.5H61.6264Z" fill="black"/>
<path d="M278.466 188H276.705C276.6 187.493 276.418 187.048 276.158 186.665C275.902 186.281 275.589 185.959 275.22 185.699C274.856 185.434 274.451 185.235 274.006 185.102C273.561 184.97 273.097 184.903 272.614 184.903C271.733 184.903 270.935 185.126 270.22 185.571C269.51 186.016 268.944 186.672 268.523 187.538C268.106 188.405 267.898 189.468 267.898 190.727C267.898 191.987 268.106 193.05 268.523 193.916C268.944 194.783 269.51 195.438 270.22 195.884C270.935 196.329 271.733 196.551 272.614 196.551C273.097 196.551 273.561 196.485 274.006 196.352C274.451 196.22 274.856 196.023 275.22 195.763C275.589 195.498 275.902 195.173 276.158 194.79C276.418 194.402 276.6 193.956 276.705 193.455H278.466C278.333 194.198 278.092 194.863 277.741 195.45C277.391 196.037 276.955 196.537 276.435 196.949C275.914 197.356 275.329 197.666 274.68 197.879C274.036 198.092 273.348 198.199 272.614 198.199C271.373 198.199 270.27 197.896 269.304 197.29C268.338 196.684 267.578 195.822 267.024 194.705C266.47 193.587 266.193 192.261 266.193 190.727C266.193 189.193 266.47 187.867 267.024 186.75C267.578 185.633 268.338 184.771 269.304 184.165C270.27 183.559 271.373 183.256 272.614 183.256C273.348 183.256 274.036 183.362 274.68 183.575C275.329 183.788 275.914 184.101 276.435 184.513C276.955 184.92 277.391 185.417 277.741 186.004C278.092 186.587 278.333 187.252 278.466 188ZM285.517 198.227C284.532 198.227 283.668 197.993 282.924 197.524C282.186 197.055 281.608 196.4 281.191 195.557C280.779 194.714 280.574 193.729 280.574 192.602C280.574 191.466 280.779 190.474 281.191 189.626C281.608 188.779 282.186 188.121 282.924 187.652C283.668 187.183 284.532 186.949 285.517 186.949C286.502 186.949 287.363 187.183 288.102 187.652C288.845 188.121 289.423 188.779 289.835 189.626C290.252 190.474 290.46 191.466 290.46 192.602C290.46 193.729 290.252 194.714 289.835 195.557C289.423 196.4 288.845 197.055 288.102 197.524C287.363 197.993 286.502 198.227 285.517 198.227ZM285.517 196.722C286.265 196.722 286.88 196.53 287.363 196.146C287.846 195.763 288.204 195.259 288.436 194.634C288.668 194.009 288.784 193.331 288.784 192.602C288.784 191.873 288.668 191.194 288.436 190.564C288.204 189.934 287.846 189.425 287.363 189.037C286.88 188.649 286.265 188.455 285.517 188.455C284.769 188.455 284.153 188.649 283.67 189.037C283.187 189.425 282.83 189.934 282.598 190.564C282.366 191.194 282.25 191.873 282.25 192.602C282.25 193.331 282.366 194.009 282.598 194.634C282.83 195.259 283.187 195.763 283.67 196.146C284.153 196.53 284.769 196.722 285.517 196.722ZM294.695 191.438V198H293.018V187.091H294.638V188.795H294.78C295.036 188.241 295.424 187.796 295.945 187.46C296.465 187.119 297.138 186.949 297.962 186.949C298.7 186.949 299.347 187.1 299.901 187.403C300.455 187.702 300.885 188.156 301.193 188.767C301.501 189.373 301.655 190.14 301.655 191.068V198H299.979V191.182C299.979 190.325 299.756 189.657 299.311 189.179C298.866 188.696 298.255 188.455 297.479 188.455C296.944 188.455 296.465 188.571 296.044 188.803C295.627 189.035 295.298 189.373 295.057 189.818C294.815 190.263 294.695 190.803 294.695 191.438ZM312.445 189.534L310.939 189.96C310.845 189.709 310.705 189.465 310.52 189.229C310.34 188.987 310.094 188.788 309.782 188.632C309.469 188.476 309.069 188.398 308.581 188.398C307.914 188.398 307.357 188.552 306.912 188.859C306.472 189.162 306.252 189.548 306.252 190.017C306.252 190.434 306.403 190.763 306.706 191.004C307.009 191.246 307.483 191.447 308.127 191.608L309.746 192.006C310.721 192.242 311.448 192.605 311.926 193.092C312.405 193.575 312.644 194.198 312.644 194.96C312.644 195.585 312.464 196.144 312.104 196.636C311.749 197.129 311.252 197.517 310.613 197.801C309.973 198.085 309.23 198.227 308.382 198.227C307.27 198.227 306.349 197.986 305.62 197.503C304.891 197.02 304.429 196.314 304.235 195.386L305.826 194.989C305.977 195.576 306.264 196.016 306.685 196.31C307.111 196.603 307.667 196.75 308.354 196.75C309.135 196.75 309.756 196.584 310.215 196.253C310.679 195.917 310.911 195.514 310.911 195.045C310.911 194.667 310.778 194.349 310.513 194.094C310.248 193.833 309.841 193.639 309.292 193.511L307.473 193.085C306.474 192.848 305.74 192.482 305.272 191.984C304.808 191.482 304.576 190.855 304.576 190.102C304.576 189.487 304.748 188.942 305.094 188.469C305.444 187.995 305.92 187.624 306.522 187.354C307.128 187.084 307.814 186.949 308.581 186.949C309.661 186.949 310.508 187.186 311.124 187.659C311.744 188.133 312.185 188.758 312.445 189.534ZM319.741 198.227C318.69 198.227 317.783 197.995 317.021 197.531C316.263 197.062 315.678 196.409 315.266 195.571C314.859 194.728 314.656 193.748 314.656 192.631C314.656 191.513 314.859 190.528 315.266 189.676C315.678 188.819 316.251 188.152 316.985 187.673C317.724 187.19 318.585 186.949 319.57 186.949C320.138 186.949 320.7 187.044 321.254 187.233C321.808 187.422 322.312 187.73 322.766 188.156C323.221 188.578 323.583 189.136 323.853 189.832C324.123 190.528 324.258 191.385 324.258 192.403V193.114H315.849V191.665H322.553C322.553 191.049 322.43 190.5 322.184 190.017C321.942 189.534 321.597 189.153 321.147 188.874C320.702 188.594 320.176 188.455 319.57 188.455C318.903 188.455 318.325 188.62 317.837 188.952C317.354 189.278 316.983 189.705 316.722 190.23C316.462 190.756 316.332 191.319 316.332 191.92V192.886C316.332 193.71 316.474 194.409 316.758 194.982C317.047 195.55 317.447 195.983 317.958 196.281C318.469 196.575 319.064 196.722 319.741 196.722C320.181 196.722 320.579 196.66 320.934 196.537C321.294 196.409 321.604 196.22 321.864 195.969C322.125 195.713 322.326 195.396 322.468 195.017L324.087 195.472C323.917 196.021 323.63 196.504 323.228 196.92C322.826 197.332 322.328 197.654 321.737 197.886C321.145 198.114 320.479 198.227 319.741 198.227ZM328.484 191.438V198H326.808V187.091H328.427V188.795H328.569C328.825 188.241 329.213 187.796 329.734 187.46C330.254 187.119 330.927 186.949 331.751 186.949C332.489 186.949 333.136 187.1 333.69 187.403C334.244 187.702 334.674 188.156 334.982 188.767C335.29 189.373 335.444 190.14 335.444 191.068V198H333.768V191.182C333.768 190.325 333.545 189.657 333.1 189.179C332.655 188.696 332.044 188.455 331.268 188.455C330.733 188.455 330.254 188.571 329.833 188.803C329.416 189.035 329.087 189.373 328.846 189.818C328.604 190.263 328.484 190.803 328.484 191.438ZM346.234 189.534L344.728 189.96C344.634 189.709 344.494 189.465 344.309 189.229C344.129 188.987 343.883 188.788 343.571 188.632C343.258 188.476 342.858 188.398 342.37 188.398C341.703 188.398 341.146 188.552 340.701 188.859C340.261 189.162 340.041 189.548 340.041 190.017C340.041 190.434 340.192 190.763 340.495 191.004C340.798 191.246 341.272 191.447 341.916 191.608L343.535 192.006C344.511 192.242 345.237 192.605 345.716 193.092C346.194 193.575 346.433 194.198 346.433 194.96C346.433 195.585 346.253 196.144 345.893 196.636C345.538 197.129 345.041 197.517 344.402 197.801C343.762 198.085 343.019 198.227 342.172 198.227C341.059 198.227 340.138 197.986 339.409 197.503C338.68 197.02 338.218 196.314 338.024 195.386L339.615 194.989C339.766 195.576 340.053 196.016 340.474 196.31C340.9 196.603 341.457 196.75 342.143 196.75C342.924 196.75 343.545 196.584 344.004 196.253C344.468 195.917 344.7 195.514 344.7 195.045C344.7 194.667 344.567 194.349 344.302 194.094C344.037 193.833 343.63 193.639 343.081 193.511L341.262 193.085C340.263 192.848 339.529 192.482 339.061 191.984C338.597 191.482 338.365 190.855 338.365 190.102C338.365 189.487 338.538 188.942 338.883 188.469C339.234 187.995 339.709 187.624 340.311 187.354C340.917 187.084 341.603 186.949 342.37 186.949C343.45 186.949 344.297 187.186 344.913 187.659C345.533 188.133 345.974 188.758 346.234 189.534ZM355.831 193.54V187.091H357.507V198H355.831V196.153H355.717C355.462 196.707 355.064 197.179 354.524 197.567C353.984 197.95 353.303 198.142 352.479 198.142C351.797 198.142 351.191 197.993 350.661 197.695C350.13 197.392 349.714 196.937 349.411 196.331C349.107 195.72 348.956 194.951 348.956 194.023V187.091H350.632V193.909C350.632 194.705 350.855 195.339 351.3 195.812C351.75 196.286 352.322 196.523 353.018 196.523C353.435 196.523 353.859 196.416 354.29 196.203C354.725 195.99 355.09 195.663 355.384 195.223C355.682 194.783 355.831 194.222 355.831 193.54ZM368.304 189.534L366.799 189.96C366.704 189.709 366.564 189.465 366.38 189.229C366.2 188.987 365.953 188.788 365.641 188.632C365.328 188.476 364.928 188.398 364.441 188.398C363.773 188.398 363.217 188.552 362.772 188.859C362.331 189.162 362.111 189.548 362.111 190.017C362.111 190.434 362.263 190.763 362.566 191.004C362.869 191.246 363.342 191.447 363.986 191.608L365.605 192.006C366.581 192.242 367.308 192.605 367.786 193.092C368.264 193.575 368.503 194.198 368.503 194.96C368.503 195.585 368.323 196.144 367.963 196.636C367.608 197.129 367.111 197.517 366.472 197.801C365.833 198.085 365.089 198.227 364.242 198.227C363.129 198.227 362.208 197.986 361.479 197.503C360.75 197.02 360.288 196.314 360.094 195.386L361.685 194.989C361.837 195.576 362.123 196.016 362.544 196.31C362.971 196.603 363.527 196.75 364.213 196.75C364.995 196.75 365.615 196.584 366.074 196.253C366.538 195.917 366.77 195.514 366.77 195.045C366.77 194.667 366.638 194.349 366.373 194.094C366.107 193.833 365.7 193.639 365.151 193.511L363.333 193.085C362.334 192.848 361.6 192.482 361.131 191.984C360.667 191.482 360.435 190.855 360.435 190.102C360.435 189.487 360.608 188.942 360.953 188.469C361.304 187.995 361.78 187.624 362.381 187.354C362.987 187.084 363.674 186.949 364.441 186.949C365.52 186.949 366.368 187.186 366.983 187.659C367.604 188.133 368.044 188.758 368.304 189.534ZM379.862 198.256C379.17 198.256 378.543 198.125 377.979 197.865C377.416 197.6 376.969 197.219 376.637 196.722C376.306 196.22 376.14 195.614 376.14 194.903C376.14 194.278 376.263 193.772 376.509 193.384C376.755 192.991 377.085 192.683 377.496 192.46C377.908 192.238 378.363 192.072 378.86 191.963C379.362 191.849 379.866 191.759 380.373 191.693C381.036 191.608 381.573 191.544 381.985 191.501C382.402 191.454 382.705 191.376 382.894 191.267C383.088 191.158 383.185 190.969 383.185 190.699V190.642C383.185 189.941 382.994 189.397 382.61 189.009C382.231 188.62 381.656 188.426 380.884 188.426C380.084 188.426 379.457 188.601 379.002 188.952C378.548 189.302 378.228 189.676 378.043 190.074L376.452 189.506C376.737 188.843 377.115 188.327 377.589 187.957C378.067 187.583 378.588 187.323 379.151 187.176C379.719 187.025 380.278 186.949 380.827 186.949C381.178 186.949 381.58 186.991 382.035 187.077C382.494 187.157 382.937 187.325 383.363 187.581C383.794 187.837 384.151 188.223 384.435 188.739C384.719 189.255 384.862 189.946 384.862 190.812V198H383.185V196.523H383.1C382.987 196.759 382.797 197.013 382.532 197.283C382.267 197.553 381.914 197.782 381.474 197.972C381.033 198.161 380.496 198.256 379.862 198.256ZM380.117 196.75C380.78 196.75 381.339 196.62 381.793 196.359C382.253 196.099 382.598 195.763 382.83 195.351C383.067 194.939 383.185 194.506 383.185 194.051V192.517C383.114 192.602 382.958 192.68 382.717 192.751C382.48 192.818 382.205 192.877 381.893 192.929C381.585 192.976 381.284 193.019 380.991 193.057C380.702 193.09 380.468 193.118 380.288 193.142C379.852 193.199 379.445 193.291 379.066 193.419C378.692 193.542 378.389 193.729 378.157 193.98C377.93 194.226 377.816 194.562 377.816 194.989C377.816 195.571 378.031 196.011 378.462 196.31C378.898 196.603 379.45 196.75 380.117 196.75ZM389.597 183.455V198H387.921V183.455H389.597ZM397.07 202.318C396.261 202.318 395.565 202.214 394.982 202.006C394.4 201.802 393.915 201.532 393.526 201.196C393.143 200.865 392.837 200.509 392.61 200.131L393.945 199.193C394.097 199.392 394.289 199.619 394.521 199.875C394.753 200.135 395.07 200.36 395.472 200.55C395.879 200.744 396.412 200.841 397.07 200.841C397.951 200.841 398.678 200.628 399.251 200.202C399.824 199.776 400.11 199.108 400.11 198.199V195.983H399.968C399.845 196.182 399.67 196.428 399.442 196.722C399.22 197.01 398.898 197.268 398.477 197.496C398.06 197.718 397.496 197.83 396.786 197.83C395.906 197.83 395.115 197.621 394.414 197.205C393.718 196.788 393.166 196.182 392.759 195.386C392.357 194.591 392.156 193.625 392.156 192.489C392.156 191.371 392.352 190.398 392.745 189.57C393.138 188.736 393.685 188.092 394.386 187.638C395.086 187.179 395.896 186.949 396.815 186.949C397.525 186.949 398.088 187.067 398.505 187.304C398.926 187.536 399.248 187.801 399.471 188.099C399.698 188.393 399.873 188.634 399.996 188.824H400.167V187.091H401.786V198.312C401.786 199.25 401.573 200.012 401.147 200.599C400.726 201.191 400.157 201.625 399.442 201.899C398.732 202.179 397.942 202.318 397.07 202.318ZM397.013 196.324C397.686 196.324 398.254 196.17 398.718 195.862C399.182 195.554 399.535 195.112 399.776 194.534C400.018 193.956 400.138 193.265 400.138 192.46C400.138 191.674 400.02 190.981 399.783 190.379C399.547 189.778 399.196 189.307 398.732 188.966C398.268 188.625 397.695 188.455 397.013 188.455C396.303 188.455 395.711 188.634 395.238 188.994C394.769 189.354 394.416 189.837 394.18 190.443C393.948 191.049 393.832 191.722 393.832 192.46C393.832 193.218 393.95 193.888 394.187 194.47C394.428 195.048 394.783 195.502 395.252 195.834C395.726 196.161 396.313 196.324 397.013 196.324ZM409.286 198.227C408.301 198.227 407.437 197.993 406.694 197.524C405.955 197.055 405.378 196.4 404.961 195.557C404.549 194.714 404.343 193.729 404.343 192.602C404.343 191.466 404.549 190.474 404.961 189.626C405.378 188.779 405.955 188.121 406.694 187.652C407.437 187.183 408.301 186.949 409.286 186.949C410.271 186.949 411.133 187.183 411.871 187.652C412.615 188.121 413.192 188.779 413.604 189.626C414.021 190.474 414.229 191.466 414.229 192.602C414.229 193.729 414.021 194.714 413.604 195.557C413.192 196.4 412.615 197.055 411.871 197.524C411.133 197.993 410.271 198.227 409.286 198.227ZM409.286 196.722C410.034 196.722 410.65 196.53 411.133 196.146C411.616 195.763 411.973 195.259 412.205 194.634C412.437 194.009 412.553 193.331 412.553 192.602C412.553 191.873 412.437 191.194 412.205 190.564C411.973 189.934 411.616 189.425 411.133 189.037C410.65 188.649 410.034 188.455 409.286 188.455C408.538 188.455 407.923 188.649 407.44 189.037C406.957 189.425 406.599 189.934 406.367 190.564C406.135 191.194 406.019 191.873 406.019 192.602C406.019 193.331 406.135 194.009 406.367 194.634C406.599 195.259 406.957 195.763 407.44 196.146C407.923 196.53 408.538 196.722 409.286 196.722ZM416.788 198V187.091H418.407V188.739H418.521C418.72 188.199 419.08 187.761 419.6 187.425C420.121 187.089 420.708 186.92 421.362 186.92C421.485 186.92 421.639 186.923 421.824 186.928C422.008 186.932 422.148 186.939 422.243 186.949V188.653C422.186 188.639 422.056 188.618 421.852 188.589C421.653 188.556 421.442 188.54 421.22 188.54C420.69 188.54 420.216 188.651 419.799 188.874C419.387 189.091 419.061 189.394 418.819 189.783C418.583 190.166 418.464 190.604 418.464 191.097V198H416.788ZM424.229 198V187.091H425.906V198H424.229ZM425.082 185.273C424.755 185.273 424.473 185.161 424.237 184.939C424.004 184.716 423.888 184.449 423.888 184.136C423.888 183.824 424.004 183.556 424.237 183.334C424.473 183.111 424.755 183 425.082 183C425.408 183 425.688 183.111 425.92 183.334C426.156 183.556 426.275 183.824 426.275 184.136C426.275 184.449 426.156 184.716 425.92 184.939C425.688 185.161 425.408 185.273 425.082 185.273ZM433.72 187.091V188.511H428.066V187.091H433.72ZM429.714 184.477H431.39V194.875C431.39 195.348 431.459 195.704 431.596 195.94C431.738 196.172 431.918 196.329 432.136 196.409C432.359 196.485 432.593 196.523 432.839 196.523C433.024 196.523 433.175 196.513 433.294 196.494C433.412 196.471 433.507 196.452 433.578 196.438L433.919 197.943C433.805 197.986 433.646 198.028 433.443 198.071C433.239 198.118 432.981 198.142 432.669 198.142C432.195 198.142 431.731 198.04 431.277 197.837C430.827 197.633 430.453 197.323 430.154 196.906C429.861 196.49 429.714 195.964 429.714 195.33V184.477ZM438.152 191.438V198H436.475V183.455H438.152V188.795H438.294C438.549 188.232 438.933 187.785 439.444 187.453C439.96 187.117 440.647 186.949 441.504 186.949C442.247 186.949 442.898 187.098 443.457 187.396C444.016 187.69 444.449 188.142 444.757 188.753C445.069 189.359 445.225 190.131 445.225 191.068V198H443.549V191.182C443.549 190.315 443.324 189.645 442.875 189.172C442.43 188.694 441.812 188.455 441.021 188.455C440.472 188.455 439.979 188.571 439.544 188.803C439.113 189.035 438.772 189.373 438.521 189.818C438.275 190.263 438.152 190.803 438.152 191.438ZM448.292 198V187.091H449.911V188.795H450.053C450.281 188.213 450.647 187.761 451.154 187.439C451.661 187.112 452.269 186.949 452.979 186.949C453.699 186.949 454.298 187.112 454.776 187.439C455.259 187.761 455.636 188.213 455.906 188.795H456.019C456.299 188.232 456.718 187.785 457.276 187.453C457.835 187.117 458.505 186.949 459.286 186.949C460.262 186.949 461.059 187.254 461.68 187.865C462.3 188.471 462.61 189.416 462.61 190.699V198H460.934V190.699C460.934 189.894 460.714 189.319 460.273 188.973C459.833 188.627 459.315 188.455 458.718 188.455C457.951 188.455 457.357 188.687 456.935 189.151C456.514 189.61 456.303 190.192 456.303 190.898V198H454.599V190.528C454.599 189.908 454.397 189.409 453.995 189.03C453.593 188.646 453.074 188.455 452.44 188.455C452.004 188.455 451.597 188.571 451.218 188.803C450.844 189.035 450.541 189.357 450.309 189.768C450.082 190.176 449.968 190.647 449.968 191.182V198H448.292Z" fill="black"/>
<path d="M318.358 483.455L322.676 495.699H322.847L327.165 483.455H329.011L323.67 498H321.852L316.511 483.455H318.358ZM333.805 500.614C333.152 500.614 332.567 500.505 332.051 500.287C331.54 500.069 331.133 499.768 330.83 499.385C330.531 499.001 330.377 498.559 330.368 498.057H331.93C331.945 498.44 332.129 498.748 332.484 498.98C332.839 499.217 333.28 499.335 333.805 499.335C334.359 499.335 334.814 499.207 335.169 498.952C335.529 498.696 335.709 498.369 335.709 497.972C335.709 497.574 335.517 497.247 335.134 496.991C334.755 496.736 334.246 496.608 333.607 496.608H332.896V495.472H333.607C334.132 495.472 334.57 495.353 334.92 495.116C335.276 494.88 335.453 494.562 335.453 494.165C335.453 493.795 335.304 493.49 335.006 493.249C334.707 493.007 334.317 492.886 333.834 492.886C333.351 492.886 332.934 493.005 332.584 493.241C332.238 493.478 332.058 493.795 332.044 494.193H330.567C330.576 493.691 330.725 493.251 331.014 492.872C331.308 492.493 331.698 492.197 332.186 491.984C332.679 491.771 333.228 491.665 333.834 491.665C334.449 491.665 334.991 491.769 335.46 491.977C335.929 492.186 336.296 492.472 336.561 492.837C336.826 493.201 336.959 493.616 336.959 494.08C336.959 494.591 336.784 495.01 336.433 495.337C336.083 495.663 335.652 495.869 335.141 495.955V496.011C335.837 496.111 336.369 496.35 336.739 496.729C337.113 497.107 337.3 497.56 337.3 498.085C337.3 498.568 337.151 498.999 336.852 499.378C336.554 499.761 336.142 500.062 335.616 500.28C335.091 500.502 334.487 500.614 333.805 500.614ZM344.333 493.091C344.333 491.659 344.519 490.343 344.89 489.142C345.265 487.937 345.799 486.83 346.493 485.818H347.674C347.402 486.193 347.146 486.655 346.907 487.205C346.672 487.75 346.466 488.35 346.288 489.006C346.11 489.657 345.97 490.331 345.868 491.028C345.769 491.725 345.72 492.413 345.72 493.091C345.72 493.992 345.807 494.907 345.981 495.835C346.155 496.763 346.39 497.625 346.686 498.42C346.981 499.216 347.311 499.864 347.674 500.364H346.493C345.799 499.352 345.265 498.246 344.89 497.045C344.519 495.841 344.333 494.523 344.333 493.091ZM353.011 498.182C352.193 498.182 351.488 497.989 350.897 497.602C350.306 497.216 349.852 496.684 349.534 496.006C349.216 495.328 349.056 494.553 349.056 493.682C349.056 492.795 349.219 492.013 349.545 491.335C349.875 490.653 350.333 490.121 350.92 489.739C351.511 489.352 352.2 489.159 352.988 489.159C353.602 489.159 354.155 489.273 354.647 489.5C355.14 489.727 355.543 490.045 355.858 490.455C356.172 490.864 356.367 491.341 356.443 491.886H355.102C355 491.489 354.772 491.136 354.42 490.83C354.072 490.519 353.602 490.364 353.011 490.364C352.488 490.364 352.03 490.5 351.636 490.773C351.246 491.042 350.941 491.422 350.721 491.915C350.505 492.403 350.397 492.977 350.397 493.636C350.397 494.311 350.503 494.898 350.716 495.398C350.931 495.898 351.234 496.286 351.625 496.562C352.019 496.839 352.481 496.977 353.011 496.977C353.359 496.977 353.676 496.917 353.96 496.795C354.244 496.674 354.484 496.5 354.681 496.273C354.878 496.045 355.019 495.773 355.102 495.455H356.443C356.367 495.97 356.18 496.434 355.88 496.847C355.585 497.256 355.193 497.581 354.704 497.824C354.219 498.062 353.655 498.182 353.011 498.182ZM358.403 498V489.273H359.699V490.591H359.789C359.949 490.159 360.236 489.809 360.653 489.54C361.07 489.271 361.539 489.136 362.062 489.136C362.161 489.136 362.284 489.138 362.431 489.142C362.579 489.146 362.691 489.152 362.767 489.159V490.523C362.721 490.511 362.617 490.494 362.454 490.472C362.295 490.445 362.127 490.432 361.949 490.432C361.524 490.432 361.145 490.521 360.812 490.699C360.483 490.873 360.221 491.116 360.028 491.426C359.839 491.733 359.744 492.083 359.744 492.477V498H358.403ZM366.924 498.205C366.371 498.205 365.869 498.1 365.419 497.892C364.968 497.68 364.61 497.375 364.345 496.977C364.08 496.576 363.947 496.091 363.947 495.523C363.947 495.023 364.046 494.617 364.243 494.307C364.44 493.992 364.703 493.746 365.032 493.568C365.362 493.39 365.725 493.258 366.123 493.17C366.525 493.08 366.928 493.008 367.333 492.955C367.864 492.886 368.294 492.835 368.623 492.801C368.957 492.763 369.199 492.701 369.35 492.614C369.506 492.527 369.583 492.375 369.583 492.159V492.114C369.583 491.553 369.43 491.117 369.123 490.807C368.82 490.496 368.36 490.341 367.743 490.341C367.102 490.341 366.6 490.481 366.237 490.761C365.873 491.042 365.618 491.341 365.47 491.659L364.197 491.205C364.424 490.674 364.727 490.261 365.106 489.966C365.489 489.667 365.905 489.458 366.356 489.341C366.811 489.22 367.258 489.159 367.697 489.159C367.977 489.159 368.299 489.193 368.663 489.261C369.03 489.326 369.385 489.46 369.725 489.665C370.07 489.869 370.356 490.178 370.583 490.591C370.811 491.004 370.924 491.557 370.924 492.25V498H369.583V496.818H369.515C369.424 497.008 369.273 497.21 369.061 497.426C368.849 497.642 368.566 497.826 368.214 497.977C367.862 498.129 367.432 498.205 366.924 498.205ZM367.129 497C367.659 497 368.106 496.896 368.47 496.688C368.837 496.479 369.114 496.21 369.299 495.881C369.489 495.551 369.583 495.205 369.583 494.841V493.614C369.527 493.682 369.402 493.744 369.208 493.801C369.019 493.854 368.799 493.902 368.549 493.943C368.303 493.981 368.063 494.015 367.828 494.045C367.597 494.072 367.409 494.095 367.265 494.114C366.917 494.159 366.591 494.233 366.288 494.335C365.989 494.434 365.746 494.583 365.561 494.784C365.379 494.981 365.288 495.25 365.288 495.591C365.288 496.057 365.46 496.409 365.805 496.648C366.154 496.883 366.595 497 367.129 497ZM379.554 491.227L378.349 491.568C378.273 491.367 378.162 491.172 378.014 490.983C377.87 490.79 377.673 490.631 377.423 490.506C377.173 490.381 376.853 490.318 376.463 490.318C375.929 490.318 375.484 490.441 375.127 490.688C374.775 490.93 374.599 491.239 374.599 491.614C374.599 491.947 374.72 492.21 374.963 492.403C375.205 492.597 375.584 492.758 376.099 492.886L377.395 493.205C378.175 493.394 378.756 493.684 379.139 494.074C379.521 494.46 379.713 494.958 379.713 495.568C379.713 496.068 379.569 496.515 379.281 496.909C378.997 497.303 378.599 497.614 378.088 497.841C377.576 498.068 376.982 498.182 376.304 498.182C375.413 498.182 374.677 497.989 374.093 497.602C373.51 497.216 373.141 496.652 372.985 495.909L374.258 495.591C374.379 496.061 374.609 496.413 374.946 496.648C375.287 496.883 375.732 497 376.281 497C376.906 497 377.402 496.867 377.77 496.602C378.141 496.333 378.326 496.011 378.326 495.636C378.326 495.333 378.22 495.08 378.008 494.875C377.796 494.667 377.47 494.511 377.031 494.409L375.576 494.068C374.777 493.879 374.19 493.585 373.815 493.188C373.444 492.786 373.258 492.284 373.258 491.682C373.258 491.189 373.396 490.754 373.673 490.375C373.953 489.996 374.334 489.699 374.815 489.483C375.3 489.267 375.849 489.159 376.463 489.159C377.326 489.159 378.004 489.348 378.497 489.727C378.993 490.106 379.345 490.606 379.554 491.227ZM383.072 492.75V498H381.731V486.364H383.072V490.636H383.186C383.39 490.186 383.697 489.828 384.106 489.562C384.519 489.294 385.068 489.159 385.754 489.159C386.349 489.159 386.869 489.278 387.316 489.517C387.763 489.752 388.11 490.114 388.356 490.602C388.606 491.087 388.731 491.705 388.731 492.455V498H387.39V492.545C387.39 491.852 387.21 491.316 386.85 490.938C386.494 490.555 386 490.364 385.368 490.364C384.928 490.364 384.534 490.456 384.186 490.642C383.841 490.828 383.568 491.098 383.368 491.455C383.171 491.811 383.072 492.242 383.072 492.75ZM394.843 498.182C394.002 498.182 393.277 497.996 392.667 497.625C392.061 497.25 391.593 496.727 391.264 496.057C390.938 495.383 390.775 494.598 390.775 493.705C390.775 492.811 390.938 492.023 391.264 491.341C391.593 490.655 392.052 490.121 392.639 489.739C393.23 489.352 393.919 489.159 394.707 489.159C395.162 489.159 395.61 489.235 396.054 489.386C396.497 489.538 396.9 489.784 397.264 490.125C397.627 490.462 397.917 490.909 398.133 491.466C398.349 492.023 398.457 492.708 398.457 493.523V494.091H391.73V492.932H397.093C397.093 492.439 396.995 492 396.798 491.614C396.605 491.227 396.328 490.922 395.968 490.699C395.612 490.475 395.192 490.364 394.707 490.364C394.173 490.364 393.711 490.496 393.321 490.761C392.934 491.023 392.637 491.364 392.429 491.784C392.22 492.205 392.116 492.655 392.116 493.136V493.909C392.116 494.568 392.23 495.127 392.457 495.585C392.688 496.04 393.008 496.386 393.417 496.625C393.826 496.86 394.302 496.977 394.843 496.977C395.196 496.977 395.514 496.928 395.798 496.83C396.086 496.727 396.334 496.576 396.542 496.375C396.751 496.17 396.912 495.917 397.025 495.614L398.321 495.977C398.184 496.417 397.955 496.803 397.633 497.136C397.311 497.466 396.913 497.723 396.44 497.909C395.967 498.091 395.434 498.182 394.843 498.182ZM406.679 491.227L405.474 491.568C405.398 491.367 405.287 491.172 405.139 490.983C404.995 490.79 404.798 490.631 404.548 490.506C404.298 490.381 403.978 490.318 403.588 490.318C403.054 490.318 402.609 490.441 402.252 490.688C401.9 490.93 401.724 491.239 401.724 491.614C401.724 491.947 401.845 492.21 402.088 492.403C402.33 492.597 402.709 492.758 403.224 492.886L404.52 493.205C405.3 493.394 405.881 493.684 406.264 494.074C406.646 494.46 406.838 494.958 406.838 495.568C406.838 496.068 406.694 496.515 406.406 496.909C406.122 497.303 405.724 497.614 405.213 497.841C404.701 498.068 404.107 498.182 403.429 498.182C402.538 498.182 401.802 497.989 401.218 497.602C400.635 497.216 400.266 496.652 400.11 495.909L401.383 495.591C401.504 496.061 401.734 496.413 402.071 496.648C402.412 496.883 402.857 497 403.406 497C404.031 497 404.527 496.867 404.895 496.602C405.266 496.333 405.451 496.011 405.451 495.636C405.451 495.333 405.345 495.08 405.133 494.875C404.921 494.667 404.595 494.511 404.156 494.409L402.701 494.068C401.902 493.879 401.315 493.585 400.94 493.188C400.569 492.786 400.383 492.284 400.383 491.682C400.383 491.189 400.521 490.754 400.798 490.375C401.078 489.996 401.459 489.699 401.94 489.483C402.425 489.267 402.974 489.159 403.588 489.159C404.451 489.159 405.129 489.348 405.622 489.727C406.118 490.106 406.47 490.606 406.679 491.227ZM411.72 493.091C411.72 494.523 411.532 495.841 411.157 497.045C410.786 498.246 410.254 499.352 409.561 500.364H408.379C408.652 499.989 408.905 499.527 409.14 498.977C409.379 498.432 409.587 497.833 409.765 497.182C409.943 496.527 410.082 495.85 410.18 495.153C410.282 494.453 410.333 493.765 410.333 493.091C410.333 492.189 410.246 491.275 410.072 490.347C409.898 489.419 409.663 488.557 409.368 487.761C409.072 486.966 408.743 486.318 408.379 485.818H409.561C410.254 486.83 410.786 487.937 411.157 489.142C411.532 490.343 411.72 491.659 411.72 493.091Z" fill="black"/>
<path d="M661.358 44.4545L665.676 56.6989H665.847L670.165 44.4545H672.011L666.67 59H664.852L659.511 44.4545H661.358ZM673.51 61.5V60.392L676.834 57.4375C677.165 57.1439 677.442 56.8812 677.665 56.6491C677.887 56.4171 678.055 56.1922 678.169 55.9744C678.283 55.7566 678.339 55.5246 678.339 55.2784C678.339 54.8523 678.176 54.5137 677.849 54.2628C677.523 54.0118 677.118 53.8864 676.635 53.8864C676.124 53.8864 675.712 54.0237 675.399 54.2983C675.087 54.5682 674.93 54.9233 674.93 55.3636H673.453C673.453 54.554 673.754 53.9029 674.355 53.4105C674.956 52.9134 675.726 52.6648 676.663 52.6648C677.288 52.6648 677.838 52.7784 678.311 53.0057C678.785 53.2282 679.154 53.536 679.419 53.929C679.684 54.3172 679.817 54.7576 679.817 55.25C679.817 55.6383 679.739 55.9981 679.582 56.3295C679.426 56.661 679.182 57.0043 678.851 57.3594C678.519 57.7145 678.093 58.1193 677.572 58.5739L675.726 60.1932V60.25H680.072V61.5H673.51Z" fill="black"/>
<path d="M96.358 148.455L100.676 160.699H100.847L105.165 148.455H107.011L101.67 163H99.8523L94.5114 148.455H96.358ZM110.626 165.5V158.327H110.555L108.311 159.818V158.312L110.626 156.778H112.104V165.5H110.626ZM116.001 155.983V154.449H124.751V155.983H116.001ZM116.001 160.188V158.653H124.751V160.188H116.001ZM128.503 167.091V152.091H130.122V153.824H130.321C130.444 153.634 130.615 153.393 130.832 153.099C131.055 152.801 131.372 152.536 131.784 152.304C132.201 152.067 132.764 151.949 133.474 151.949C134.393 151.949 135.203 152.179 135.903 152.638C136.604 153.097 137.151 153.748 137.544 154.591C137.937 155.434 138.134 156.428 138.134 157.574C138.134 158.729 137.937 159.731 137.544 160.578C137.151 161.421 136.607 162.074 135.911 162.538C135.214 162.998 134.412 163.227 133.503 163.227C132.802 163.227 132.241 163.111 131.82 162.879C131.398 162.643 131.074 162.375 130.847 162.077C130.619 161.774 130.444 161.523 130.321 161.324H130.179V167.091H128.503ZM130.151 157.545C130.151 158.369 130.271 159.096 130.513 159.726C130.754 160.351 131.107 160.841 131.571 161.196C132.035 161.546 132.603 161.722 133.276 161.722C133.976 161.722 134.561 161.537 135.03 161.168C135.503 160.794 135.858 160.292 136.095 159.662C136.337 159.027 136.457 158.322 136.457 157.545C136.457 156.778 136.339 156.087 136.102 155.472C135.87 154.851 135.518 154.361 135.044 154.001C134.575 153.637 133.986 153.455 133.276 153.455C132.594 153.455 132.021 153.627 131.557 153.973C131.093 154.314 130.742 154.792 130.506 155.408C130.269 156.018 130.151 156.731 130.151 157.545ZM140.69 163V152.091H142.31V153.739H142.423C142.622 153.199 142.982 152.761 143.503 152.425C144.024 152.089 144.611 151.92 145.264 151.92C145.387 151.92 145.541 151.923 145.726 151.928C145.911 151.932 146.05 151.939 146.145 151.949V153.653C146.088 153.639 145.958 153.618 145.754 153.589C145.555 153.556 145.345 153.54 145.122 153.54C144.592 153.54 144.118 153.651 143.702 153.874C143.29 154.091 142.963 154.394 142.722 154.783C142.485 155.166 142.366 155.604 142.366 156.097V163H140.69ZM152.232 163.227C151.247 163.227 150.383 162.993 149.639 162.524C148.901 162.055 148.323 161.4 147.906 160.557C147.494 159.714 147.288 158.729 147.288 157.602C147.288 156.466 147.494 155.474 147.906 154.626C148.323 153.779 148.901 153.121 149.639 152.652C150.383 152.183 151.247 151.949 152.232 151.949C153.216 151.949 154.078 152.183 154.817 152.652C155.56 153.121 156.138 153.779 156.55 154.626C156.966 155.474 157.175 156.466 157.175 157.602C157.175 158.729 156.966 159.714 156.55 160.557C156.138 161.4 155.56 162.055 154.817 162.524C154.078 162.993 153.216 163.227 152.232 163.227ZM152.232 161.722C152.98 161.722 153.595 161.53 154.078 161.146C154.561 160.763 154.919 160.259 155.151 159.634C155.383 159.009 155.499 158.331 155.499 157.602C155.499 156.873 155.383 156.194 155.151 155.564C154.919 154.934 154.561 154.425 154.078 154.037C153.595 153.649 152.98 153.455 152.232 153.455C151.483 153.455 150.868 153.649 150.385 154.037C149.902 154.425 149.545 154.934 149.312 155.564C149.08 156.194 148.964 156.873 148.964 157.602C148.964 158.331 149.08 159.009 149.312 159.634C149.545 160.259 149.902 160.763 150.385 161.146C150.868 161.53 151.483 161.722 152.232 161.722ZM164.165 163.227C163.142 163.227 162.262 162.986 161.523 162.503C160.784 162.02 160.216 161.355 159.819 160.507C159.421 159.66 159.222 158.691 159.222 157.602C159.222 156.494 159.426 155.517 159.833 154.669C160.245 153.817 160.818 153.152 161.551 152.673C162.29 152.19 163.152 151.949 164.137 151.949C164.904 151.949 165.595 152.091 166.211 152.375C166.826 152.659 167.33 153.057 167.723 153.568C168.116 154.08 168.36 154.676 168.455 155.358H166.779C166.651 154.861 166.367 154.42 165.926 154.037C165.491 153.649 164.904 153.455 164.165 153.455C163.512 153.455 162.939 153.625 162.446 153.966C161.959 154.302 161.578 154.778 161.303 155.393C161.033 156.004 160.898 156.722 160.898 157.545C160.898 158.388 161.031 159.122 161.296 159.747C161.566 160.372 161.944 160.857 162.432 161.203C162.925 161.549 163.502 161.722 164.165 161.722C164.601 161.722 164.996 161.646 165.351 161.494C165.706 161.343 166.007 161.125 166.253 160.841C166.499 160.557 166.675 160.216 166.779 159.818H168.455C168.36 160.462 168.126 161.042 167.752 161.558C167.382 162.07 166.892 162.477 166.282 162.78C165.676 163.078 164.97 163.227 164.165 163.227ZM175.479 163.227C174.428 163.227 173.521 162.995 172.759 162.531C172.001 162.062 171.417 161.409 171.005 160.571C170.597 159.728 170.394 158.748 170.394 157.631C170.394 156.513 170.597 155.528 171.005 154.676C171.417 153.819 171.989 153.152 172.723 152.673C173.462 152.19 174.324 151.949 175.309 151.949C175.877 151.949 176.438 152.044 176.992 152.233C177.546 152.422 178.05 152.73 178.505 153.156C178.959 153.578 179.321 154.136 179.591 154.832C179.861 155.528 179.996 156.385 179.996 157.403V158.114H171.587V156.665H178.292C178.292 156.049 178.168 155.5 177.922 155.017C177.681 154.534 177.335 154.153 176.885 153.874C176.44 153.594 175.915 153.455 175.309 153.455C174.641 153.455 174.063 153.62 173.576 153.952C173.093 154.278 172.721 154.705 172.461 155.23C172.2 155.756 172.07 156.319 172.07 156.92V157.886C172.07 158.71 172.212 159.409 172.496 159.982C172.785 160.55 173.185 160.983 173.696 161.281C174.208 161.575 174.802 161.722 175.479 161.722C175.919 161.722 176.317 161.66 176.672 161.537C177.032 161.409 177.342 161.22 177.603 160.969C177.863 160.713 178.064 160.396 178.206 160.017L179.826 160.472C179.655 161.021 179.369 161.504 178.966 161.92C178.564 162.332 178.067 162.654 177.475 162.886C176.883 163.114 176.218 163.227 175.479 163.227ZM187.12 163.227C186.069 163.227 185.162 162.995 184.4 162.531C183.642 162.062 183.057 161.409 182.645 160.571C182.238 159.728 182.034 158.748 182.034 157.631C182.034 156.513 182.238 155.528 182.645 154.676C183.057 153.819 183.63 153.152 184.364 152.673C185.103 152.19 185.964 151.949 186.949 151.949C187.517 151.949 188.078 152.044 188.632 152.233C189.186 152.422 189.691 152.73 190.145 153.156C190.6 153.578 190.962 154.136 191.232 154.832C191.502 155.528 191.637 156.385 191.637 157.403V158.114H183.228V156.665H189.932C189.932 156.049 189.809 155.5 189.563 155.017C189.321 154.534 188.976 154.153 188.526 153.874C188.081 153.594 187.555 153.455 186.949 153.455C186.282 153.455 185.704 153.62 185.216 153.952C184.733 154.278 184.362 154.705 184.101 155.23C183.841 155.756 183.711 156.319 183.711 156.92V157.886C183.711 158.71 183.853 159.409 184.137 159.982C184.426 160.55 184.826 160.983 185.337 161.281C185.848 161.575 186.443 161.722 187.12 161.722C187.56 161.722 187.958 161.66 188.313 161.537C188.673 161.409 188.983 161.22 189.243 160.969C189.504 160.713 189.705 160.396 189.847 160.017L191.466 160.472C191.296 161.021 191.009 161.504 190.607 161.92C190.204 162.332 189.707 162.654 189.115 162.886C188.524 163.114 187.858 163.227 187.12 163.227ZM198.306 163.227C197.397 163.227 196.594 162.998 195.898 162.538C195.202 162.074 194.658 161.421 194.265 160.578C193.872 159.731 193.675 158.729 193.675 157.574C193.675 156.428 193.872 155.434 194.265 154.591C194.658 153.748 195.204 153.097 195.905 152.638C196.606 152.179 197.416 151.949 198.334 151.949C199.044 151.949 199.605 152.067 200.017 152.304C200.434 152.536 200.751 152.801 200.969 153.099C201.192 153.393 201.364 153.634 201.488 153.824H201.63V148.455H203.306V163H201.686V161.324H201.488C201.364 161.523 201.189 161.774 200.962 162.077C200.735 162.375 200.41 162.643 199.989 162.879C199.568 163.111 199.007 163.227 198.306 163.227ZM198.533 161.722C199.205 161.722 199.774 161.546 200.238 161.196C200.702 160.841 201.054 160.351 201.296 159.726C201.537 159.096 201.658 158.369 201.658 157.545C201.658 156.731 201.54 156.018 201.303 155.408C201.066 154.792 200.716 154.314 200.252 153.973C199.788 153.627 199.215 153.455 198.533 153.455C197.823 153.455 197.231 153.637 196.757 154.001C196.289 154.361 195.936 154.851 195.699 155.472C195.467 156.087 195.351 156.778 195.351 157.545C195.351 158.322 195.47 159.027 195.706 159.662C195.948 160.292 196.303 160.794 196.772 161.168C197.245 161.537 197.832 161.722 198.533 161.722Z" fill="black"/>
<path d="M546.358 148.455L550.676 160.699H550.847L555.165 148.455H557.011L551.67 163H549.852L544.511 148.455H546.358ZM560.626 165.5V158.327H560.555L558.311 159.818V158.312L560.626 156.778H562.104V165.5H560.626ZM566.001 155.983V154.449H574.751V155.983H566.001ZM566.001 160.188V158.653H574.751V160.188H566.001ZM578.503 167.091V152.091H580.122V153.824H580.321C580.444 153.634 580.615 153.393 580.832 153.099C581.055 152.801 581.372 152.536 581.784 152.304C582.201 152.067 582.764 151.949 583.474 151.949C584.393 151.949 585.203 152.179 585.903 152.638C586.604 153.097 587.151 153.748 587.544 154.591C587.937 155.434 588.134 156.428 588.134 157.574C588.134 158.729 587.937 159.731 587.544 160.578C587.151 161.421 586.607 162.074 585.911 162.538C585.214 162.998 584.412 163.227 583.503 163.227C582.802 163.227 582.241 163.111 581.82 162.879C581.398 162.643 581.074 162.375 580.847 162.077C580.619 161.774 580.444 161.523 580.321 161.324H580.179V167.091H578.503ZM580.151 157.545C580.151 158.369 580.271 159.096 580.513 159.726C580.754 160.351 581.107 160.841 581.571 161.196C582.035 161.546 582.603 161.722 583.276 161.722C583.976 161.722 584.561 161.537 585.03 161.168C585.503 160.794 585.858 160.292 586.095 159.662C586.337 159.027 586.457 158.322 586.457 157.545C586.457 156.778 586.339 156.087 586.102 155.472C585.87 154.851 585.518 154.361 585.044 154.001C584.575 153.637 583.986 153.455 583.276 153.455C582.594 153.455 582.021 153.627 581.557 153.973C581.093 154.314 580.742 154.792 580.506 155.408C580.269 156.018 580.151 156.731 580.151 157.545ZM590.69 163V152.091H592.31V153.739H592.423C592.622 153.199 592.982 152.761 593.503 152.425C594.024 152.089 594.611 151.92 595.264 151.92C595.387 151.92 595.541 151.923 595.726 151.928C595.911 151.932 596.05 151.939 596.145 151.949V153.653C596.088 153.639 595.958 153.618 595.754 153.589C595.555 153.556 595.345 153.54 595.122 153.54C594.592 153.54 594.118 153.651 593.702 153.874C593.29 154.091 592.963 154.394 592.722 154.783C592.485 155.166 592.366 155.604 592.366 156.097V163H590.69ZM602.232 163.227C601.247 163.227 600.383 162.993 599.639 162.524C598.901 162.055 598.323 161.4 597.906 160.557C597.494 159.714 597.288 158.729 597.288 157.602C597.288 156.466 597.494 155.474 597.906 154.626C598.323 153.779 598.901 153.121 599.639 152.652C600.383 152.183 601.247 151.949 602.232 151.949C603.216 151.949 604.078 152.183 604.817 152.652C605.56 153.121 606.138 153.779 606.55 154.626C606.966 155.474 607.175 156.466 607.175 157.602C607.175 158.729 606.966 159.714 606.55 160.557C606.138 161.4 605.56 162.055 604.817 162.524C604.078 162.993 603.216 163.227 602.232 163.227ZM602.232 161.722C602.98 161.722 603.595 161.53 604.078 161.146C604.561 160.763 604.919 160.259 605.151 159.634C605.383 159.009 605.499 158.331 605.499 157.602C605.499 156.873 605.383 156.194 605.151 155.564C604.919 154.934 604.561 154.425 604.078 154.037C603.595 153.649 602.98 153.455 602.232 153.455C601.483 153.455 600.868 153.649 600.385 154.037C599.902 154.425 599.545 154.934 599.312 155.564C599.08 156.194 598.964 156.873 598.964 157.602C598.964 158.331 599.08 159.009 599.312 159.634C599.545 160.259 599.902 160.763 600.385 161.146C600.868 161.53 601.483 161.722 602.232 161.722ZM614.165 163.227C613.142 163.227 612.262 162.986 611.523 162.503C610.784 162.02 610.216 161.355 609.819 160.507C609.421 159.66 609.222 158.691 609.222 157.602C609.222 156.494 609.426 155.517 609.833 154.669C610.245 153.817 610.818 153.152 611.551 152.673C612.29 152.19 613.152 151.949 614.137 151.949C614.904 151.949 615.595 152.091 616.211 152.375C616.826 152.659 617.33 153.057 617.723 153.568C618.116 154.08 618.36 154.676 618.455 155.358H616.779C616.651 154.861 616.367 154.42 615.926 154.037C615.491 153.649 614.904 153.455 614.165 153.455C613.512 153.455 612.939 153.625 612.446 153.966C611.959 154.302 611.578 154.778 611.303 155.393C611.033 156.004 610.898 156.722 610.898 157.545C610.898 158.388 611.031 159.122 611.296 159.747C611.566 160.372 611.944 160.857 612.432 161.203C612.925 161.549 613.502 161.722 614.165 161.722C614.601 161.722 614.996 161.646 615.351 161.494C615.706 161.343 616.007 161.125 616.253 160.841C616.499 160.557 616.675 160.216 616.779 159.818H618.455C618.36 160.462 618.126 161.042 617.752 161.558C617.382 162.07 616.892 162.477 616.282 162.78C615.676 163.078 614.97 163.227 614.165 163.227ZM625.479 163.227C624.428 163.227 623.521 162.995 622.759 162.531C622.001 162.062 621.417 161.409 621.005 160.571C620.597 159.728 620.394 158.748 620.394 157.631C620.394 156.513 620.597 155.528 621.005 154.676C621.417 153.819 621.989 153.152 622.723 152.673C623.462 152.19 624.324 151.949 625.309 151.949C625.877 151.949 626.438 152.044 626.992 152.233C627.546 152.422 628.05 152.73 628.505 153.156C628.959 153.578 629.321 154.136 629.591 154.832C629.861 155.528 629.996 156.385 629.996 157.403V158.114H621.587V156.665H628.292C628.292 156.049 628.168 155.5 627.922 155.017C627.681 154.534 627.335 154.153 626.885 153.874C626.44 153.594 625.915 153.455 625.309 153.455C624.641 153.455 624.063 153.62 623.576 153.952C623.093 154.278 622.721 154.705 622.461 155.23C622.2 155.756 622.07 156.319 622.07 156.92V157.886C622.07 158.71 622.212 159.409 622.496 159.982C622.785 160.55 623.185 160.983 623.696 161.281C624.208 161.575 624.802 161.722 625.479 161.722C625.919 161.722 626.317 161.66 626.672 161.537C627.032 161.409 627.342 161.22 627.603 160.969C627.863 160.713 628.064 160.396 628.206 160.017L629.826 160.472C629.655 161.021 629.369 161.504 628.966 161.92C628.564 162.332 628.067 162.654 627.475 162.886C626.883 163.114 626.218 163.227 625.479 163.227ZM637.12 163.227C636.069 163.227 635.162 162.995 634.4 162.531C633.642 162.062 633.057 161.409 632.645 160.571C632.238 159.728 632.034 158.748 632.034 157.631C632.034 156.513 632.238 155.528 632.645 154.676C633.057 153.819 633.63 153.152 634.364 152.673C635.103 152.19 635.964 151.949 636.949 151.949C637.517 151.949 638.078 152.044 638.632 152.233C639.186 152.422 639.691 152.73 640.145 153.156C640.6 153.578 640.962 154.136 641.232 154.832C641.502 155.528 641.637 156.385 641.637 157.403V158.114H633.228V156.665H639.932C639.932 156.049 639.809 155.5 639.563 155.017C639.321 154.534 638.976 154.153 638.526 153.874C638.081 153.594 637.555 153.455 636.949 153.455C636.282 153.455 635.704 153.62 635.216 153.952C634.733 154.278 634.362 154.705 634.101 155.23C633.841 155.756 633.711 156.319 633.711 156.92V157.886C633.711 158.71 633.853 159.409 634.137 159.982C634.426 160.55 634.826 160.983 635.337 161.281C635.848 161.575 636.443 161.722 637.12 161.722C637.56 161.722 637.958 161.66 638.313 161.537C638.673 161.409 638.983 161.22 639.243 160.969C639.504 160.713 639.705 160.396 639.847 160.017L641.466 160.472C641.296 161.021 641.009 161.504 640.607 161.92C640.204 162.332 639.707 162.654 639.115 162.886C638.524 163.114 637.858 163.227 637.12 163.227ZM648.306 163.227C647.397 163.227 646.594 162.998 645.898 162.538C645.202 162.074 644.658 161.421 644.265 160.578C643.872 159.731 643.675 158.729 643.675 157.574C643.675 156.428 643.872 155.434 644.265 154.591C644.658 153.748 645.204 153.097 645.905 152.638C646.606 152.179 647.416 151.949 648.334 151.949C649.044 151.949 649.605 152.067 650.017 152.304C650.434 152.536 650.751 152.801 650.969 153.099C651.192 153.393 651.364 153.634 651.488 153.824H651.63V148.455H653.306V163H651.686V161.324H651.488C651.364 161.523 651.189 161.774 650.962 162.077C650.735 162.375 650.41 162.643 649.989 162.879C649.568 163.111 649.007 163.227 648.306 163.227ZM648.533 161.722C649.205 161.722 649.774 161.546 650.238 161.196C650.702 160.841 651.054 160.351 651.296 159.726C651.537 159.096 651.658 158.369 651.658 157.545C651.658 156.731 651.54 156.018 651.303 155.408C651.066 154.792 650.716 154.314 650.252 153.973C649.788 153.627 649.215 153.455 648.533 153.455C647.823 153.455 647.231 153.637 646.757 154.001C646.289 154.361 645.936 154.851 645.699 155.472C645.467 156.087 645.351 156.778 645.351 157.545C645.351 158.322 645.47 159.027 645.706 159.662C645.948 160.292 646.303 160.794 646.772 161.168C647.245 161.537 647.832 161.722 648.533 161.722Z" fill="black"/>
<path d="M436.653 83.2273C435.744 83.2273 434.942 82.9976 434.246 82.5384C433.55 82.0743 433.005 81.4209 432.612 80.5781C432.219 79.7306 432.023 78.7292 432.023 77.5739C432.023 76.428 432.219 75.4337 432.612 74.5909C433.005 73.7481 433.552 73.0971 434.253 72.6378C434.954 72.1785 435.763 71.9489 436.682 71.9489C437.392 71.9489 437.953 72.0672 438.365 72.304C438.782 72.536 439.099 72.8011 439.317 73.0994C439.539 73.393 439.712 73.6345 439.835 73.8239H439.977V68.4545H441.653V83H440.034V81.3239H439.835C439.712 81.5227 439.537 81.7737 439.31 82.0767C439.082 82.375 438.758 82.6425 438.337 82.8793C437.915 83.1113 437.354 83.2273 436.653 83.2273ZM436.881 81.7216C437.553 81.7216 438.121 81.5464 438.585 81.196C439.049 80.8409 439.402 80.3509 439.643 79.7259C439.885 79.0961 440.006 78.3693 440.006 77.5455C440.006 76.7311 439.887 76.0185 439.651 75.4077C439.414 74.7921 439.063 74.3139 438.599 73.973C438.135 73.6274 437.563 73.4545 436.881 73.4545C436.17 73.4545 435.579 73.6368 435.105 74.0014C434.636 74.3613 434.284 74.8513 434.047 75.4716C433.815 76.0871 433.699 76.7784 433.699 77.5455C433.699 78.322 433.817 79.0275 434.054 79.6619C434.295 80.2917 434.651 80.7936 435.119 81.1676C435.593 81.5369 436.18 81.7216 436.881 81.7216ZM446.533 85.5V78.3267H446.462L444.217 79.8182V78.3125L446.533 76.7784H448.01V85.5H446.533ZM451.907 75.983V74.4489H460.657V75.983H451.907ZM451.907 80.1875V78.6534H460.657V80.1875H451.907ZM464.409 87.0909V72.0909H466.028V73.8239H466.227C466.35 73.6345 466.521 73.393 466.739 73.0994C466.961 72.8011 467.278 72.536 467.69 72.304C468.107 72.0672 468.67 71.9489 469.381 71.9489C470.299 71.9489 471.109 72.1785 471.81 72.6378C472.51 73.0971 473.057 73.7481 473.45 74.5909C473.843 75.4337 474.04 76.428 474.04 77.5739C474.04 78.7292 473.843 79.7306 473.45 80.5781C473.057 81.4209 472.513 82.0743 471.817 82.5384C471.121 82.9976 470.318 83.2273 469.409 83.2273C468.708 83.2273 468.147 83.1113 467.726 82.8793C467.304 82.6425 466.98 82.375 466.753 82.0767C466.526 81.7737 466.35 81.5227 466.227 81.3239H466.085V87.0909H464.409ZM466.057 77.5455C466.057 78.3693 466.178 79.0961 466.419 79.7259C466.661 80.3509 467.013 80.8409 467.477 81.196C467.941 81.5464 468.509 81.7216 469.182 81.7216C469.883 81.7216 470.467 81.5369 470.936 81.1676C471.41 80.7936 471.765 80.2917 472.001 79.6619C472.243 79.0275 472.364 78.322 472.364 77.5455C472.364 76.7784 472.245 76.0871 472.009 75.4716C471.777 74.8513 471.424 74.3613 470.95 74.0014C470.482 73.6368 469.892 73.4545 469.182 73.4545C468.5 73.4545 467.927 73.6274 467.463 73.973C466.999 74.3139 466.649 74.7921 466.412 75.4077C466.175 76.0185 466.057 76.7311 466.057 77.5455ZM476.597 83V72.0909H478.216V73.7386H478.33C478.528 73.1989 478.888 72.7609 479.409 72.4247C479.93 72.0885 480.517 71.9205 481.17 71.9205C481.294 71.9205 481.447 71.9228 481.632 71.9276C481.817 71.9323 481.956 71.9394 482.051 71.9489V73.6534C481.994 73.6392 481.864 73.6179 481.661 73.5895C481.462 73.5563 481.251 73.5398 481.028 73.5398C480.498 73.5398 480.025 73.651 479.608 73.8736C479.196 74.0914 478.869 74.3944 478.628 74.7827C478.391 75.1662 478.273 75.6042 478.273 76.0966V83H476.597ZM488.138 83.2273C487.153 83.2273 486.289 82.9929 485.545 82.5241C484.807 82.0554 484.229 81.3996 483.812 80.5568C483.401 79.714 483.195 78.7292 483.195 77.6023C483.195 76.4659 483.401 75.474 483.812 74.6264C484.229 73.7789 484.807 73.1207 485.545 72.652C486.289 72.1832 487.153 71.9489 488.138 71.9489C489.123 71.9489 489.984 72.1832 490.723 72.652C491.466 73.1207 492.044 73.7789 492.456 74.6264C492.873 75.474 493.081 76.4659 493.081 77.6023C493.081 78.7292 492.873 79.714 492.456 80.5568C492.044 81.3996 491.466 82.0554 490.723 82.5241C489.984 82.9929 489.123 83.2273 488.138 83.2273ZM488.138 81.7216C488.886 81.7216 489.501 81.5298 489.984 81.1463C490.467 80.7628 490.825 80.2585 491.057 79.6335C491.289 79.0085 491.405 78.3314 491.405 77.6023C491.405 76.8731 491.289 76.1937 491.057 75.5639C490.825 74.9342 490.467 74.4252 489.984 74.0369C489.501 73.6487 488.886 73.4545 488.138 73.4545C487.39 73.4545 486.774 73.6487 486.291 74.0369C485.808 74.4252 485.451 74.9342 485.219 75.5639C484.987 76.1937 484.871 76.8731 484.871 77.6023C484.871 78.3314 484.987 79.0085 485.219 79.6335C485.451 80.2585 485.808 80.7628 486.291 81.1463C486.774 81.5298 487.39 81.7216 488.138 81.7216ZM500.071 83.2273C499.049 83.2273 498.168 82.9858 497.429 82.5028C496.691 82.0199 496.123 81.3546 495.725 80.5071C495.327 79.6596 495.128 78.6913 495.128 77.6023C495.128 76.4943 495.332 75.5166 495.739 74.669C496.151 73.8168 496.724 73.1515 497.458 72.6733C498.196 72.1903 499.058 71.9489 500.043 71.9489C500.81 71.9489 501.501 72.0909 502.117 72.375C502.732 72.6591 503.237 73.0568 503.63 73.5682C504.023 74.0795 504.266 74.6761 504.361 75.358H502.685C502.557 74.8608 502.273 74.4205 501.833 74.0369C501.397 73.6487 500.81 73.4545 500.071 73.4545C499.418 73.4545 498.845 73.625 498.353 73.9659C497.865 74.3021 497.484 74.7779 497.209 75.3935C496.939 76.0043 496.804 76.7216 496.804 77.5455C496.804 78.3883 496.937 79.1222 497.202 79.7472C497.472 80.3722 497.851 80.8575 498.338 81.2031C498.831 81.5488 499.408 81.7216 500.071 81.7216C500.507 81.7216 500.902 81.6458 501.257 81.4943C501.613 81.3428 501.913 81.125 502.159 80.8409C502.406 80.5568 502.581 80.2159 502.685 79.8182H504.361C504.266 80.4621 504.032 81.0421 503.658 81.5582C503.289 82.0696 502.799 82.4768 502.188 82.7798C501.582 83.0781 500.876 83.2273 500.071 83.2273ZM511.385 83.2273C510.334 83.2273 509.427 82.9953 508.665 82.5312C507.908 82.0625 507.323 81.4091 506.911 80.571C506.504 79.7282 506.3 78.7481 506.3 77.6307C506.3 76.5133 506.504 75.5284 506.911 74.6761C507.323 73.8191 507.896 73.1515 508.63 72.6733C509.368 72.1903 510.23 71.9489 511.215 71.9489C511.783 71.9489 512.344 72.0436 512.898 72.233C513.452 72.4223 513.956 72.7301 514.411 73.1562C514.865 73.5777 515.228 74.1364 515.498 74.8324C515.767 75.5284 515.902 76.3854 515.902 77.4034V78.1136H507.493V76.6648H514.198C514.198 76.0492 514.075 75.5 513.828 75.017C513.587 74.5341 513.241 74.1529 512.792 73.8736C512.346 73.5942 511.821 73.4545 511.215 73.4545C510.547 73.4545 509.97 73.6203 509.482 73.9517C508.999 74.2784 508.627 74.7045 508.367 75.2301C508.106 75.7557 507.976 76.3191 507.976 76.9205V77.8864C507.976 78.7102 508.118 79.4086 508.402 79.9815C508.691 80.5497 509.091 80.983 509.603 81.2812C510.114 81.5748 510.708 81.7216 511.385 81.7216C511.826 81.7216 512.223 81.66 512.578 81.5369C512.938 81.4091 513.248 81.2197 513.509 80.9688C513.769 80.7131 513.971 80.3958 514.113 80.017L515.732 80.4716C515.561 81.0208 515.275 81.5038 514.873 81.9205C514.47 82.3324 513.973 82.6544 513.381 82.8864C512.789 83.1136 512.124 83.2273 511.385 83.2273ZM523.026 83.2273C521.975 83.2273 521.068 82.9953 520.306 82.5312C519.548 82.0625 518.963 81.4091 518.551 80.571C518.144 79.7282 517.941 78.7481 517.941 77.6307C517.941 76.5133 518.144 75.5284 518.551 74.6761C518.963 73.8191 519.536 73.1515 520.27 72.6733C521.009 72.1903 521.871 71.9489 522.855 71.9489C523.424 71.9489 523.985 72.0436 524.539 72.233C525.093 72.4223 525.597 72.7301 526.051 73.1562C526.506 73.5777 526.868 74.1364 527.138 74.8324C527.408 75.5284 527.543 76.3854 527.543 77.4034V78.1136H519.134V76.6648H525.838C525.838 76.0492 525.715 75.5 525.469 75.017C525.228 74.5341 524.882 74.1529 524.432 73.8736C523.987 73.5942 523.462 73.4545 522.855 73.4545C522.188 73.4545 521.61 73.6203 521.123 73.9517C520.64 74.2784 520.268 74.7045 520.007 75.2301C519.747 75.7557 519.617 76.3191 519.617 76.9205V77.8864C519.617 78.7102 519.759 79.4086 520.043 79.9815C520.332 80.5497 520.732 80.983 521.243 81.2812C521.755 81.5748 522.349 81.7216 523.026 81.7216C523.466 81.7216 523.864 81.66 524.219 81.5369C524.579 81.4091 524.889 81.2197 525.15 80.9688C525.41 80.7131 525.611 80.3958 525.753 80.017L527.373 80.4716C527.202 81.0208 526.916 81.5038 526.513 81.9205C526.111 82.3324 525.614 82.6544 525.022 82.8864C524.43 83.1136 523.765 83.2273 523.026 83.2273ZM534.212 83.2273C533.303 83.2273 532.5 82.9976 531.804 82.5384C531.108 82.0743 530.564 81.4209 530.171 80.5781C529.778 79.7306 529.581 78.7292 529.581 77.5739C529.581 76.428 529.778 75.4337 530.171 74.5909C530.564 73.7481 531.111 73.0971 531.811 72.6378C532.512 72.1785 533.322 71.9489 534.24 71.9489C534.951 71.9489 535.512 72.0672 535.924 72.304C536.34 72.536 536.658 72.8011 536.875 73.0994C537.098 73.393 537.271 73.6345 537.394 73.8239H537.536V68.4545H539.212V83H537.593V81.3239H537.394C537.271 81.5227 537.096 81.7737 536.868 82.0767C536.641 82.375 536.317 82.6425 535.895 82.8793C535.474 83.1113 534.913 83.2273 534.212 83.2273ZM534.439 81.7216C535.112 81.7216 535.68 81.5464 536.144 81.196C536.608 80.8409 536.961 80.3509 537.202 79.7259C537.444 79.0961 537.564 78.3693 537.564 77.5455C537.564 76.7311 537.446 76.0185 537.209 75.4077C536.972 74.7921 536.622 74.3139 536.158 73.973C535.694 73.6274 535.121 73.4545 534.439 73.4545C533.729 73.4545 533.137 73.6368 532.664 74.0014C532.195 74.3613 531.842 74.8513 531.605 75.4716C531.373 76.0871 531.257 76.7784 531.257 77.5455C531.257 78.322 531.376 79.0275 531.613 79.6619C531.854 80.2917 532.209 80.7936 532.678 81.1676C533.151 81.5369 533.739 81.7216 534.439 81.7216Z" fill="black"/>
<path d="M177.653 83.2273C176.744 83.2273 175.942 82.9976 175.246 82.5384C174.55 82.0743 174.005 81.4209 173.612 80.5781C173.219 79.7306 173.023 78.7292 173.023 77.5739C173.023 76.428 173.219 75.4337 173.612 74.5909C174.005 73.7481 174.552 73.0971 175.253 72.6378C175.954 72.1785 176.763 71.9489 177.682 71.9489C178.392 71.9489 178.953 72.0672 179.365 72.304C179.782 72.536 180.099 72.8011 180.317 73.0994C180.539 73.393 180.712 73.6345 180.835 73.8239H180.977V68.4545H182.653V83H181.034V81.3239H180.835C180.712 81.5227 180.537 81.7737 180.31 82.0767C180.082 82.375 179.758 82.6425 179.337 82.8793C178.915 83.1113 178.354 83.2273 177.653 83.2273ZM177.881 81.7216C178.553 81.7216 179.121 81.5464 179.585 81.196C180.049 80.8409 180.402 80.3509 180.643 79.7259C180.885 79.0961 181.006 78.3693 181.006 77.5455C181.006 76.7311 180.887 76.0185 180.651 75.4077C180.414 74.7921 180.063 74.3139 179.599 73.973C179.135 73.6274 178.563 73.4545 177.881 73.4545C177.17 73.4545 176.579 73.6368 176.105 74.0014C175.636 74.3613 175.284 74.8513 175.047 75.4716C174.815 76.0871 174.699 76.7784 174.699 77.5455C174.699 78.322 174.817 79.0275 175.054 79.6619C175.295 80.2917 175.651 80.7936 176.119 81.1676C176.593 81.5369 177.18 81.7216 177.881 81.7216ZM185.416 85.5V84.392L188.74 81.4375C189.071 81.1439 189.348 80.8812 189.571 80.6491C189.794 80.4171 189.962 80.1922 190.075 79.9744C190.189 79.7566 190.246 79.5246 190.246 79.2784C190.246 78.8523 190.082 78.5137 189.756 78.2628C189.429 78.0118 189.024 77.8864 188.541 77.8864C188.03 77.8864 187.618 78.0237 187.305 78.2983C186.993 78.5682 186.837 78.9233 186.837 79.3636H185.359C185.359 78.554 185.66 77.9029 186.261 77.4105C186.863 76.9134 187.632 76.6648 188.57 76.6648C189.195 76.6648 189.744 76.7784 190.217 77.0057C190.691 77.2282 191.06 77.536 191.325 77.929C191.59 78.3172 191.723 78.7576 191.723 79.25C191.723 79.6383 191.645 79.9981 191.489 80.3295C191.332 80.661 191.089 81.0043 190.757 81.3594C190.426 81.7145 190 82.1193 189.479 82.5739L187.632 84.1932V84.25H191.979V85.5H185.416ZM195.056 75.983V74.4489H203.806V75.983H195.056ZM195.056 80.1875V78.6534H203.806V80.1875H195.056ZM207.558 87.0909V72.0909H209.177V73.8239H209.376C209.499 73.6345 209.669 73.393 209.887 73.0994C210.11 72.8011 210.427 72.536 210.839 72.304C211.255 72.0672 211.819 71.9489 212.529 71.9489C213.448 71.9489 214.257 72.1785 214.958 72.6378C215.659 73.0971 216.206 73.7481 216.599 74.5909C216.992 75.4337 217.188 76.428 217.188 77.5739C217.188 78.7292 216.992 79.7306 216.599 80.5781C216.206 81.4209 215.661 82.0743 214.965 82.5384C214.269 82.9976 213.467 83.2273 212.558 83.2273C211.857 83.2273 211.296 83.1113 210.874 82.8793C210.453 82.6425 210.129 82.375 209.901 82.0767C209.674 81.7737 209.499 81.5227 209.376 81.3239H209.234V87.0909H207.558ZM209.205 77.5455C209.205 78.3693 209.326 79.0961 209.567 79.7259C209.809 80.3509 210.162 80.8409 210.626 81.196C211.09 81.5464 211.658 81.7216 212.33 81.7216C213.031 81.7216 213.616 81.5369 214.085 81.1676C214.558 80.7936 214.913 80.2917 215.15 79.6619C215.391 79.0275 215.512 78.322 215.512 77.5455C215.512 76.7784 215.394 76.0871 215.157 75.4716C214.925 74.8513 214.572 74.3613 214.099 74.0014C213.63 73.6368 213.04 73.4545 212.33 73.4545C211.648 73.4545 211.076 73.6274 210.612 73.973C210.147 74.3139 209.797 74.7921 209.56 75.4077C209.324 76.0185 209.205 76.7311 209.205 77.5455ZM219.745 83V72.0909H221.364V73.7386H221.478C221.677 73.1989 222.037 72.7609 222.558 72.4247C223.078 72.0885 223.665 71.9205 224.319 71.9205C224.442 71.9205 224.596 71.9228 224.781 71.9276C224.965 71.9323 225.105 71.9394 225.2 71.9489V73.6534C225.143 73.6392 225.013 73.6179 224.809 73.5895C224.61 73.5563 224.399 73.5398 224.177 73.5398C223.647 73.5398 223.173 73.651 222.756 73.8736C222.344 74.0914 222.018 74.3944 221.776 74.7827C221.54 75.1662 221.421 75.6042 221.421 76.0966V83H219.745ZM231.286 83.2273C230.301 83.2273 229.437 82.9929 228.694 82.5241C227.955 82.0554 227.378 81.3996 226.961 80.5568C226.549 79.714 226.343 78.7292 226.343 77.6023C226.343 76.4659 226.549 75.474 226.961 74.6264C227.378 73.7789 227.955 73.1207 228.694 72.652C229.437 72.1832 230.301 71.9489 231.286 71.9489C232.271 71.9489 233.133 72.1832 233.871 72.652C234.615 73.1207 235.192 73.7789 235.604 74.6264C236.021 75.474 236.229 76.4659 236.229 77.6023C236.229 78.7292 236.021 79.714 235.604 80.5568C235.192 81.3996 234.615 82.0554 233.871 82.5241C233.133 82.9929 232.271 83.2273 231.286 83.2273ZM231.286 81.7216C232.034 81.7216 232.65 81.5298 233.133 81.1463C233.616 80.7628 233.973 80.2585 234.205 79.6335C234.437 79.0085 234.553 78.3314 234.553 77.6023C234.553 76.8731 234.437 76.1937 234.205 75.5639C233.973 74.9342 233.616 74.4252 233.133 74.0369C232.65 73.6487 232.034 73.4545 231.286 73.4545C230.538 73.4545 229.923 73.6487 229.44 74.0369C228.957 74.4252 228.599 74.9342 228.367 75.5639C228.135 76.1937 228.019 76.8731 228.019 77.6023C228.019 78.3314 228.135 79.0085 228.367 79.6335C228.599 80.2585 228.957 80.7628 229.44 81.1463C229.923 81.5298 230.538 81.7216 231.286 81.7216ZM243.22 83.2273C242.197 83.2273 241.316 82.9858 240.578 82.5028C239.839 82.0199 239.271 81.3546 238.873 80.5071C238.475 79.6596 238.277 78.6913 238.277 77.6023C238.277 76.4943 238.48 75.5166 238.887 74.669C239.299 73.8168 239.872 73.1515 240.606 72.6733C241.345 72.1903 242.207 71.9489 243.191 71.9489C243.958 71.9489 244.65 72.0909 245.265 72.375C245.881 72.6591 246.385 73.0568 246.778 73.5682C247.171 74.0795 247.415 74.6761 247.51 75.358H245.833C245.706 74.8608 245.422 74.4205 244.981 74.0369C244.546 73.6487 243.958 73.4545 243.22 73.4545C242.566 73.4545 241.993 73.625 241.501 73.9659C241.013 74.3021 240.632 74.7779 240.358 75.3935C240.088 76.0043 239.953 76.7216 239.953 77.5455C239.953 78.3883 240.085 79.1222 240.35 79.7472C240.62 80.3722 240.999 80.8575 241.487 81.2031C241.979 81.5488 242.557 81.7216 243.22 81.7216C243.655 81.7216 244.051 81.6458 244.406 81.4943C244.761 81.3428 245.062 81.125 245.308 80.8409C245.554 80.5568 245.729 80.2159 245.833 79.8182H247.51C247.415 80.4621 247.181 81.0421 246.806 81.5582C246.437 82.0696 245.947 82.4768 245.336 82.7798C244.73 83.0781 244.025 83.2273 243.22 83.2273ZM254.534 83.2273C253.483 83.2273 252.576 82.9953 251.814 82.5312C251.056 82.0625 250.471 81.4091 250.059 80.571C249.652 79.7282 249.449 78.7481 249.449 77.6307C249.449 76.5133 249.652 75.5284 250.059 74.6761C250.471 73.8191 251.044 73.1515 251.778 72.6733C252.517 72.1903 253.378 71.9489 254.363 71.9489C254.931 71.9489 255.493 72.0436 256.047 72.233C256.6 72.4223 257.105 72.7301 257.559 73.1562C258.014 73.5777 258.376 74.1364 258.646 74.8324C258.916 75.5284 259.051 76.3854 259.051 77.4034V78.1136H250.642V76.6648H257.346C257.346 76.0492 257.223 75.5 256.977 75.017C256.735 74.5341 256.39 74.1529 255.94 73.8736C255.495 73.5942 254.969 73.4545 254.363 73.4545C253.696 73.4545 253.118 73.6203 252.63 73.9517C252.147 74.2784 251.776 74.7045 251.515 75.2301C251.255 75.7557 251.125 76.3191 251.125 76.9205V77.8864C251.125 78.7102 251.267 79.4086 251.551 79.9815C251.84 80.5497 252.24 80.983 252.751 81.2812C253.262 81.5748 253.857 81.7216 254.534 81.7216C254.974 81.7216 255.372 81.66 255.727 81.5369C256.087 81.4091 256.397 81.2197 256.657 80.9688C256.918 80.7131 257.119 80.3958 257.261 80.017L258.88 80.4716C258.71 81.0208 258.423 81.5038 258.021 81.9205C257.618 82.3324 257.121 82.6544 256.529 82.8864C255.938 83.1136 255.272 83.2273 254.534 83.2273ZM266.174 83.2273C265.123 83.2273 264.217 82.9953 263.454 82.5312C262.697 82.0625 262.112 81.4091 261.7 80.571C261.293 79.7282 261.089 78.7481 261.089 77.6307C261.089 76.5133 261.293 75.5284 261.7 74.6761C262.112 73.8191 262.685 73.1515 263.419 72.6733C264.157 72.1903 265.019 71.9489 266.004 71.9489C266.572 71.9489 267.133 72.0436 267.687 72.233C268.241 72.4223 268.745 72.7301 269.2 73.1562C269.654 73.5777 270.017 74.1364 270.287 74.8324C270.556 75.5284 270.691 76.3854 270.691 77.4034V78.1136H262.282V76.6648H268.987C268.987 76.0492 268.864 75.5 268.618 75.017C268.376 74.5341 268.03 74.1529 267.581 73.8736C267.136 73.5942 266.61 73.4545 266.004 73.4545C265.336 73.4545 264.759 73.6203 264.271 73.9517C263.788 74.2784 263.416 74.7045 263.156 75.2301C262.895 75.7557 262.765 76.3191 262.765 76.9205V77.8864C262.765 78.7102 262.907 79.4086 263.191 79.9815C263.48 80.5497 263.88 80.983 264.392 81.2812C264.903 81.5748 265.497 81.7216 266.174 81.7216C266.615 81.7216 267.012 81.66 267.368 81.5369C267.727 81.4091 268.038 81.2197 268.298 80.9688C268.558 80.7131 268.76 80.3958 268.902 80.017L270.521 80.4716C270.35 81.0208 270.064 81.5038 269.662 81.9205C269.259 82.3324 268.762 82.6544 268.17 82.8864C267.578 83.1136 266.913 83.2273 266.174 83.2273ZM277.36 83.2273C276.451 83.2273 275.649 82.9976 274.953 82.5384C274.257 82.0743 273.712 81.4209 273.319 80.5781C272.926 79.7306 272.73 78.7292 272.73 77.5739C272.73 76.428 272.926 75.4337 273.319 74.5909C273.712 73.7481 274.259 73.0971 274.96 72.6378C275.661 72.1785 276.47 71.9489 277.389 71.9489C278.099 71.9489 278.66 72.0672 279.072 72.304C279.489 72.536 279.806 72.8011 280.024 73.0994C280.246 73.393 280.419 73.6345 280.542 73.8239H280.684V68.4545H282.36V83H280.741V81.3239H280.542C280.419 81.5227 280.244 81.7737 280.017 82.0767C279.789 82.375 279.465 82.6425 279.044 82.8793C278.622 83.1113 278.061 83.2273 277.36 83.2273ZM277.588 81.7216C278.26 81.7216 278.828 81.5464 279.292 81.196C279.756 80.8409 280.109 80.3509 280.35 79.7259C280.592 79.0961 280.713 78.3693 280.713 77.5455C280.713 76.7311 280.594 76.0185 280.358 75.4077C280.121 74.7921 279.77 74.3139 279.306 73.973C278.842 73.6274 278.27 73.4545 277.588 73.4545C276.877 73.4545 276.286 73.6368 275.812 74.0014C275.343 74.3613 274.991 74.8513 274.754 75.4716C274.522 76.0871 274.406 76.7784 274.406 77.5455C274.406 78.322 274.524 79.0275 274.761 79.6619C275.002 80.2917 275.358 80.7936 275.826 81.1676C276.3 81.5369 276.887 81.7216 277.588 81.7216Z" fill="black"/>
<path d="M392.358 350.455L396.676 362.699H396.847L401.165 350.455H403.011L397.67 365H395.852L390.511 350.455H392.358ZM407.805 367.614C407.152 367.614 406.567 367.505 406.051 367.287C405.54 367.069 405.133 366.768 404.83 366.385C404.531 366.001 404.377 365.559 404.368 365.057H405.93C405.945 365.44 406.129 365.748 406.484 365.98C406.839 366.217 407.28 366.335 407.805 366.335C408.359 366.335 408.814 366.207 409.169 365.952C409.529 365.696 409.709 365.369 409.709 364.972C409.709 364.574 409.517 364.247 409.134 363.991C408.755 363.736 408.246 363.608 407.607 363.608H406.896V362.472H407.607C408.132 362.472 408.57 362.353 408.92 362.116C409.276 361.88 409.453 361.562 409.453 361.165C409.453 360.795 409.304 360.49 409.006 360.249C408.707 360.007 408.317 359.886 407.834 359.886C407.351 359.886 406.934 360.005 406.584 360.241C406.238 360.478 406.058 360.795 406.044 361.193H404.567C404.576 360.691 404.725 360.251 405.014 359.872C405.308 359.493 405.698 359.197 406.186 358.984C406.679 358.771 407.228 358.665 407.834 358.665C408.449 358.665 408.991 358.769 409.46 358.977C409.929 359.186 410.296 359.472 410.561 359.837C410.826 360.201 410.959 360.616 410.959 361.08C410.959 361.591 410.784 362.01 410.433 362.337C410.083 362.663 409.652 362.869 409.141 362.955V363.011C409.837 363.111 410.369 363.35 410.739 363.729C411.113 364.107 411.3 364.56 411.3 365.085C411.3 365.568 411.151 365.999 410.852 366.378C410.554 366.761 410.142 367.062 409.616 367.28C409.091 367.502 408.487 367.614 407.805 367.614ZM414.345 357.983V356.449H423.095V357.983H414.345ZM414.345 362.188V360.653H423.095V362.188H414.345ZM430.057 365.256C429.366 365.256 428.738 365.125 428.175 364.865C427.611 364.6 427.164 364.219 426.832 363.722C426.501 363.22 426.335 362.614 426.335 361.903C426.335 361.278 426.458 360.772 426.705 360.384C426.951 359.991 427.28 359.683 427.692 359.46C428.104 359.238 428.558 359.072 429.055 358.963C429.557 358.849 430.062 358.759 430.568 358.693C431.231 358.608 431.768 358.544 432.18 358.501C432.597 358.454 432.9 358.376 433.089 358.267C433.284 358.158 433.381 357.969 433.381 357.699V357.642C433.381 356.941 433.189 356.397 432.805 356.009C432.427 355.62 431.851 355.426 431.08 355.426C430.279 355.426 429.652 355.601 429.197 355.952C428.743 356.302 428.423 356.676 428.239 357.074L426.648 356.506C426.932 355.843 427.311 355.327 427.784 354.957C428.262 354.583 428.783 354.323 429.347 354.176C429.915 354.025 430.473 353.949 431.023 353.949C431.373 353.949 431.776 353.991 432.23 354.077C432.689 354.157 433.132 354.325 433.558 354.581C433.989 354.837 434.347 355.223 434.631 355.739C434.915 356.255 435.057 356.946 435.057 357.812V365H433.381V363.523H433.295C433.182 363.759 432.992 364.013 432.727 364.283C432.462 364.553 432.109 364.782 431.669 364.972C431.229 365.161 430.691 365.256 430.057 365.256ZM430.312 363.75C430.975 363.75 431.534 363.62 431.989 363.359C432.448 363.099 432.794 362.763 433.026 362.351C433.262 361.939 433.381 361.506 433.381 361.051V359.517C433.31 359.602 433.153 359.68 432.912 359.751C432.675 359.818 432.401 359.877 432.088 359.929C431.78 359.976 431.48 360.019 431.186 360.057C430.897 360.09 430.663 360.118 430.483 360.142C430.047 360.199 429.64 360.291 429.261 360.419C428.887 360.542 428.584 360.729 428.352 360.98C428.125 361.226 428.011 361.562 428.011 361.989C428.011 362.571 428.227 363.011 428.658 363.31C429.093 363.603 429.645 363.75 430.312 363.75ZM438.343 365V350.455H440.02V355.824H440.162C440.285 355.634 440.455 355.393 440.673 355.099C440.895 354.801 441.213 354.536 441.625 354.304C442.041 354.067 442.605 353.949 443.315 353.949C444.234 353.949 445.043 354.179 445.744 354.638C446.445 355.097 446.992 355.748 447.385 356.591C447.778 357.434 447.974 358.428 447.974 359.574C447.974 360.729 447.778 361.731 447.385 362.578C446.992 363.421 446.447 364.074 445.751 364.538C445.055 364.998 444.252 365.227 443.343 365.227C442.643 365.227 442.082 365.111 441.66 364.879C441.239 364.643 440.914 364.375 440.687 364.077C440.46 363.774 440.285 363.523 440.162 363.324H439.963V365H438.343ZM439.991 359.545C439.991 360.369 440.112 361.096 440.353 361.726C440.595 362.351 440.948 362.841 441.412 363.196C441.876 363.546 442.444 363.722 443.116 363.722C443.817 363.722 444.402 363.537 444.87 363.168C445.344 362.794 445.699 362.292 445.936 361.662C446.177 361.027 446.298 360.322 446.298 359.545C446.298 358.778 446.18 358.087 445.943 357.472C445.711 356.851 445.358 356.361 444.885 356.001C444.416 355.637 443.826 355.455 443.116 355.455C442.434 355.455 441.861 355.627 441.397 355.973C440.933 356.314 440.583 356.792 440.346 357.408C440.109 358.018 439.991 358.731 439.991 359.545ZM454.97 365.227C453.985 365.227 453.121 364.993 452.377 364.524C451.639 364.055 451.061 363.4 450.645 362.557C450.233 361.714 450.027 360.729 450.027 359.602C450.027 358.466 450.233 357.474 450.645 356.626C451.061 355.779 451.639 355.121 452.377 354.652C453.121 354.183 453.985 353.949 454.97 353.949C455.955 353.949 456.816 354.183 457.555 354.652C458.298 355.121 458.876 355.779 459.288 356.626C459.705 357.474 459.913 358.466 459.913 359.602C459.913 360.729 459.705 361.714 459.288 362.557C458.876 363.4 458.298 364.055 457.555 364.524C456.816 364.993 455.955 365.227 454.97 365.227ZM454.97 363.722C455.718 363.722 456.333 363.53 456.816 363.146C457.299 362.763 457.657 362.259 457.889 361.634C458.121 361.009 458.237 360.331 458.237 359.602C458.237 358.873 458.121 358.194 457.889 357.564C457.657 356.934 457.299 356.425 456.816 356.037C456.333 355.649 455.718 355.455 454.97 355.455C454.222 355.455 453.606 355.649 453.123 356.037C452.64 356.425 452.283 356.934 452.051 357.564C451.819 358.194 451.703 358.873 451.703 359.602C451.703 360.331 451.819 361.009 452.051 361.634C452.283 362.259 452.64 362.763 453.123 363.146C453.606 363.53 454.222 363.722 454.97 363.722ZM462.472 365V354.091H464.091V355.739H464.205C464.403 355.199 464.763 354.761 465.284 354.425C465.805 354.089 466.392 353.92 467.045 353.92C467.169 353.92 467.322 353.923 467.507 353.928C467.692 353.932 467.831 353.939 467.926 353.949V355.653C467.869 355.639 467.739 355.618 467.536 355.589C467.337 355.556 467.126 355.54 466.903 355.54C466.373 355.54 465.9 355.651 465.483 355.874C465.071 356.091 464.744 356.394 464.503 356.783C464.266 357.166 464.148 357.604 464.148 358.097V365H462.472ZM475.341 354.091V355.511H469.688V354.091H475.341ZM471.335 351.477H473.011V361.875C473.011 362.348 473.08 362.704 473.217 362.94C473.359 363.172 473.539 363.329 473.757 363.409C473.98 363.485 474.214 363.523 474.46 363.523C474.645 363.523 474.796 363.513 474.915 363.494C475.033 363.471 475.128 363.452 475.199 363.438L475.54 364.943C475.426 364.986 475.268 365.028 475.064 365.071C474.86 365.118 474.602 365.142 474.29 365.142C473.816 365.142 473.352 365.04 472.898 364.837C472.448 364.633 472.074 364.323 471.776 363.906C471.482 363.49 471.335 362.964 471.335 362.33V351.477Z" fill="black"/>
</svg>
