<svg width="724" height="541" viewBox="0 0 724 541" fill="none" xmlns="http://www.w3.org/2000/svg">
<ellipse cx="55" cy="52" rx="55" ry="52" fill="#D9D9D9"/>
<ellipse cx="362" cy="489" rx="55" ry="52" fill="#D9D9D9"/>
<path d="M474.5 191.5C474.5 239.439 424.48 278.5 362.5 278.5C300.52 278.5 250.5 239.439 250.5 191.5C250.5 143.561 300.52 104.5 362.5 104.5C424.48 104.5 474.5 143.561 474.5 191.5Z" fill="white" stroke="black"/>
<ellipse cx="669" cy="52" rx="55" ry="52" fill="#D9D9D9"/>
<path d="M235.47 154.425C236.257 154.165 236.684 153.317 236.425 152.53L232.196 139.709C231.937 138.923 231.089 138.495 230.302 138.755C229.515 139.014 229.088 139.862 229.347 140.649L233.106 152.045L221.709 155.804C220.923 156.063 220.495 156.911 220.755 157.698C221.014 158.485 221.862 158.912 222.649 158.653L235.47 154.425ZM109.325 91.3395L234.325 154.339L235.675 151.661L110.675 88.6605L109.325 91.3395Z" fill="black"/>
<path d="M124.526 71.5768C123.74 71.8384 123.315 72.6877 123.577 73.4737L127.84 86.2828C128.102 87.0688 128.951 87.4939 129.737 87.2322C130.523 86.9706 130.949 86.1213 130.687 85.3353L126.897 73.9495L138.283 70.1596C139.069 69.8979 139.494 69.0486 139.232 68.2626C138.971 67.4766 138.121 67.0515 137.335 67.3131L124.526 71.5768ZM250.846 134.312L125.671 71.6586L124.329 74.3413L249.503 136.995L250.846 134.312Z" fill="black"/>
<path d="M376.061 286.939C375.475 286.354 374.525 286.354 373.939 286.939L364.393 296.485C363.808 297.071 363.808 298.021 364.393 298.607C364.979 299.192 365.929 299.192 366.515 298.607L375 290.121L383.485 298.607C384.071 299.192 385.021 299.192 385.607 298.607C386.192 298.021 386.192 297.071 385.607 296.485L376.061 286.939ZM376.5 427.979V288H373.5V427.979H376.5Z" fill="black"/>
<path d="M351.939 429.039C352.525 429.625 353.475 429.625 354.061 429.039L363.607 419.493C364.193 418.908 364.193 417.958 363.607 417.372C363.021 416.786 362.071 416.786 361.486 417.372L353 425.857L344.515 417.372C343.929 416.786 342.979 416.786 342.394 417.372C341.808 417.958 341.808 418.907 342.394 419.493L351.939 429.039ZM351.503 288L351.5 427.979L354.5 427.979L354.503 288L351.503 288Z" fill="black"/>
<path d="M486.583 150.613C486.311 151.396 486.726 152.25 487.509 152.522L500.264 156.943C501.047 157.214 501.901 156.8 502.173 156.017C502.444 155.234 502.029 154.38 501.247 154.108L489.909 150.178L493.839 138.84C494.11 138.057 493.695 137.203 492.913 136.932C492.13 136.66 491.275 137.075 491.004 137.858L486.583 150.613ZM613.283 88.6505L487.345 149.755L488.655 152.454L614.592 91.3495L613.283 88.6505Z" fill="black"/>
<path d="M609.255 73.4889C609.525 72.7057 609.109 71.8519 608.326 71.5819L595.563 67.1815C594.78 66.9115 593.926 67.3274 593.656 68.1106C593.386 68.8938 593.802 69.7476 594.586 70.0176L605.93 73.9291L602.019 85.2737C601.749 86.0569 602.165 86.9107 602.948 87.1808C603.731 87.4508 604.585 87.0348 604.855 86.2516L609.255 73.4889ZM482.657 135.659L608.494 74.3484L607.18 71.6515L481.343 132.962L482.657 135.659Z" fill="black"/>
<path d="M47.358 44.4545L51.6761 56.6989H51.8466L56.1648 44.4545H58.0114L52.6705 59H50.8523L45.5114 44.4545H47.358ZM61.6264 61.5V54.3267H61.5554L59.3111 55.8182V54.3125L61.6264 52.7784H63.1037V61.5H61.6264Z" fill="black"/>
<path d="M278.466 188H276.705C276.6 187.493 276.418 187.048 276.158 186.665C275.902 186.281 275.589 185.959 275.22 185.699C274.856 185.434 274.451 185.235 274.006 185.102C273.561 184.97 273.097 184.903 272.614 184.903C271.733 184.903 270.935 185.126 270.22 185.571C269.51 186.016 268.944 186.672 268.523 187.538C268.106 188.405 267.898 189.468 267.898 190.727C267.898 191.987 268.106 193.05 268.523 193.916C268.944 194.783 269.51 195.438 270.22 195.884C270.935 196.329 271.733 196.551 272.614 196.551C273.097 196.551 273.561 196.485 274.006 196.352C274.451 196.22 274.856 196.023 275.22 195.763C275.589 195.498 275.902 195.173 276.158 194.79C276.418 194.402 276.6 193.956 276.705 193.455H278.466C278.333 194.198 278.092 194.863 277.741 195.45C277.391 196.037 276.955 196.537 276.435 196.949C275.914 197.356 275.329 197.666 274.68 197.879C274.036 198.092 273.348 198.199 272.614 198.199C271.373 198.199 270.27 197.896 269.304 197.29C268.338 196.684 267.578 195.822 267.024 194.705C266.47 193.587 266.193 192.261 266.193 190.727C266.193 189.193 266.47 187.867 267.024 186.75C267.578 185.633 268.338 184.771 269.304 184.165C270.27 183.559 271.373 183.256 272.614 183.256C273.348 183.256 274.036 183.362 274.68 183.575C275.329 183.788 275.914 184.101 276.435 184.513C276.955 184.92 277.391 185.417 277.741 186.004C278.092 186.587 278.333 187.252 278.466 188ZM285.517 198.227C284.532 198.227 283.668 197.993 282.924 197.524C282.186 197.055 281.608 196.4 281.191 195.557C280.779 194.714 280.574 193.729 280.574 192.602C280.574 191.466 280.779 190.474 281.191 189.626C281.608 188.779 282.186 188.121 282.924 187.652C283.668 187.183 284.532 186.949 285.517 186.949C286.502 186.949 287.363 187.183 288.102 187.652C288.845 188.121 289.423 188.779 289.835 189.626C290.252 190.474 290.46 191.466 290.46 192.602C290.46 193.729 290.252 194.714 289.835 195.557C289.423 196.4 288.845 197.055 288.102 197.524C287.363 197.993 286.502 198.227 285.517 198.227ZM285.517 196.722C286.265 196.722 286.88 196.53 287.363 196.146C287.846 195.763 288.204 195.259 288.436 194.634C288.668 194.009 288.784 193.331 288.784 192.602C288.784 191.873 288.668 191.194 288.436 190.564C288.204 189.934 287.846 189.425 287.363 189.037C286.88 188.649 286.265 188.455 285.517 188.455C284.769 188.455 284.153 188.649 283.67 189.037C283.187 189.425 282.83 189.934 282.598 190.564C282.366 191.194 282.25 191.873 282.25 192.602C282.25 193.331 282.366 194.009 282.598 194.634C282.83 195.259 283.187 195.763 283.67 196.146C284.153 196.53 284.769 196.722 285.517 196.722ZM294.695 191.438V198H293.018V187.091H294.638V188.795H294.78C295.036 188.241 295.424 187.796 295.945 187.46C296.465 187.119 297.138 186.949 297.962 186.949C298.7 186.949 299.347 187.1 299.901 187.403C300.455 187.702 300.885 188.156 301.193 188.767C301.501 189.373 301.655 190.14 301.655 191.068V198H299.979V191.182C299.979 190.325 299.756 189.657 299.311 189.179C298.866 188.696 298.255 188.455 297.479 188.455C296.944 188.455 296.465 188.571 296.044 188.803C295.627 189.035 295.298 189.373 295.057 189.818C294.815 190.263 294.695 190.803 294.695 191.438ZM312.445 189.534L310.939 189.96C310.845 189.709 310.705 189.465 310.52 189.229C310.34 188.987 310.094 188.788 309.782 188.632C309.469 188.476 309.069 188.398 308.581 188.398C307.914 188.398 307.357 188.552 306.912 188.859C306.472 189.162 306.252 189.548 306.252 190.017C306.252 190.434 306.403 190.763 306.706 191.004C307.009 191.246 307.483 191.447 308.127 191.608L309.746 192.006C310.721 192.242 311.448 192.605 311.926 193.092C312.405 193.575 312.644 194.198 312.644 194.96C312.644 195.585 312.464 196.144 312.104 196.636C311.749 197.129 311.252 197.517 310.613 197.801C309.973 198.085 309.23 198.227 308.382 198.227C307.27 198.227 306.349 197.986 305.62 197.503C304.891 197.02 304.429 196.314 304.235 195.386L305.826 194.989C305.977 195.576 306.264 196.016 306.685 196.31C307.111 196.603 307.667 196.75 308.354 196.75C309.135 196.75 309.756 196.584 310.215 196.253C310.679 195.917 310.911 195.514 310.911 195.045C310.911 194.667 310.778 194.349 310.513 194.094C310.248 193.833 309.841 193.639 309.292 193.511L307.473 193.085C306.474 192.848 305.74 192.482 305.272 191.984C304.808 191.482 304.576 190.855 304.576 190.102C304.576 189.487 304.748 188.942 305.094 188.469C305.444 187.995 305.92 187.624 306.522 187.354C307.128 187.084 307.814 186.949 308.581 186.949C309.661 186.949 310.508 187.186 311.124 187.659C311.744 188.133 312.185 188.758 312.445 189.534ZM319.741 198.227C318.69 198.227 317.783 197.995 317.021 197.531C316.263 197.062 315.678 196.409 315.266 195.571C314.859 194.728 314.656 193.748 314.656 192.631C314.656 191.513 314.859 190.528 315.266 189.676C315.678 188.819 316.251 188.152 316.985 187.673C317.724 187.19 318.585 186.949 319.57 186.949C320.138 186.949 320.7 187.044 321.254 187.233C321.808 187.422 322.312 187.73 322.766 188.156C323.221 188.578 323.583 189.136 323.853 189.832C324.123 190.528 324.258 191.385 324.258 192.403V193.114H315.849V191.665H322.553C322.553 191.049 322.43 190.5 322.184 190.017C321.942 189.534 321.597 189.153 321.147 188.874C320.702 188.594 320.176 188.455 319.57 188.455C318.903 188.455 318.325 188.62 317.837 188.952C317.354 189.278 316.983 189.705 316.722 190.23C316.462 190.756 316.332 191.319 316.332 191.92V192.886C316.332 193.71 316.474 194.409 316.758 194.982C317.047 195.55 317.447 195.983 317.958 196.281C318.469 196.575 319.064 196.722 319.741 196.722C320.181 196.722 320.579 196.66 320.934 196.537C321.294 196.409 321.604 196.22 321.864 195.969C322.125 195.713 322.326 195.396 322.468 195.017L324.087 195.472C323.917 196.021 323.63 196.504 323.228 196.92C322.826 197.332 322.328 197.654 321.737 197.886C321.145 198.114 320.479 198.227 319.741 198.227ZM328.484 191.438V198H326.808V187.091H328.427V188.795H328.569C328.825 188.241 329.213 187.796 329.734 187.46C330.254 187.119 330.927 186.949 331.751 186.949C332.489 186.949 333.136 187.1 333.69 187.403C334.244 187.702 334.674 188.156 334.982 188.767C335.29 189.373 335.444 190.14 335.444 191.068V198H333.768V191.182C333.768 190.325 333.545 189.657 333.1 189.179C332.655 188.696 332.044 188.455 331.268 188.455C330.733 188.455 330.254 188.571 329.833 188.803C329.416 189.035 329.087 189.373 328.846 189.818C328.604 190.263 328.484 190.803 328.484 191.438ZM346.234 189.534L344.728 189.96C344.634 189.709 344.494 189.465 344.309 189.229C344.129 188.987 343.883 188.788 343.571 188.632C343.258 188.476 342.858 188.398 342.37 188.398C341.703 188.398 341.146 188.552 340.701 188.859C340.261 189.162 340.041 189.548 340.041 190.017C340.041 190.434 340.192 190.763 340.495 191.004C340.798 191.246 341.272 191.447 341.916 191.608L343.535 192.006C344.511 192.242 345.237 192.605 345.716 193.092C346.194 193.575 346.433 194.198 346.433 194.96C346.433 195.585 346.253 196.144 345.893 196.636C345.538 197.129 345.041 197.517 344.402 197.801C343.762 198.085 343.019 198.227 342.172 198.227C341.059 198.227 340.138 197.986 339.409 197.503C338.68 197.02 338.218 196.314 338.024 195.386L339.615 194.989C339.766 195.576 340.053 196.016 340.474 196.31C340.9 196.603 341.457 196.75 342.143 196.75C342.924 196.75 343.545 196.584 344.004 196.253C344.468 195.917 344.7 195.514 344.7 195.045C344.7 194.667 344.567 194.349 344.302 194.094C344.037 193.833 343.63 193.639 343.081 193.511L341.262 193.085C340.263 192.848 339.529 192.482 339.061 191.984C338.597 191.482 338.365 190.855 338.365 190.102C338.365 189.487 338.538 188.942 338.883 188.469C339.234 187.995 339.709 187.624 340.311 187.354C340.917 187.084 341.603 186.949 342.37 186.949C343.45 186.949 344.297 187.186 344.913 187.659C345.533 188.133 345.974 188.758 346.234 189.534ZM355.831 193.54V187.091H357.507V198H355.831V196.153H355.717C355.462 196.707 355.064 197.179 354.524 197.567C353.984 197.95 353.303 198.142 352.479 198.142C351.797 198.142 351.191 197.993 350.661 197.695C350.13 197.392 349.714 196.937 349.411 196.331C349.107 195.72 348.956 194.951 348.956 194.023V187.091H350.632V193.909C350.632 194.705 350.855 195.339 351.3 195.812C351.75 196.286 352.322 196.523 353.018 196.523C353.435 196.523 353.859 196.416 354.29 196.203C354.725 195.99 355.09 195.663 355.384 195.223C355.682 194.783 355.831 194.222 355.831 193.54ZM368.304 189.534L366.799 189.96C366.704 189.709 366.564 189.465 366.38 189.229C366.2 188.987 365.953 188.788 365.641 188.632C365.328 188.476 364.928 188.398 364.441 188.398C363.773 188.398 363.217 188.552 362.772 188.859C362.331 189.162 362.111 189.548 362.111 190.017C362.111 190.434 362.263 190.763 362.566 191.004C362.869 191.246 363.342 191.447 363.986 191.608L365.605 192.006C366.581 192.242 367.308 192.605 367.786 193.092C368.264 193.575 368.503 194.198 368.503 194.96C368.503 195.585 368.323 196.144 367.963 196.636C367.608 197.129 367.111 197.517 366.472 197.801C365.833 198.085 365.089 198.227 364.242 198.227C363.129 198.227 362.208 197.986 361.479 197.503C360.75 197.02 360.288 196.314 360.094 195.386L361.685 194.989C361.837 195.576 362.123 196.016 362.544 196.31C362.971 196.603 363.527 196.75 364.213 196.75C364.995 196.75 365.615 196.584 366.074 196.253C366.538 195.917 366.77 195.514 366.77 195.045C366.77 194.667 366.638 194.349 366.373 194.094C366.107 193.833 365.7 193.639 365.151 193.511L363.333 193.085C362.334 192.848 361.6 192.482 361.131 191.984C360.667 191.482 360.435 190.855 360.435 190.102C360.435 189.487 360.608 188.942 360.953 188.469C361.304 187.995 361.78 187.624 362.381 187.354C362.987 187.084 363.674 186.949 364.441 186.949C365.52 186.949 366.368 187.186 366.983 187.659C367.604 188.133 368.044 188.758 368.304 189.534ZM379.862 198.256C379.17 198.256 378.543 198.125 377.979 197.865C377.416 197.6 376.969 197.219 376.637 196.722C376.306 196.22 376.14 195.614 376.14 194.903C376.14 194.278 376.263 193.772 376.509 193.384C376.755 192.991 377.085 192.683 377.496 192.46C377.908 192.238 378.363 192.072 378.86 191.963C379.362 191.849 379.866 191.759 380.373 191.693C381.036 191.608 381.573 191.544 381.985 191.501C382.402 191.454 382.705 191.376 382.894 191.267C383.088 191.158 383.185 190.969 383.185 190.699V190.642C383.185 189.941 382.994 189.397 382.61 189.009C382.231 188.62 381.656 188.426 380.884 188.426C380.084 188.426 379.457 188.601 379.002 188.952C378.548 189.302 378.228 189.676 378.043 190.074L376.452 189.506C376.737 188.843 377.115 188.327 377.589 187.957C378.067 187.583 378.588 187.323 379.151 187.176C379.719 187.025 380.278 186.949 380.827 186.949C381.178 186.949 381.58 186.991 382.035 187.077C382.494 187.157 382.937 187.325 383.363 187.581C383.794 187.837 384.151 188.223 384.435 188.739C384.719 189.255 384.862 189.946 384.862 190.812V198H383.185V196.523H383.1C382.987 196.759 382.797 197.013 382.532 197.283C382.267 197.553 381.914 197.782 381.474 197.972C381.033 198.161 380.496 198.256 379.862 198.256ZM380.117 196.75C380.78 196.75 381.339 196.62 381.793 196.359C382.253 196.099 382.598 195.763 382.83 195.351C383.067 194.939 383.185 194.506 383.185 194.051V192.517C383.114 192.602 382.958 192.68 382.717 192.751C382.48 192.818 382.205 192.877 381.893 192.929C381.585 192.976 381.284 193.019 380.991 193.057C380.702 193.09 380.468 193.118 380.288 193.142C379.852 193.199 379.445 193.291 379.066 193.419C378.692 193.542 378.389 193.729 378.157 193.98C377.93 194.226 377.816 194.562 377.816 194.989C377.816 195.571 378.031 196.011 378.462 196.31C378.898 196.603 379.45 196.75 380.117 196.75ZM389.597 183.455V198H387.921V183.455H389.597ZM397.07 202.318C396.261 202.318 395.565 202.214 394.982 202.006C394.4 201.802 393.915 201.532 393.526 201.196C393.143 200.865 392.837 200.509 392.61 200.131L393.945 199.193C394.097 199.392 394.289 199.619 394.521 199.875C394.753 200.135 395.07 200.36 395.472 200.55C395.879 200.744 396.412 200.841 397.07 200.841C397.951 200.841 398.678 200.628 399.251 200.202C399.824 199.776 400.11 199.108 400.11 198.199V195.983H399.968C399.845 196.182 399.67 196.428 399.442 196.722C399.22 197.01 398.898 197.268 398.477 197.496C398.06 197.718 397.496 197.83 396.786 197.83C395.906 197.83 395.115 197.621 394.414 197.205C393.718 196.788 393.166 196.182 392.759 195.386C392.357 194.591 392.156 193.625 392.156 192.489C392.156 191.371 392.352 190.398 392.745 189.57C393.138 188.736 393.685 188.092 394.386 187.638C395.086 187.179 395.896 186.949 396.815 186.949C397.525 186.949 398.088 187.067 398.505 187.304C398.926 187.536 399.248 187.801 399.471 188.099C399.698 188.393 399.873 188.634 399.996 188.824H400.167V187.091H401.786V198.312C401.786 199.25 401.573 200.012 401.147 200.599C400.726 201.191 400.157 201.625 399.442 201.899C398.732 202.179 397.942 202.318 397.07 202.318ZM397.013 196.324C397.686 196.324 398.254 196.17 398.718 195.862C399.182 195.554 399.535 195.112 399.776 194.534C400.018 193.956 400.138 193.265 400.138 192.46C400.138 191.674 400.02 190.981 399.783 190.379C399.547 189.778 399.196 189.307 398.732 188.966C398.268 188.625 397.695 188.455 397.013 188.455C396.303 188.455 395.711 188.634 395.238 188.994C394.769 189.354 394.416 189.837 394.18 190.443C393.948 191.049 393.832 191.722 393.832 192.46C393.832 193.218 393.95 193.888 394.187 194.47C394.428 195.048 394.783 195.502 395.252 195.834C395.726 196.161 396.313 196.324 397.013 196.324ZM409.286 198.227C408.301 198.227 407.437 197.993 406.694 197.524C405.955 197.055 405.378 196.4 404.961 195.557C404.549 194.714 404.343 193.729 404.343 192.602C404.343 191.466 404.549 190.474 404.961 189.626C405.378 188.779 405.955 188.121 406.694 187.652C407.437 187.183 408.301 186.949 409.286 186.949C410.271 186.949 411.133 187.183 411.871 187.652C412.615 188.121 413.192 188.779 413.604 189.626C414.021 190.474 414.229 191.466 414.229 192.602C414.229 193.729 414.021 194.714 413.604 195.557C413.192 196.4 412.615 197.055 411.871 197.524C411.133 197.993 410.271 198.227 409.286 198.227ZM409.286 196.722C410.034 196.722 410.65 196.53 411.133 196.146C411.616 195.763 411.973 195.259 412.205 194.634C412.437 194.009 412.553 193.331 412.553 192.602C412.553 191.873 412.437 191.194 412.205 190.564C411.973 189.934 411.616 189.425 411.133 189.037C410.65 188.649 410.034 188.455 409.286 188.455C408.538 188.455 407.923 188.649 407.44 189.037C406.957 189.425 406.599 189.934 406.367 190.564C406.135 191.194 406.019 191.873 406.019 192.602C406.019 193.331 406.135 194.009 406.367 194.634C406.599 195.259 406.957 195.763 407.44 196.146C407.923 196.53 408.538 196.722 409.286 196.722ZM416.788 198V187.091H418.407V188.739H418.521C418.72 188.199 419.08 187.761 419.6 187.425C420.121 187.089 420.708 186.92 421.362 186.92C421.485 186.92 421.639 186.923 421.824 186.928C422.008 186.932 422.148 186.939 422.243 186.949V188.653C422.186 188.639 422.056 188.618 421.852 188.589C421.653 188.556 421.442 188.54 421.22 188.54C420.69 188.54 420.216 188.651 419.799 188.874C419.387 189.091 419.061 189.394 418.819 189.783C418.583 190.166 418.464 190.604 418.464 191.097V198H416.788ZM424.229 198V187.091H425.906V198H424.229ZM425.082 185.273C424.755 185.273 424.473 185.161 424.237 184.939C424.004 184.716 423.888 184.449 423.888 184.136C423.888 183.824 424.004 183.556 424.237 183.334C424.473 183.111 424.755 183 425.082 183C425.408 183 425.688 183.111 425.92 183.334C426.156 183.556 426.275 183.824 426.275 184.136C426.275 184.449 426.156 184.716 425.92 184.939C425.688 185.161 425.408 185.273 425.082 185.273ZM433.72 187.091V188.511H428.066V187.091H433.72ZM429.714 184.477H431.39V194.875C431.39 195.348 431.459 195.704 431.596 195.94C431.738 196.172 431.918 196.329 432.136 196.409C432.359 196.485 432.593 196.523 432.839 196.523C433.024 196.523 433.175 196.513 433.294 196.494C433.412 196.471 433.507 196.452 433.578 196.438L433.919 197.943C433.805 197.986 433.646 198.028 433.443 198.071C433.239 198.118 432.981 198.142 432.669 198.142C432.195 198.142 431.731 198.04 431.277 197.837C430.827 197.633 430.453 197.323 430.154 196.906C429.861 196.49 429.714 195.964 429.714 195.33V184.477ZM438.152 191.438V198H436.475V183.455H438.152V188.795H438.294C438.549 188.232 438.933 187.785 439.444 187.453C439.96 187.117 440.647 186.949 441.504 186.949C442.247 186.949 442.898 187.098 443.457 187.396C444.016 187.69 444.449 188.142 444.757 188.753C445.069 189.359 445.225 190.131 445.225 191.068V198H443.549V191.182C443.549 190.315 443.324 189.645 442.875 189.172C442.43 188.694 441.812 188.455 441.021 188.455C440.472 188.455 439.979 188.571 439.544 188.803C439.113 189.035 438.772 189.373 438.521 189.818C438.275 190.263 438.152 190.803 438.152 191.438ZM448.292 198V187.091H449.911V188.795H450.053C450.281 188.213 450.647 187.761 451.154 187.439C451.661 187.112 452.269 186.949 452.979 186.949C453.699 186.949 454.298 187.112 454.776 187.439C455.259 187.761 455.636 188.213 455.906 188.795H456.019C456.299 188.232 456.718 187.785 457.276 187.453C457.835 187.117 458.505 186.949 459.286 186.949C460.262 186.949 461.059 187.254 461.68 187.865C462.3 188.471 462.61 189.416 462.61 190.699V198H460.934V190.699C460.934 189.894 460.714 189.319 460.273 188.973C459.833 188.627 459.315 188.455 458.718 188.455C457.951 188.455 457.357 188.687 456.935 189.151C456.514 189.61 456.303 190.192 456.303 190.898V198H454.599V190.528C454.599 189.908 454.397 189.409 453.995 189.03C453.593 188.646 453.074 188.455 452.44 188.455C452.004 188.455 451.597 188.571 451.218 188.803C450.844 189.035 450.541 189.357 450.309 189.768C450.082 190.176 449.968 190.647 449.968 191.182V198H448.292Z" fill="black"/>
<path d="M318.358 483.455L322.676 495.699H322.847L327.165 483.455H329.011L323.67 498H321.852L316.511 483.455H318.358ZM333.805 500.614C333.152 500.614 332.567 500.505 332.051 500.287C331.54 500.069 331.133 499.768 330.83 499.385C330.531 499.001 330.377 498.559 330.368 498.057H331.93C331.945 498.44 332.129 498.748 332.484 498.98C332.839 499.217 333.28 499.335 333.805 499.335C334.359 499.335 334.814 499.207 335.169 498.952C335.529 498.696 335.709 498.369 335.709 497.972C335.709 497.574 335.517 497.247 335.134 496.991C334.755 496.736 334.246 496.608 333.607 496.608H332.896V495.472H333.607C334.132 495.472 334.57 495.353 334.92 495.116C335.276 494.88 335.453 494.562 335.453 494.165C335.453 493.795 335.304 493.49 335.006 493.249C334.707 493.007 334.317 492.886 333.834 492.886C333.351 492.886 332.934 493.005 332.584 493.241C332.238 493.478 332.058 493.795 332.044 494.193H330.567C330.576 493.691 330.725 493.251 331.014 492.872C331.308 492.493 331.698 492.197 332.186 491.984C332.679 491.771 333.228 491.665 333.834 491.665C334.449 491.665 334.991 491.769 335.46 491.977C335.929 492.186 336.296 492.472 336.561 492.837C336.826 493.201 336.959 493.616 336.959 494.08C336.959 494.591 336.784 495.01 336.433 495.337C336.083 495.663 335.652 495.869 335.141 495.955V496.011C335.837 496.111 336.369 496.35 336.739 496.729C337.113 497.107 337.3 497.56 337.3 498.085C337.3 498.568 337.151 498.999 336.852 499.378C336.554 499.761 336.142 500.062 335.616 500.28C335.091 500.502 334.487 500.614 333.805 500.614ZM344.333 493.091C344.333 491.659 344.519 490.343 344.89 489.142C345.265 487.937 345.799 486.83 346.493 485.818H347.674C347.402 486.193 347.146 486.655 346.907 487.205C346.672 487.75 346.466 488.35 346.288 489.006C346.11 489.657 345.97 490.331 345.868 491.028C345.769 491.725 345.72 492.413 345.72 493.091C345.72 493.992 345.807 494.907 345.981 495.835C346.155 496.763 346.39 497.625 346.686 498.42C346.981 499.216 347.311 499.864 347.674 500.364H346.493C345.799 499.352 345.265 498.246 344.89 497.045C344.519 495.841 344.333 494.523 344.333 493.091ZM353.011 498.182C352.193 498.182 351.488 497.989 350.897 497.602C350.306 497.216 349.852 496.684 349.534 496.006C349.216 495.328 349.056 494.553 349.056 493.682C349.056 492.795 349.219 492.013 349.545 491.335C349.875 490.653 350.333 490.121 350.92 489.739C351.511 489.352 352.2 489.159 352.988 489.159C353.602 489.159 354.155 489.273 354.647 489.5C355.14 489.727 355.543 490.045 355.858 490.455C356.172 490.864 356.367 491.341 356.443 491.886H355.102C355 491.489 354.772 491.136 354.42 490.83C354.072 490.519 353.602 490.364 353.011 490.364C352.488 490.364 352.03 490.5 351.636 490.773C351.246 491.042 350.941 491.422 350.721 491.915C350.505 492.403 350.397 492.977 350.397 493.636C350.397 494.311 350.503 494.898 350.716 495.398C350.931 495.898 351.234 496.286 351.625 496.562C352.019 496.839 352.481 496.977 353.011 496.977C353.359 496.977 353.676 496.917 353.96 496.795C354.244 496.674 354.484 496.5 354.681 496.273C354.878 496.045 355.019 495.773 355.102 495.455H356.443C356.367 495.97 356.18 496.434 355.88 496.847C355.585 497.256 355.193 497.581 354.704 497.824C354.219 498.062 353.655 498.182 353.011 498.182ZM358.403 498V489.273H359.699V490.591H359.789C359.949 490.159 360.236 489.809 360.653 489.54C361.07 489.271 361.539 489.136 362.062 489.136C362.161 489.136 362.284 489.138 362.431 489.142C362.579 489.146 362.691 489.152 362.767 489.159V490.523C362.721 490.511 362.617 490.494 362.454 490.472C362.295 490.445 362.127 490.432 361.949 490.432C361.524 490.432 361.145 490.521 360.812 490.699C360.483 490.873 360.221 491.116 360.028 491.426C359.839 491.733 359.744 492.083 359.744 492.477V498H358.403ZM366.924 498.205C366.371 498.205 365.869 498.1 365.419 497.892C364.968 497.68 364.61 497.375 364.345 496.977C364.08 496.576 363.947 496.091 363.947 495.523C363.947 495.023 364.046 494.617 364.243 494.307C364.44 493.992 364.703 493.746 365.032 493.568C365.362 493.39 365.725 493.258 366.123 493.17C366.525 493.08 366.928 493.008 367.333 492.955C367.864 492.886 368.294 492.835 368.623 492.801C368.957 492.763 369.199 492.701 369.35 492.614C369.506 492.527 369.583 492.375 369.583 492.159V492.114C369.583 491.553 369.43 491.117 369.123 490.807C368.82 490.496 368.36 490.341 367.743 490.341C367.102 490.341 366.6 490.481 366.237 490.761C365.873 491.042 365.618 491.341 365.47 491.659L364.197 491.205C364.424 490.674 364.727 490.261 365.106 489.966C365.489 489.667 365.905 489.458 366.356 489.341C366.811 489.22 367.258 489.159 367.697 489.159C367.977 489.159 368.299 489.193 368.663 489.261C369.03 489.326 369.385 489.46 369.725 489.665C370.07 489.869 370.356 490.178 370.583 490.591C370.811 491.004 370.924 491.557 370.924 492.25V498H369.583V496.818H369.515C369.424 497.008 369.273 497.21 369.061 497.426C368.849 497.642 368.566 497.826 368.214 497.977C367.862 498.129 367.432 498.205 366.924 498.205ZM367.129 497C367.659 497 368.106 496.896 368.47 496.688C368.837 496.479 369.114 496.21 369.299 495.881C369.489 495.551 369.583 495.205 369.583 494.841V493.614C369.527 493.682 369.402 493.744 369.208 493.801C369.019 493.854 368.799 493.902 368.549 493.943C368.303 493.981 368.063 494.015 367.828 494.045C367.597 494.072 367.409 494.095 367.265 494.114C366.917 494.159 366.591 494.233 366.288 494.335C365.989 494.434 365.746 494.583 365.561 494.784C365.379 494.981 365.288 495.25 365.288 495.591C365.288 496.057 365.46 496.409 365.805 496.648C366.154 496.883 366.595 497 367.129 497ZM379.554 491.227L378.349 491.568C378.273 491.367 378.162 491.172 378.014 490.983C377.87 490.79 377.673 490.631 377.423 490.506C377.173 490.381 376.853 490.318 376.463 490.318C375.929 490.318 375.484 490.441 375.127 490.688C374.775 490.93 374.599 491.239 374.599 491.614C374.599 491.947 374.72 492.21 374.963 492.403C375.205 492.597 375.584 492.758 376.099 492.886L377.395 493.205C378.175 493.394 378.756 493.684 379.139 494.074C379.521 494.46 379.713 494.958 379.713 495.568C379.713 496.068 379.569 496.515 379.281 496.909C378.997 497.303 378.599 497.614 378.088 497.841C377.576 498.068 376.982 498.182 376.304 498.182C375.413 498.182 374.677 497.989 374.093 497.602C373.51 497.216 373.141 496.652 372.985 495.909L374.258 495.591C374.379 496.061 374.609 496.413 374.946 496.648C375.287 496.883 375.732 497 376.281 497C376.906 497 377.402 496.867 377.77 496.602C378.141 496.333 378.326 496.011 378.326 495.636C378.326 495.333 378.22 495.08 378.008 494.875C377.796 494.667 377.47 494.511 377.031 494.409L375.576 494.068C374.777 493.879 374.19 493.585 373.815 493.188C373.444 492.786 373.258 492.284 373.258 491.682C373.258 491.189 373.396 490.754 373.673 490.375C373.953 489.996 374.334 489.699 374.815 489.483C375.3 489.267 375.849 489.159 376.463 489.159C377.326 489.159 378.004 489.348 378.497 489.727C378.993 490.106 379.345 490.606 379.554 491.227ZM383.072 492.75V498H381.731V486.364H383.072V490.636H383.186C383.39 490.186 383.697 489.828 384.106 489.562C384.519 489.294 385.068 489.159 385.754 489.159C386.349 489.159 386.869 489.278 387.316 489.517C387.763 489.752 388.11 490.114 388.356 490.602C388.606 491.087 388.731 491.705 388.731 492.455V498H387.39V492.545C387.39 491.852 387.21 491.316 386.85 490.938C386.494 490.555 386 490.364 385.368 490.364C384.928 490.364 384.534 490.456 384.186 490.642C383.841 490.828 383.568 491.098 383.368 491.455C383.171 491.811 383.072 492.242 383.072 492.75ZM394.843 498.182C394.002 498.182 393.277 497.996 392.667 497.625C392.061 497.25 391.593 496.727 391.264 496.057C390.938 495.383 390.775 494.598 390.775 493.705C390.775 492.811 390.938 492.023 391.264 491.341C391.593 490.655 392.052 490.121 392.639 489.739C393.23 489.352 393.919 489.159 394.707 489.159C395.162 489.159 395.61 489.235 396.054 489.386C396.497 489.538 396.9 489.784 397.264 490.125C397.627 490.462 397.917 490.909 398.133 491.466C398.349 492.023 398.457 492.708 398.457 493.523V494.091H391.73V492.932H397.093C397.093 492.439 396.995 492 396.798 491.614C396.605 491.227 396.328 490.922 395.968 490.699C395.612 490.475 395.192 490.364 394.707 490.364C394.173 490.364 393.711 490.496 393.321 490.761C392.934 491.023 392.637 491.364 392.429 491.784C392.22 492.205 392.116 492.655 392.116 493.136V493.909C392.116 494.568 392.23 495.127 392.457 495.585C392.688 496.04 393.008 496.386 393.417 496.625C393.826 496.86 394.302 496.977 394.843 496.977C395.196 496.977 395.514 496.928 395.798 496.83C396.086 496.727 396.334 496.576 396.542 496.375C396.751 496.17 396.912 495.917 397.025 495.614L398.321 495.977C398.184 496.417 397.955 496.803 397.633 497.136C397.311 497.466 396.913 497.723 396.44 497.909C395.967 498.091 395.434 498.182 394.843 498.182ZM406.679 491.227L405.474 491.568C405.398 491.367 405.287 491.172 405.139 490.983C404.995 490.79 404.798 490.631 404.548 490.506C404.298 490.381 403.978 490.318 403.588 490.318C403.054 490.318 402.609 490.441 402.252 490.688C401.9 490.93 401.724 491.239 401.724 491.614C401.724 491.947 401.845 492.21 402.088 492.403C402.33 492.597 402.709 492.758 403.224 492.886L404.52 493.205C405.3 493.394 405.881 493.684 406.264 494.074C406.646 494.46 406.838 494.958 406.838 495.568C406.838 496.068 406.694 496.515 406.406 496.909C406.122 497.303 405.724 497.614 405.213 497.841C404.701 498.068 404.107 498.182 403.429 498.182C402.538 498.182 401.802 497.989 401.218 497.602C400.635 497.216 400.266 496.652 400.11 495.909L401.383 495.591C401.504 496.061 401.734 496.413 402.071 496.648C402.412 496.883 402.857 497 403.406 497C404.031 497 404.527 496.867 404.895 496.602C405.266 496.333 405.451 496.011 405.451 495.636C405.451 495.333 405.345 495.08 405.133 494.875C404.921 494.667 404.595 494.511 404.156 494.409L402.701 494.068C401.902 493.879 401.315 493.585 400.94 493.188C400.569 492.786 400.383 492.284 400.383 491.682C400.383 491.189 400.521 490.754 400.798 490.375C401.078 489.996 401.459 489.699 401.94 489.483C402.425 489.267 402.974 489.159 403.588 489.159C404.451 489.159 405.129 489.348 405.622 489.727C406.118 490.106 406.47 490.606 406.679 491.227ZM411.72 493.091C411.72 494.523 411.532 495.841 411.157 497.045C410.786 498.246 410.254 499.352 409.561 500.364H408.379C408.652 499.989 408.905 499.527 409.14 498.977C409.379 498.432 409.587 497.833 409.765 497.182C409.943 496.527 410.082 495.85 410.18 495.153C410.282 494.453 410.333 493.765 410.333 493.091C410.333 492.189 410.246 491.275 410.072 490.347C409.898 489.419 409.663 488.557 409.368 487.761C409.072 486.966 408.743 486.318 408.379 485.818H409.561C410.254 486.83 410.786 487.937 411.157 489.142C411.532 490.343 411.72 491.659 411.72 493.091Z" fill="black"/>
<path d="M661.358 44.4545L665.676 56.6989H665.847L670.165 44.4545H672.011L666.67 59H664.852L659.511 44.4545H661.358ZM673.51 61.5V60.392L676.834 57.4375C677.165 57.1439 677.442 56.8812 677.665 56.6491C677.887 56.4171 678.055 56.1922 678.169 55.9744C678.283 55.7566 678.339 55.5246 678.339 55.2784C678.339 54.8523 678.176 54.5137 677.849 54.2628C677.523 54.0118 677.118 53.8864 676.635 53.8864C676.124 53.8864 675.712 54.0237 675.399 54.2983C675.087 54.5682 674.93 54.9233 674.93 55.3636H673.453C673.453 54.554 673.754 53.9029 674.355 53.4105C674.956 52.9134 675.726 52.6648 676.663 52.6648C677.288 52.6648 677.838 52.7784 678.311 53.0057C678.785 53.2282 679.154 53.536 679.419 53.929C679.684 54.3172 679.817 54.7576 679.817 55.25C679.817 55.6383 679.739 55.9981 679.582 56.3295C679.426 56.661 679.182 57.0043 678.851 57.3594C678.519 57.7145 678.093 58.1193 677.572 58.5739L675.726 60.1932V60.25H680.072V61.5H673.51Z" fill="black"/>
<path d="M104.455 152.091L100.42 163H98.7159L94.6818 152.091H96.5L99.5114 160.784H99.625L102.636 152.091H104.455ZM108.244 165.5V158.327H108.173L105.928 159.818V158.312L108.244 156.778H109.721V165.5H108.244ZM113.618 155.983V154.449H122.368V155.983H113.618ZM113.618 160.188V158.653H122.368V160.188H113.618ZM126.12 167.091V152.091H127.739V153.824H127.938C128.061 153.634 128.232 153.393 128.45 153.099C128.672 152.801 128.989 152.536 129.401 152.304C129.818 152.067 130.381 151.949 131.092 151.949C132.01 151.949 132.82 152.179 133.521 152.638C134.221 153.097 134.768 153.748 135.161 154.591C135.554 155.434 135.751 156.428 135.751 157.574C135.751 158.729 135.554 159.731 135.161 160.578C134.768 161.421 134.224 162.074 133.528 162.538C132.832 162.998 132.029 163.227 131.12 163.227C130.419 163.227 129.858 163.111 129.437 162.879C129.015 162.643 128.691 162.375 128.464 162.077C128.237 161.774 128.061 161.523 127.938 161.324H127.796V167.091H126.12ZM127.768 157.545C127.768 158.369 127.888 159.096 128.13 159.726C128.371 160.351 128.724 160.841 129.188 161.196C129.652 161.546 130.22 161.722 130.893 161.722C131.594 161.722 132.178 161.537 132.647 161.168C133.121 160.794 133.476 160.292 133.712 159.662C133.954 159.027 134.075 158.322 134.075 157.545C134.075 156.778 133.956 156.087 133.719 155.472C133.487 154.851 133.135 154.361 132.661 154.001C132.192 153.637 131.603 153.455 130.893 153.455C130.211 153.455 129.638 153.627 129.174 153.973C128.71 154.314 128.36 154.792 128.123 155.408C127.886 156.018 127.768 156.731 127.768 157.545ZM138.308 163V152.091H139.927V153.739H140.04C140.239 153.199 140.599 152.761 141.12 152.425C141.641 152.089 142.228 151.92 142.881 151.92C143.004 151.92 143.158 151.923 143.343 151.928C143.528 151.932 143.667 151.939 143.762 151.949V153.653C143.705 153.639 143.575 153.618 143.371 153.589C143.173 153.556 142.962 153.54 142.739 153.54C142.209 153.54 141.736 153.651 141.319 153.874C140.907 154.091 140.58 154.394 140.339 154.783C140.102 155.166 139.984 155.604 139.984 156.097V163H138.308ZM149.849 163.227C148.864 163.227 148 162.993 147.256 162.524C146.518 162.055 145.94 161.4 145.523 160.557C145.112 159.714 144.906 158.729 144.906 157.602C144.906 156.466 145.112 155.474 145.523 154.626C145.94 153.779 146.518 153.121 147.256 152.652C148 152.183 148.864 151.949 149.849 151.949C150.834 151.949 151.695 152.183 152.434 152.652C153.177 153.121 153.755 153.779 154.167 154.626C154.584 155.474 154.792 156.466 154.792 157.602C154.792 158.729 154.584 159.714 154.167 160.557C153.755 161.4 153.177 162.055 152.434 162.524C151.695 162.993 150.834 163.227 149.849 163.227ZM149.849 161.722C150.597 161.722 151.212 161.53 151.695 161.146C152.178 160.763 152.536 160.259 152.768 159.634C153 159.009 153.116 158.331 153.116 157.602C153.116 156.873 153 156.194 152.768 155.564C152.536 154.934 152.178 154.425 151.695 154.037C151.212 153.649 150.597 153.455 149.849 153.455C149.101 153.455 148.485 153.649 148.002 154.037C147.519 154.425 147.162 154.934 146.93 155.564C146.698 156.194 146.582 156.873 146.582 157.602C146.582 158.331 146.698 159.009 146.93 159.634C147.162 160.259 147.519 160.763 148.002 161.146C148.485 161.53 149.101 161.722 149.849 161.722ZM161.782 163.227C160.76 163.227 159.879 162.986 159.14 162.503C158.402 162.02 157.833 161.355 157.436 160.507C157.038 159.66 156.839 158.691 156.839 157.602C156.839 156.494 157.043 155.517 157.45 154.669C157.862 153.817 158.435 153.152 159.169 152.673C159.907 152.19 160.769 151.949 161.754 151.949C162.521 151.949 163.212 152.091 163.828 152.375C164.443 152.659 164.948 153.057 165.341 153.568C165.734 154.08 165.977 154.676 166.072 155.358H164.396C164.268 154.861 163.984 154.42 163.544 154.037C163.108 153.649 162.521 153.455 161.782 153.455C161.129 153.455 160.556 153.625 160.064 153.966C159.576 154.302 159.195 154.778 158.92 155.393C158.65 156.004 158.515 156.722 158.515 157.545C158.515 158.388 158.648 159.122 158.913 159.747C159.183 160.372 159.562 160.857 160.049 161.203C160.542 161.549 161.119 161.722 161.782 161.722C162.218 161.722 162.613 161.646 162.968 161.494C163.324 161.343 163.624 161.125 163.87 160.841C164.117 160.557 164.292 160.216 164.396 159.818H166.072C165.977 160.462 165.743 161.042 165.369 161.558C165 162.07 164.51 162.477 163.899 162.78C163.293 163.078 162.587 163.227 161.782 163.227ZM173.096 163.227C172.045 163.227 171.138 162.995 170.376 162.531C169.618 162.062 169.034 161.409 168.622 160.571C168.215 159.728 168.011 158.748 168.011 157.631C168.011 156.513 168.215 155.528 168.622 154.676C169.034 153.819 169.607 153.152 170.341 152.673C171.079 152.19 171.941 151.949 172.926 151.949C173.494 151.949 174.055 152.044 174.609 152.233C175.163 152.422 175.667 152.73 176.122 153.156C176.576 153.578 176.939 154.136 177.208 154.832C177.478 155.528 177.613 156.385 177.613 157.403V158.114H169.204V156.665H175.909C175.909 156.049 175.786 155.5 175.539 155.017C175.298 154.534 174.952 154.153 174.502 153.874C174.057 153.594 173.532 153.455 172.926 153.455C172.258 153.455 171.681 153.62 171.193 153.952C170.71 154.278 170.338 154.705 170.078 155.23C169.817 155.756 169.687 156.319 169.687 156.92V157.886C169.687 158.71 169.829 159.409 170.113 159.982C170.402 160.55 170.802 160.983 171.314 161.281C171.825 161.575 172.419 161.722 173.096 161.722C173.537 161.722 173.934 161.66 174.289 161.537C174.649 161.409 174.959 161.22 175.22 160.969C175.48 160.713 175.681 160.396 175.824 160.017L177.443 160.472C177.272 161.021 176.986 161.504 176.583 161.92C176.181 162.332 175.684 162.654 175.092 162.886C174.5 163.114 173.835 163.227 173.096 163.227ZM184.737 163.227C183.686 163.227 182.779 162.995 182.017 162.531C181.259 162.062 180.674 161.409 180.262 160.571C179.855 159.728 179.652 158.748 179.652 157.631C179.652 156.513 179.855 155.528 180.262 154.676C180.674 153.819 181.247 153.152 181.981 152.673C182.72 152.19 183.582 151.949 184.566 151.949C185.135 151.949 185.696 152.044 186.25 152.233C186.804 152.422 187.308 152.73 187.762 153.156C188.217 153.578 188.579 154.136 188.849 154.832C189.119 155.528 189.254 156.385 189.254 157.403V158.114H180.845V156.665H187.549C187.549 156.049 187.426 155.5 187.18 155.017C186.939 154.534 186.593 154.153 186.143 153.874C185.698 153.594 185.172 153.455 184.566 153.455C183.899 153.455 183.321 153.62 182.833 153.952C182.35 154.278 181.979 154.705 181.718 155.23C181.458 155.756 181.328 156.319 181.328 156.92V157.886C181.328 158.71 181.47 159.409 181.754 159.982C182.043 160.55 182.443 160.983 182.954 161.281C183.466 161.575 184.06 161.722 184.737 161.722C185.177 161.722 185.575 161.66 185.93 161.537C186.29 161.409 186.6 161.22 186.86 160.969C187.121 160.713 187.322 160.396 187.464 160.017L189.083 160.472C188.913 161.021 188.627 161.504 188.224 161.92C187.822 162.332 187.324 162.654 186.733 162.886C186.141 163.114 185.475 163.227 184.737 163.227ZM195.923 163.227C195.014 163.227 194.211 162.998 193.515 162.538C192.819 162.074 192.275 161.421 191.882 160.578C191.489 159.731 191.292 158.729 191.292 157.574C191.292 156.428 191.489 155.434 191.882 154.591C192.275 153.748 192.822 153.097 193.522 152.638C194.223 152.179 195.033 151.949 195.951 151.949C196.662 151.949 197.223 152.067 197.635 152.304C198.051 152.536 198.368 152.801 198.586 153.099C198.809 153.393 198.982 153.634 199.105 153.824H199.247V148.455H200.923V163H199.304V161.324H199.105C198.982 161.523 198.806 161.774 198.579 162.077C198.352 162.375 198.028 162.643 197.606 162.879C197.185 163.111 196.624 163.227 195.923 163.227ZM196.15 161.722C196.823 161.722 197.391 161.546 197.855 161.196C198.319 160.841 198.672 160.351 198.913 159.726C199.154 159.096 199.275 158.369 199.275 157.545C199.275 156.731 199.157 156.018 198.92 155.408C198.683 154.792 198.333 154.314 197.869 153.973C197.405 153.627 196.832 153.455 196.15 153.455C195.44 153.455 194.848 153.637 194.375 154.001C193.906 154.361 193.553 154.851 193.316 155.472C193.084 156.087 192.968 156.778 192.968 157.545C192.968 158.322 193.087 159.027 193.324 159.662C193.565 160.292 193.92 160.794 194.389 161.168C194.862 161.537 195.449 161.722 196.15 161.722Z" fill="black"/>
<path d="M554.455 152.091L550.42 163H548.716L544.682 152.091H546.5L549.511 160.784H549.625L552.636 152.091H554.455ZM556.127 165.5V164.392L559.451 161.438C559.782 161.144 560.059 160.881 560.282 160.649C560.504 160.417 560.673 160.192 560.786 159.974C560.9 159.757 560.957 159.525 560.957 159.278C560.957 158.852 560.793 158.514 560.467 158.263C560.14 158.012 559.735 157.886 559.252 157.886C558.741 157.886 558.329 158.024 558.016 158.298C557.704 158.568 557.548 158.923 557.548 159.364H556.07C556.07 158.554 556.371 157.903 556.972 157.411C557.574 156.913 558.343 156.665 559.281 156.665C559.906 156.665 560.455 156.778 560.928 157.006C561.402 157.228 561.771 157.536 562.036 157.929C562.301 158.317 562.434 158.758 562.434 159.25C562.434 159.638 562.356 159.998 562.2 160.33C562.043 160.661 561.799 161.004 561.468 161.359C561.137 161.714 560.71 162.119 560.19 162.574L558.343 164.193V164.25H562.69V165.5H556.127ZM565.767 155.983V154.449H574.517V155.983H565.767ZM565.767 160.188V158.653H574.517V160.188H565.767ZM578.268 167.091V152.091H579.888V153.824H580.087C580.21 153.634 580.38 153.393 580.598 153.099C580.821 152.801 581.138 152.536 581.55 152.304C581.966 152.067 582.53 151.949 583.24 151.949C584.159 151.949 584.968 152.179 585.669 152.638C586.37 153.097 586.917 153.748 587.31 154.591C587.703 155.434 587.899 156.428 587.899 157.574C587.899 158.729 587.703 159.731 587.31 160.578C586.917 161.421 586.372 162.074 585.676 162.538C584.98 162.998 584.178 163.227 583.268 163.227C582.568 163.227 582.007 163.111 581.585 162.879C581.164 162.643 580.839 162.375 580.612 162.077C580.385 161.774 580.21 161.523 580.087 161.324H579.945V167.091H578.268ZM579.916 157.545C579.916 158.369 580.037 159.096 580.278 159.726C580.52 160.351 580.873 160.841 581.337 161.196C581.801 161.546 582.369 161.722 583.041 161.722C583.742 161.722 584.327 161.537 584.795 161.168C585.269 160.794 585.624 160.292 585.861 159.662C586.102 159.027 586.223 158.322 586.223 157.545C586.223 156.778 586.105 156.087 585.868 155.472C585.636 154.851 585.283 154.361 584.81 154.001C584.341 153.637 583.751 153.455 583.041 153.455C582.359 153.455 581.786 153.627 581.322 153.973C580.858 154.314 580.508 154.792 580.271 155.408C580.035 156.018 579.916 156.731 579.916 157.545ZM590.456 163V152.091H592.075V153.739H592.189C592.388 153.199 592.748 152.761 593.268 152.425C593.789 152.089 594.376 151.92 595.03 151.92C595.153 151.92 595.307 151.923 595.491 151.928C595.676 151.932 595.816 151.939 595.911 151.949V153.653C595.854 153.639 595.723 153.618 595.52 153.589C595.321 153.556 595.11 153.54 594.888 153.54C594.357 153.54 593.884 153.651 593.467 153.874C593.055 154.091 592.729 154.394 592.487 154.783C592.25 155.166 592.132 155.604 592.132 156.097V163H590.456ZM601.997 163.227C601.012 163.227 600.148 162.993 599.405 162.524C598.666 162.055 598.089 161.4 597.672 160.557C597.26 159.714 597.054 158.729 597.054 157.602C597.054 156.466 597.26 155.474 597.672 154.626C598.089 153.779 598.666 153.121 599.405 152.652C600.148 152.183 601.012 151.949 601.997 151.949C602.982 151.949 603.844 152.183 604.582 152.652C605.326 153.121 605.903 153.779 606.315 154.626C606.732 155.474 606.94 156.466 606.94 157.602C606.94 158.729 606.732 159.714 606.315 160.557C605.903 161.4 605.326 162.055 604.582 162.524C603.844 162.993 602.982 163.227 601.997 163.227ZM601.997 161.722C602.745 161.722 603.361 161.53 603.844 161.146C604.327 160.763 604.684 160.259 604.916 159.634C605.148 159.009 605.264 158.331 605.264 157.602C605.264 156.873 605.148 156.194 604.916 155.564C604.684 154.934 604.327 154.425 603.844 154.037C603.361 153.649 602.745 153.455 601.997 153.455C601.249 153.455 600.634 153.649 600.151 154.037C599.668 154.425 599.31 154.934 599.078 155.564C598.846 156.194 598.73 156.873 598.73 157.602C598.73 158.331 598.846 159.009 599.078 159.634C599.31 160.259 599.668 160.763 600.151 161.146C600.634 161.53 601.249 161.722 601.997 161.722ZM613.931 163.227C612.908 163.227 612.027 162.986 611.289 162.503C610.55 162.02 609.982 161.355 609.584 160.507C609.186 159.66 608.988 158.691 608.988 157.602C608.988 156.494 609.191 155.517 609.598 154.669C610.01 153.817 610.583 153.152 611.317 152.673C612.056 152.19 612.917 151.949 613.902 151.949C614.669 151.949 615.361 152.091 615.976 152.375C616.592 152.659 617.096 153.057 617.489 153.568C617.882 154.08 618.126 154.676 618.221 155.358H616.544C616.417 154.861 616.132 154.42 615.692 154.037C615.257 153.649 614.669 153.455 613.931 153.455C613.277 153.455 612.704 153.625 612.212 153.966C611.724 154.302 611.343 154.778 611.069 155.393C610.799 156.004 610.664 156.722 610.664 157.545C610.664 158.388 610.796 159.122 611.061 159.747C611.331 160.372 611.71 160.857 612.198 161.203C612.69 161.549 613.268 161.722 613.931 161.722C614.366 161.722 614.762 161.646 615.117 161.494C615.472 161.343 615.773 161.125 616.019 160.841C616.265 160.557 616.44 160.216 616.544 159.818H618.221C618.126 160.462 617.891 161.042 617.517 161.558C617.148 162.07 616.658 162.477 616.047 162.78C615.441 163.078 614.736 163.227 613.931 163.227ZM625.245 163.227C624.194 163.227 623.287 162.995 622.525 162.531C621.767 162.062 621.182 161.409 620.77 160.571C620.363 159.728 620.159 158.748 620.159 157.631C620.159 156.513 620.363 155.528 620.77 154.676C621.182 153.819 621.755 153.152 622.489 152.673C623.228 152.19 624.089 151.949 625.074 151.949C625.642 151.949 626.203 152.044 626.757 152.233C627.311 152.422 627.816 152.73 628.27 153.156C628.725 153.578 629.087 154.136 629.357 154.832C629.627 155.528 629.762 156.385 629.762 157.403V158.114H621.353V156.665H628.057C628.057 156.049 627.934 155.5 627.688 155.017C627.446 154.534 627.101 154.153 626.651 153.874C626.206 153.594 625.68 153.455 625.074 153.455C624.407 153.455 623.829 153.62 623.341 153.952C622.858 154.278 622.487 154.705 622.226 155.23C621.966 155.756 621.836 156.319 621.836 156.92V157.886C621.836 158.71 621.978 159.409 622.262 159.982C622.551 160.55 622.951 160.983 623.462 161.281C623.973 161.575 624.568 161.722 625.245 161.722C625.685 161.722 626.083 161.66 626.438 161.537C626.798 161.409 627.108 161.22 627.368 160.969C627.629 160.713 627.83 160.396 627.972 160.017L629.591 160.472C629.421 161.021 629.134 161.504 628.732 161.92C628.329 162.332 627.832 162.654 627.24 162.886C626.649 163.114 625.983 163.227 625.245 163.227ZM636.885 163.227C635.834 163.227 634.927 162.995 634.165 162.531C633.408 162.062 632.823 161.409 632.411 160.571C632.004 159.728 631.8 158.748 631.8 157.631C631.8 156.513 632.004 155.528 632.411 154.676C632.823 153.819 633.396 153.152 634.13 152.673C634.868 152.19 635.73 151.949 636.715 151.949C637.283 151.949 637.844 152.044 638.398 152.233C638.952 152.422 639.456 152.73 639.911 153.156C640.365 153.578 640.728 154.136 640.998 154.832C641.267 155.528 641.402 156.385 641.402 157.403V158.114H632.993V156.665H639.698C639.698 156.049 639.575 155.5 639.328 155.017C639.087 154.534 638.741 154.153 638.292 153.874C637.846 153.594 637.321 153.455 636.715 153.455C636.047 153.455 635.47 153.62 634.982 153.952C634.499 154.278 634.127 154.705 633.867 155.23C633.606 155.756 633.476 156.319 633.476 156.92V157.886C633.476 158.71 633.618 159.409 633.902 159.982C634.191 160.55 634.591 160.983 635.103 161.281C635.614 161.575 636.208 161.722 636.885 161.722C637.326 161.722 637.723 161.66 638.078 161.537C638.438 161.409 638.748 161.22 639.009 160.969C639.269 160.713 639.471 160.396 639.613 160.017L641.232 160.472C641.061 161.021 640.775 161.504 640.373 161.92C639.97 162.332 639.473 162.654 638.881 162.886C638.289 163.114 637.624 163.227 636.885 163.227ZM648.071 163.227C647.162 163.227 646.36 162.998 645.664 162.538C644.968 162.074 644.423 161.421 644.03 160.578C643.637 159.731 643.441 158.729 643.441 157.574C643.441 156.428 643.637 155.434 644.03 154.591C644.423 153.748 644.97 153.097 645.671 152.638C646.372 152.179 647.181 151.949 648.1 151.949C648.81 151.949 649.371 152.067 649.783 152.304C650.2 152.536 650.517 152.801 650.735 153.099C650.957 153.393 651.13 153.634 651.253 153.824H651.395V148.455H653.071V163H651.452V161.324H651.253C651.13 161.523 650.955 161.774 650.728 162.077C650.5 162.375 650.176 162.643 649.755 162.879C649.333 163.111 648.772 163.227 648.071 163.227ZM648.299 161.722C648.971 161.722 649.539 161.546 650.003 161.196C650.467 160.841 650.82 160.351 651.061 159.726C651.303 159.096 651.424 158.369 651.424 157.545C651.424 156.731 651.305 156.018 651.069 155.408C650.832 154.792 650.481 154.314 650.017 153.973C649.553 153.627 648.98 153.455 648.299 153.455C647.588 153.455 646.997 153.637 646.523 154.001C646.054 154.361 645.702 154.851 645.465 155.472C645.233 156.087 645.117 156.778 645.117 157.545C645.117 158.322 645.235 159.027 645.472 159.662C645.713 160.292 646.069 160.794 646.537 161.168C647.011 161.537 647.598 161.722 648.299 161.722Z" fill="black"/>
<path d="M436.653 83.2273C435.744 83.2273 434.942 82.9976 434.246 82.5384C433.55 82.0743 433.005 81.4209 432.612 80.5781C432.219 79.7306 432.023 78.7292 432.023 77.5739C432.023 76.428 432.219 75.4337 432.612 74.5909C433.005 73.7481 433.552 73.0971 434.253 72.6378C434.954 72.1785 435.763 71.9489 436.682 71.9489C437.392 71.9489 437.953 72.0672 438.365 72.304C438.782 72.536 439.099 72.8011 439.317 73.0994C439.539 73.393 439.712 73.6345 439.835 73.8239H439.977V68.4545H441.653V83H440.034V81.3239H439.835C439.712 81.5227 439.537 81.7737 439.31 82.0767C439.082 82.375 438.758 82.6425 438.337 82.8793C437.915 83.1113 437.354 83.2273 436.653 83.2273ZM436.881 81.7216C437.553 81.7216 438.121 81.5464 438.585 81.196C439.049 80.8409 439.402 80.3509 439.643 79.7259C439.885 79.0961 440.006 78.3693 440.006 77.5455C440.006 76.7311 439.887 76.0185 439.651 75.4077C439.414 74.7921 439.063 74.3139 438.599 73.973C438.135 73.6274 437.563 73.4545 436.881 73.4545C436.17 73.4545 435.579 73.6368 435.105 74.0014C434.636 74.3613 434.284 74.8513 434.047 75.4716C433.815 76.0871 433.699 76.7784 433.699 77.5455C433.699 78.322 433.817 79.0275 434.054 79.6619C434.295 80.2917 434.651 80.7936 435.119 81.1676C435.593 81.5369 436.18 81.7216 436.881 81.7216ZM444.416 85.5V84.392L447.74 81.4375C448.071 81.1439 448.348 80.8812 448.571 80.6491C448.794 80.4171 448.962 80.1922 449.075 79.9744C449.189 79.7566 449.246 79.5246 449.246 79.2784C449.246 78.8523 449.082 78.5137 448.756 78.2628C448.429 78.0118 448.024 77.8864 447.541 77.8864C447.03 77.8864 446.618 78.0237 446.305 78.2983C445.993 78.5682 445.837 78.9233 445.837 79.3636H444.359C444.359 78.554 444.66 77.9029 445.261 77.4105C445.863 76.9134 446.632 76.6648 447.57 76.6648C448.195 76.6648 448.744 76.7784 449.217 77.0057C449.691 77.2282 450.06 77.536 450.325 77.929C450.59 78.3172 450.723 78.7576 450.723 79.25C450.723 79.6383 450.645 79.9981 450.489 80.3295C450.332 80.661 450.089 81.0043 449.757 81.3594C449.426 81.7145 449 82.1193 448.479 82.5739L446.632 84.1932V84.25H450.979V85.5H444.416ZM454.056 75.983V74.4489H462.806V75.983H454.056ZM454.056 80.1875V78.6534H462.806V80.1875H454.056ZM466.558 87.0909V72.0909H468.177V73.8239H468.376C468.499 73.6345 468.669 73.393 468.887 73.0994C469.11 72.8011 469.427 72.536 469.839 72.304C470.255 72.0672 470.819 71.9489 471.529 71.9489C472.448 71.9489 473.257 72.1785 473.958 72.6378C474.659 73.0971 475.206 73.7481 475.599 74.5909C475.992 75.4337 476.188 76.428 476.188 77.5739C476.188 78.7292 475.992 79.7306 475.599 80.5781C475.206 81.4209 474.661 82.0743 473.965 82.5384C473.269 82.9976 472.467 83.2273 471.558 83.2273C470.857 83.2273 470.296 83.1113 469.874 82.8793C469.453 82.6425 469.129 82.375 468.901 82.0767C468.674 81.7737 468.499 81.5227 468.376 81.3239H468.234V87.0909H466.558ZM468.205 77.5455C468.205 78.3693 468.326 79.0961 468.567 79.7259C468.809 80.3509 469.162 80.8409 469.626 81.196C470.09 81.5464 470.658 81.7216 471.33 81.7216C472.031 81.7216 472.616 81.5369 473.085 81.1676C473.558 80.7936 473.913 80.2917 474.15 79.6619C474.391 79.0275 474.512 78.322 474.512 77.5455C474.512 76.7784 474.394 76.0871 474.157 75.4716C473.925 74.8513 473.572 74.3613 473.099 74.0014C472.63 73.6368 472.04 73.4545 471.33 73.4545C470.648 73.4545 470.076 73.6274 469.612 73.973C469.147 74.3139 468.797 74.7921 468.56 75.4077C468.324 76.0185 468.205 76.7311 468.205 77.5455ZM478.745 83V72.0909H480.364V73.7386H480.478C480.677 73.1989 481.037 72.7609 481.558 72.4247C482.078 72.0885 482.665 71.9205 483.319 71.9205C483.442 71.9205 483.596 71.9228 483.781 71.9276C483.965 71.9323 484.105 71.9394 484.2 71.9489V73.6534C484.143 73.6392 484.013 73.6179 483.809 73.5895C483.61 73.5563 483.399 73.5398 483.177 73.5398C482.647 73.5398 482.173 73.651 481.756 73.8736C481.344 74.0914 481.018 74.3944 480.776 74.7827C480.54 75.1662 480.421 75.6042 480.421 76.0966V83H478.745ZM490.286 83.2273C489.301 83.2273 488.437 82.9929 487.694 82.5241C486.955 82.0554 486.378 81.3996 485.961 80.5568C485.549 79.714 485.343 78.7292 485.343 77.6023C485.343 76.4659 485.549 75.474 485.961 74.6264C486.378 73.7789 486.955 73.1207 487.694 72.652C488.437 72.1832 489.301 71.9489 490.286 71.9489C491.271 71.9489 492.133 72.1832 492.871 72.652C493.615 73.1207 494.192 73.7789 494.604 74.6264C495.021 75.474 495.229 76.4659 495.229 77.6023C495.229 78.7292 495.021 79.714 494.604 80.5568C494.192 81.3996 493.615 82.0554 492.871 82.5241C492.133 82.9929 491.271 83.2273 490.286 83.2273ZM490.286 81.7216C491.034 81.7216 491.65 81.5298 492.133 81.1463C492.616 80.7628 492.973 80.2585 493.205 79.6335C493.437 79.0085 493.553 78.3314 493.553 77.6023C493.553 76.8731 493.437 76.1937 493.205 75.5639C492.973 74.9342 492.616 74.4252 492.133 74.0369C491.65 73.6487 491.034 73.4545 490.286 73.4545C489.538 73.4545 488.923 73.6487 488.44 74.0369C487.957 74.4252 487.599 74.9342 487.367 75.5639C487.135 76.1937 487.019 76.8731 487.019 77.6023C487.019 78.3314 487.135 79.0085 487.367 79.6335C487.599 80.2585 487.957 80.7628 488.44 81.1463C488.923 81.5298 489.538 81.7216 490.286 81.7216ZM502.22 83.2273C501.197 83.2273 500.316 82.9858 499.578 82.5028C498.839 82.0199 498.271 81.3546 497.873 80.5071C497.475 79.6596 497.277 78.6913 497.277 77.6023C497.277 76.4943 497.48 75.5166 497.887 74.669C498.299 73.8168 498.872 73.1515 499.606 72.6733C500.345 72.1903 501.207 71.9489 502.191 71.9489C502.958 71.9489 503.65 72.0909 504.265 72.375C504.881 72.6591 505.385 73.0568 505.778 73.5682C506.171 74.0795 506.415 74.6761 506.51 75.358H504.833C504.706 74.8608 504.422 74.4205 503.981 74.0369C503.546 73.6487 502.958 73.4545 502.22 73.4545C501.566 73.4545 500.993 73.625 500.501 73.9659C500.013 74.3021 499.632 74.7779 499.358 75.3935C499.088 76.0043 498.953 76.7216 498.953 77.5455C498.953 78.3883 499.085 79.1222 499.35 79.7472C499.62 80.3722 499.999 80.8575 500.487 81.2031C500.979 81.5488 501.557 81.7216 502.22 81.7216C502.655 81.7216 503.051 81.6458 503.406 81.4943C503.761 81.3428 504.062 81.125 504.308 80.8409C504.554 80.5568 504.729 80.2159 504.833 79.8182H506.51C506.415 80.4621 506.181 81.0421 505.806 81.5582C505.437 82.0696 504.947 82.4768 504.336 82.7798C503.73 83.0781 503.025 83.2273 502.22 83.2273ZM513.534 83.2273C512.483 83.2273 511.576 82.9953 510.814 82.5312C510.056 82.0625 509.471 81.4091 509.059 80.571C508.652 79.7282 508.449 78.7481 508.449 77.6307C508.449 76.5133 508.652 75.5284 509.059 74.6761C509.471 73.8191 510.044 73.1515 510.778 72.6733C511.517 72.1903 512.378 71.9489 513.363 71.9489C513.931 71.9489 514.493 72.0436 515.047 72.233C515.6 72.4223 516.105 72.7301 516.559 73.1562C517.014 73.5777 517.376 74.1364 517.646 74.8324C517.916 75.5284 518.051 76.3854 518.051 77.4034V78.1136H509.642V76.6648H516.346C516.346 76.0492 516.223 75.5 515.977 75.017C515.735 74.5341 515.39 74.1529 514.94 73.8736C514.495 73.5942 513.969 73.4545 513.363 73.4545C512.696 73.4545 512.118 73.6203 511.63 73.9517C511.147 74.2784 510.776 74.7045 510.515 75.2301C510.255 75.7557 510.125 76.3191 510.125 76.9205V77.8864C510.125 78.7102 510.267 79.4086 510.551 79.9815C510.84 80.5497 511.24 80.983 511.751 81.2812C512.262 81.5748 512.857 81.7216 513.534 81.7216C513.974 81.7216 514.372 81.66 514.727 81.5369C515.087 81.4091 515.397 81.2197 515.657 80.9688C515.918 80.7131 516.119 80.3958 516.261 80.017L517.88 80.4716C517.71 81.0208 517.423 81.5038 517.021 81.9205C516.618 82.3324 516.121 82.6544 515.529 82.8864C514.938 83.1136 514.272 83.2273 513.534 83.2273ZM525.174 83.2273C524.123 83.2273 523.217 82.9953 522.454 82.5312C521.697 82.0625 521.112 81.4091 520.7 80.571C520.293 79.7282 520.089 78.7481 520.089 77.6307C520.089 76.5133 520.293 75.5284 520.7 74.6761C521.112 73.8191 521.685 73.1515 522.419 72.6733C523.157 72.1903 524.019 71.9489 525.004 71.9489C525.572 71.9489 526.133 72.0436 526.687 72.233C527.241 72.4223 527.745 72.7301 528.2 73.1562C528.654 73.5777 529.017 74.1364 529.287 74.8324C529.556 75.5284 529.691 76.3854 529.691 77.4034V78.1136H521.282V76.6648H527.987C527.987 76.0492 527.864 75.5 527.618 75.017C527.376 74.5341 527.03 74.1529 526.581 73.8736C526.136 73.5942 525.61 73.4545 525.004 73.4545C524.336 73.4545 523.759 73.6203 523.271 73.9517C522.788 74.2784 522.416 74.7045 522.156 75.2301C521.895 75.7557 521.765 76.3191 521.765 76.9205V77.8864C521.765 78.7102 521.907 79.4086 522.191 79.9815C522.48 80.5497 522.88 80.983 523.392 81.2812C523.903 81.5748 524.497 81.7216 525.174 81.7216C525.615 81.7216 526.012 81.66 526.368 81.5369C526.727 81.4091 527.038 81.2197 527.298 80.9688C527.558 80.7131 527.76 80.3958 527.902 80.017L529.521 80.4716C529.35 81.0208 529.064 81.5038 528.662 81.9205C528.259 82.3324 527.762 82.6544 527.17 82.8864C526.578 83.1136 525.913 83.2273 525.174 83.2273ZM536.36 83.2273C535.451 83.2273 534.649 82.9976 533.953 82.5384C533.257 82.0743 532.712 81.4209 532.319 80.5781C531.926 79.7306 531.73 78.7292 531.73 77.5739C531.73 76.428 531.926 75.4337 532.319 74.5909C532.712 73.7481 533.259 73.0971 533.96 72.6378C534.661 72.1785 535.47 71.9489 536.389 71.9489C537.099 71.9489 537.66 72.0672 538.072 72.304C538.489 72.536 538.806 72.8011 539.024 73.0994C539.246 73.393 539.419 73.6345 539.542 73.8239H539.684V68.4545H541.36V83H539.741V81.3239H539.542C539.419 81.5227 539.244 81.7737 539.017 82.0767C538.789 82.375 538.465 82.6425 538.044 82.8793C537.622 83.1113 537.061 83.2273 536.36 83.2273ZM536.588 81.7216C537.26 81.7216 537.828 81.5464 538.292 81.196C538.756 80.8409 539.109 80.3509 539.35 79.7259C539.592 79.0961 539.713 78.3693 539.713 77.5455C539.713 76.7311 539.594 76.0185 539.358 75.4077C539.121 74.7921 538.77 74.3139 538.306 73.973C537.842 73.6274 537.27 73.4545 536.588 73.4545C535.877 73.4545 535.286 73.6368 534.812 74.0014C534.343 74.3613 533.991 74.8513 533.754 75.4716C533.522 76.0871 533.406 76.7784 533.406 77.5455C533.406 78.322 533.524 79.0275 533.761 79.6619C534.002 80.2917 534.358 80.7936 534.826 81.1676C535.3 81.5369 535.887 81.7216 536.588 81.7216Z" fill="black"/>
<path d="M177.653 83.2273C176.744 83.2273 175.942 82.9976 175.246 82.5384C174.55 82.0743 174.005 81.4209 173.612 80.5781C173.219 79.7306 173.023 78.7292 173.023 77.5739C173.023 76.428 173.219 75.4337 173.612 74.5909C174.005 73.7481 174.552 73.0971 175.253 72.6378C175.954 72.1785 176.763 71.9489 177.682 71.9489C178.392 71.9489 178.953 72.0672 179.365 72.304C179.782 72.536 180.099 72.8011 180.317 73.0994C180.539 73.393 180.712 73.6345 180.835 73.8239H180.977V68.4545H182.653V83H181.034V81.3239H180.835C180.712 81.5227 180.537 81.7737 180.31 82.0767C180.082 82.375 179.758 82.6425 179.337 82.8793C178.915 83.1113 178.354 83.2273 177.653 83.2273ZM177.881 81.7216C178.553 81.7216 179.121 81.5464 179.585 81.196C180.049 80.8409 180.402 80.3509 180.643 79.7259C180.885 79.0961 181.006 78.3693 181.006 77.5455C181.006 76.7311 180.887 76.0185 180.651 75.4077C180.414 74.7921 180.063 74.3139 179.599 73.973C179.135 73.6274 178.563 73.4545 177.881 73.4545C177.17 73.4545 176.579 73.6368 176.105 74.0014C175.636 74.3613 175.284 74.8513 175.047 75.4716C174.815 76.0871 174.699 76.7784 174.699 77.5455C174.699 78.322 174.817 79.0275 175.054 79.6619C175.295 80.2917 175.651 80.7936 176.119 81.1676C176.593 81.5369 177.18 81.7216 177.881 81.7216ZM187.533 85.5V78.3267H187.462L185.217 79.8182V78.3125L187.533 76.7784H189.01V85.5H187.533ZM192.907 75.983V74.4489H201.657V75.983H192.907ZM192.907 80.1875V78.6534H201.657V80.1875H192.907ZM205.409 87.0909V72.0909H207.028V73.8239H207.227C207.35 73.6345 207.521 73.393 207.739 73.0994C207.961 72.8011 208.278 72.536 208.69 72.304C209.107 72.0672 209.67 71.9489 210.381 71.9489C211.299 71.9489 212.109 72.1785 212.81 72.6378C213.51 73.0971 214.057 73.7481 214.45 74.5909C214.843 75.4337 215.04 76.428 215.04 77.5739C215.04 78.7292 214.843 79.7306 214.45 80.5781C214.057 81.4209 213.513 82.0743 212.817 82.5384C212.121 82.9976 211.318 83.2273 210.409 83.2273C209.708 83.2273 209.147 83.1113 208.726 82.8793C208.304 82.6425 207.98 82.375 207.753 82.0767C207.526 81.7737 207.35 81.5227 207.227 81.3239H207.085V87.0909H205.409ZM207.057 77.5455C207.057 78.3693 207.178 79.0961 207.419 79.7259C207.661 80.3509 208.013 80.8409 208.477 81.196C208.941 81.5464 209.509 81.7216 210.182 81.7216C210.883 81.7216 211.467 81.5369 211.936 81.1676C212.41 80.7936 212.765 80.2917 213.001 79.6619C213.243 79.0275 213.364 78.322 213.364 77.5455C213.364 76.7784 213.245 76.0871 213.009 75.4716C212.777 74.8513 212.424 74.3613 211.95 74.0014C211.482 73.6368 210.892 73.4545 210.182 73.4545C209.5 73.4545 208.927 73.6274 208.463 73.973C207.999 74.3139 207.649 74.7921 207.412 75.4077C207.175 76.0185 207.057 76.7311 207.057 77.5455ZM217.597 83V72.0909H219.216V73.7386H219.33C219.528 73.1989 219.888 72.7609 220.409 72.4247C220.93 72.0885 221.517 71.9205 222.17 71.9205C222.294 71.9205 222.447 71.9228 222.632 71.9276C222.817 71.9323 222.956 71.9394 223.051 71.9489V73.6534C222.994 73.6392 222.864 73.6179 222.661 73.5895C222.462 73.5563 222.251 73.5398 222.028 73.5398C221.498 73.5398 221.025 73.651 220.608 73.8736C220.196 74.0914 219.869 74.3944 219.628 74.7827C219.391 75.1662 219.273 75.6042 219.273 76.0966V83H217.597ZM229.138 83.2273C228.153 83.2273 227.289 82.9929 226.545 82.5241C225.807 82.0554 225.229 81.3996 224.812 80.5568C224.401 79.714 224.195 78.7292 224.195 77.6023C224.195 76.4659 224.401 75.474 224.812 74.6264C225.229 73.7789 225.807 73.1207 226.545 72.652C227.289 72.1832 228.153 71.9489 229.138 71.9489C230.123 71.9489 230.984 72.1832 231.723 72.652C232.466 73.1207 233.044 73.7789 233.456 74.6264C233.873 75.474 234.081 76.4659 234.081 77.6023C234.081 78.7292 233.873 79.714 233.456 80.5568C233.044 81.3996 232.466 82.0554 231.723 82.5241C230.984 82.9929 230.123 83.2273 229.138 83.2273ZM229.138 81.7216C229.886 81.7216 230.501 81.5298 230.984 81.1463C231.467 80.7628 231.825 80.2585 232.057 79.6335C232.289 79.0085 232.405 78.3314 232.405 77.6023C232.405 76.8731 232.289 76.1937 232.057 75.5639C231.825 74.9342 231.467 74.4252 230.984 74.0369C230.501 73.6487 229.886 73.4545 229.138 73.4545C228.39 73.4545 227.774 73.6487 227.291 74.0369C226.808 74.4252 226.451 74.9342 226.219 75.5639C225.987 76.1937 225.871 76.8731 225.871 77.6023C225.871 78.3314 225.987 79.0085 226.219 79.6335C226.451 80.2585 226.808 80.7628 227.291 81.1463C227.774 81.5298 228.39 81.7216 229.138 81.7216ZM241.071 83.2273C240.049 83.2273 239.168 82.9858 238.429 82.5028C237.691 82.0199 237.123 81.3546 236.725 80.5071C236.327 79.6596 236.128 78.6913 236.128 77.6023C236.128 76.4943 236.332 75.5166 236.739 74.669C237.151 73.8168 237.724 73.1515 238.458 72.6733C239.196 72.1903 240.058 71.9489 241.043 71.9489C241.81 71.9489 242.501 72.0909 243.117 72.375C243.732 72.6591 244.237 73.0568 244.63 73.5682C245.023 74.0795 245.266 74.6761 245.361 75.358H243.685C243.557 74.8608 243.273 74.4205 242.833 74.0369C242.397 73.6487 241.81 73.4545 241.071 73.4545C240.418 73.4545 239.845 73.625 239.353 73.9659C238.865 74.3021 238.484 74.7779 238.209 75.3935C237.939 76.0043 237.804 76.7216 237.804 77.5455C237.804 78.3883 237.937 79.1222 238.202 79.7472C238.472 80.3722 238.851 80.8575 239.338 81.2031C239.831 81.5488 240.408 81.7216 241.071 81.7216C241.507 81.7216 241.902 81.6458 242.257 81.4943C242.613 81.3428 242.913 81.125 243.159 80.8409C243.406 80.5568 243.581 80.2159 243.685 79.8182H245.361C245.266 80.4621 245.032 81.0421 244.658 81.5582C244.289 82.0696 243.799 82.4768 243.188 82.7798C242.582 83.0781 241.876 83.2273 241.071 83.2273ZM252.385 83.2273C251.334 83.2273 250.427 82.9953 249.665 82.5312C248.908 82.0625 248.323 81.4091 247.911 80.571C247.504 79.7282 247.3 78.7481 247.3 77.6307C247.3 76.5133 247.504 75.5284 247.911 74.6761C248.323 73.8191 248.896 73.1515 249.63 72.6733C250.368 72.1903 251.23 71.9489 252.215 71.9489C252.783 71.9489 253.344 72.0436 253.898 72.233C254.452 72.4223 254.956 72.7301 255.411 73.1562C255.865 73.5777 256.228 74.1364 256.498 74.8324C256.767 75.5284 256.902 76.3854 256.902 77.4034V78.1136H248.493V76.6648H255.198C255.198 76.0492 255.075 75.5 254.828 75.017C254.587 74.5341 254.241 74.1529 253.792 73.8736C253.346 73.5942 252.821 73.4545 252.215 73.4545C251.547 73.4545 250.97 73.6203 250.482 73.9517C249.999 74.2784 249.627 74.7045 249.367 75.2301C249.106 75.7557 248.976 76.3191 248.976 76.9205V77.8864C248.976 78.7102 249.118 79.4086 249.402 79.9815C249.691 80.5497 250.091 80.983 250.603 81.2812C251.114 81.5748 251.708 81.7216 252.385 81.7216C252.826 81.7216 253.223 81.66 253.578 81.5369C253.938 81.4091 254.248 81.2197 254.509 80.9688C254.769 80.7131 254.971 80.3958 255.113 80.017L256.732 80.4716C256.561 81.0208 256.275 81.5038 255.873 81.9205C255.47 82.3324 254.973 82.6544 254.381 82.8864C253.789 83.1136 253.124 83.2273 252.385 83.2273ZM264.026 83.2273C262.975 83.2273 262.068 82.9953 261.306 82.5312C260.548 82.0625 259.963 81.4091 259.551 80.571C259.144 79.7282 258.941 78.7481 258.941 77.6307C258.941 76.5133 259.144 75.5284 259.551 74.6761C259.963 73.8191 260.536 73.1515 261.27 72.6733C262.009 72.1903 262.871 71.9489 263.855 71.9489C264.424 71.9489 264.985 72.0436 265.539 72.233C266.093 72.4223 266.597 72.7301 267.051 73.1562C267.506 73.5777 267.868 74.1364 268.138 74.8324C268.408 75.5284 268.543 76.3854 268.543 77.4034V78.1136H260.134V76.6648H266.838C266.838 76.0492 266.715 75.5 266.469 75.017C266.228 74.5341 265.882 74.1529 265.432 73.8736C264.987 73.5942 264.462 73.4545 263.855 73.4545C263.188 73.4545 262.61 73.6203 262.123 73.9517C261.64 74.2784 261.268 74.7045 261.007 75.2301C260.747 75.7557 260.617 76.3191 260.617 76.9205V77.8864C260.617 78.7102 260.759 79.4086 261.043 79.9815C261.332 80.5497 261.732 80.983 262.243 81.2812C262.755 81.5748 263.349 81.7216 264.026 81.7216C264.466 81.7216 264.864 81.66 265.219 81.5369C265.579 81.4091 265.889 81.2197 266.15 80.9688C266.41 80.7131 266.611 80.3958 266.753 80.017L268.373 80.4716C268.202 81.0208 267.916 81.5038 267.513 81.9205C267.111 82.3324 266.614 82.6544 266.022 82.8864C265.43 83.1136 264.765 83.2273 264.026 83.2273ZM275.212 83.2273C274.303 83.2273 273.5 82.9976 272.804 82.5384C272.108 82.0743 271.564 81.4209 271.171 80.5781C270.778 79.7306 270.581 78.7292 270.581 77.5739C270.581 76.428 270.778 75.4337 271.171 74.5909C271.564 73.7481 272.111 73.0971 272.811 72.6378C273.512 72.1785 274.322 71.9489 275.24 71.9489C275.951 71.9489 276.512 72.0672 276.924 72.304C277.34 72.536 277.658 72.8011 277.875 73.0994C278.098 73.393 278.271 73.6345 278.394 73.8239H278.536V68.4545H280.212V83H278.593V81.3239H278.394C278.271 81.5227 278.096 81.7737 277.868 82.0767C277.641 82.375 277.317 82.6425 276.895 82.8793C276.474 83.1113 275.913 83.2273 275.212 83.2273ZM275.439 81.7216C276.112 81.7216 276.68 81.5464 277.144 81.196C277.608 80.8409 277.961 80.3509 278.202 79.7259C278.444 79.0961 278.564 78.3693 278.564 77.5455C278.564 76.7311 278.446 76.0185 278.209 75.4077C277.972 74.7921 277.622 74.3139 277.158 73.973C276.694 73.6274 276.121 73.4545 275.439 73.4545C274.729 73.4545 274.137 73.6368 273.664 74.0014C273.195 74.3613 272.842 74.8513 272.605 75.4716C272.373 76.0871 272.257 76.7784 272.257 77.5455C272.257 78.322 272.376 79.0275 272.613 79.6619C272.854 80.2917 273.209 80.7936 273.678 81.1676C274.151 81.5369 274.739 81.7216 275.439 81.7216Z" fill="black"/>
<path d="M392.358 350.455L396.676 362.699H396.847L401.165 350.455H403.011L397.67 365H395.852L390.511 350.455H392.358ZM407.805 367.614C407.152 367.614 406.567 367.505 406.051 367.287C405.54 367.069 405.133 366.768 404.83 366.385C404.531 366.001 404.377 365.559 404.368 365.057H405.93C405.945 365.44 406.129 365.748 406.484 365.98C406.839 366.217 407.28 366.335 407.805 366.335C408.359 366.335 408.814 366.207 409.169 365.952C409.529 365.696 409.709 365.369 409.709 364.972C409.709 364.574 409.517 364.247 409.134 363.991C408.755 363.736 408.246 363.608 407.607 363.608H406.896V362.472H407.607C408.132 362.472 408.57 362.353 408.92 362.116C409.276 361.88 409.453 361.562 409.453 361.165C409.453 360.795 409.304 360.49 409.006 360.249C408.707 360.007 408.317 359.886 407.834 359.886C407.351 359.886 406.934 360.005 406.584 360.241C406.238 360.478 406.058 360.795 406.044 361.193H404.567C404.576 360.691 404.725 360.251 405.014 359.872C405.308 359.493 405.698 359.197 406.186 358.984C406.679 358.771 407.228 358.665 407.834 358.665C408.449 358.665 408.991 358.769 409.46 358.977C409.929 359.186 410.296 359.472 410.561 359.837C410.826 360.201 410.959 360.616 410.959 361.08C410.959 361.591 410.784 362.01 410.433 362.337C410.083 362.663 409.652 362.869 409.141 362.955V363.011C409.837 363.111 410.369 363.35 410.739 363.729C411.113 364.107 411.3 364.56 411.3 365.085C411.3 365.568 411.151 365.999 410.852 366.378C410.554 366.761 410.142 367.062 409.616 367.28C409.091 367.502 408.487 367.614 407.805 367.614ZM414.345 357.983V356.449H423.095V357.983H414.345ZM414.345 362.188V360.653H423.095V362.188H414.345ZM430.057 365.256C429.366 365.256 428.738 365.125 428.175 364.865C427.611 364.6 427.164 364.219 426.832 363.722C426.501 363.22 426.335 362.614 426.335 361.903C426.335 361.278 426.458 360.772 426.705 360.384C426.951 359.991 427.28 359.683 427.692 359.46C428.104 359.238 428.558 359.072 429.055 358.963C429.557 358.849 430.062 358.759 430.568 358.693C431.231 358.608 431.768 358.544 432.18 358.501C432.597 358.454 432.9 358.376 433.089 358.267C433.284 358.158 433.381 357.969 433.381 357.699V357.642C433.381 356.941 433.189 356.397 432.805 356.009C432.427 355.62 431.851 355.426 431.08 355.426C430.279 355.426 429.652 355.601 429.197 355.952C428.743 356.302 428.423 356.676 428.239 357.074L426.648 356.506C426.932 355.843 427.311 355.327 427.784 354.957C428.262 354.583 428.783 354.323 429.347 354.176C429.915 354.025 430.473 353.949 431.023 353.949C431.373 353.949 431.776 353.991 432.23 354.077C432.689 354.157 433.132 354.325 433.558 354.581C433.989 354.837 434.347 355.223 434.631 355.739C434.915 356.255 435.057 356.946 435.057 357.812V365H433.381V363.523H433.295C433.182 363.759 432.992 364.013 432.727 364.283C432.462 364.553 432.109 364.782 431.669 364.972C431.229 365.161 430.691 365.256 430.057 365.256ZM430.312 363.75C430.975 363.75 431.534 363.62 431.989 363.359C432.448 363.099 432.794 362.763 433.026 362.351C433.262 361.939 433.381 361.506 433.381 361.051V359.517C433.31 359.602 433.153 359.68 432.912 359.751C432.675 359.818 432.401 359.877 432.088 359.929C431.78 359.976 431.48 360.019 431.186 360.057C430.897 360.09 430.663 360.118 430.483 360.142C430.047 360.199 429.64 360.291 429.261 360.419C428.887 360.542 428.584 360.729 428.352 360.98C428.125 361.226 428.011 361.562 428.011 361.989C428.011 362.571 428.227 363.011 428.658 363.31C429.093 363.603 429.645 363.75 430.312 363.75ZM438.343 365V350.455H440.02V355.824H440.162C440.285 355.634 440.455 355.393 440.673 355.099C440.895 354.801 441.213 354.536 441.625 354.304C442.041 354.067 442.605 353.949 443.315 353.949C444.234 353.949 445.043 354.179 445.744 354.638C446.445 355.097 446.992 355.748 447.385 356.591C447.778 357.434 447.974 358.428 447.974 359.574C447.974 360.729 447.778 361.731 447.385 362.578C446.992 363.421 446.447 364.074 445.751 364.538C445.055 364.998 444.252 365.227 443.343 365.227C442.643 365.227 442.082 365.111 441.66 364.879C441.239 364.643 440.914 364.375 440.687 364.077C440.46 363.774 440.285 363.523 440.162 363.324H439.963V365H438.343ZM439.991 359.545C439.991 360.369 440.112 361.096 440.353 361.726C440.595 362.351 440.948 362.841 441.412 363.196C441.876 363.546 442.444 363.722 443.116 363.722C443.817 363.722 444.402 363.537 444.87 363.168C445.344 362.794 445.699 362.292 445.936 361.662C446.177 361.027 446.298 360.322 446.298 359.545C446.298 358.778 446.18 358.087 445.943 357.472C445.711 356.851 445.358 356.361 444.885 356.001C444.416 355.637 443.826 355.455 443.116 355.455C442.434 355.455 441.861 355.627 441.397 355.973C440.933 356.314 440.583 356.792 440.346 357.408C440.109 358.018 439.991 358.731 439.991 359.545ZM454.97 365.227C453.985 365.227 453.121 364.993 452.377 364.524C451.639 364.055 451.061 363.4 450.645 362.557C450.233 361.714 450.027 360.729 450.027 359.602C450.027 358.466 450.233 357.474 450.645 356.626C451.061 355.779 451.639 355.121 452.377 354.652C453.121 354.183 453.985 353.949 454.97 353.949C455.955 353.949 456.816 354.183 457.555 354.652C458.298 355.121 458.876 355.779 459.288 356.626C459.705 357.474 459.913 358.466 459.913 359.602C459.913 360.729 459.705 361.714 459.288 362.557C458.876 363.4 458.298 364.055 457.555 364.524C456.816 364.993 455.955 365.227 454.97 365.227ZM454.97 363.722C455.718 363.722 456.333 363.53 456.816 363.146C457.299 362.763 457.657 362.259 457.889 361.634C458.121 361.009 458.237 360.331 458.237 359.602C458.237 358.873 458.121 358.194 457.889 357.564C457.657 356.934 457.299 356.425 456.816 356.037C456.333 355.649 455.718 355.455 454.97 355.455C454.222 355.455 453.606 355.649 453.123 356.037C452.64 356.425 452.283 356.934 452.051 357.564C451.819 358.194 451.703 358.873 451.703 359.602C451.703 360.331 451.819 361.009 452.051 361.634C452.283 362.259 452.64 362.763 453.123 363.146C453.606 363.53 454.222 363.722 454.97 363.722ZM462.472 365V354.091H464.091V355.739H464.205C464.403 355.199 464.763 354.761 465.284 354.425C465.805 354.089 466.392 353.92 467.045 353.92C467.169 353.92 467.322 353.923 467.507 353.928C467.692 353.932 467.831 353.939 467.926 353.949V355.653C467.869 355.639 467.739 355.618 467.536 355.589C467.337 355.556 467.126 355.54 466.903 355.54C466.373 355.54 465.9 355.651 465.483 355.874C465.071 356.091 464.744 356.394 464.503 356.783C464.266 357.166 464.148 357.604 464.148 358.097V365H462.472ZM475.341 354.091V355.511H469.688V354.091H475.341ZM471.335 351.477H473.011V361.875C473.011 362.348 473.08 362.704 473.217 362.94C473.359 363.172 473.539 363.329 473.757 363.409C473.98 363.485 474.214 363.523 474.46 363.523C474.645 363.523 474.796 363.513 474.915 363.494C475.033 363.471 475.128 363.452 475.199 363.438L475.54 364.943C475.426 364.986 475.268 365.028 475.064 365.071C474.86 365.118 474.602 365.142 474.29 365.142C473.816 365.142 473.352 365.04 472.898 364.837C472.448 364.633 472.074 364.323 471.776 363.906C471.482 363.49 471.335 362.964 471.335 362.33V351.477Z" fill="black"/>
</svg>
